%TF.GenerationSoftware,KiCad,Pcbnew,8.0.7*%
%TF.CreationDate,2025-10-25T23:35:46+02:00*%
%TF.ProjectId,VOCaware,564f4361-7761-4726-952e-6b696361645f,v1.0*%
%TF.SameCoordinates,Original*%
%TF.FileFunction,Profile,NP*%
%FSLAX46Y46*%
G04 Gerber Fmt 4.6, Leading zero omitted, Abs format (unit mm)*
G04 Created by KiCad (PCBNEW 8.0.7) date 2025-10-25 23:35:46*
%MOMM*%
%LPD*%
G01*
G04 APERTURE LIST*
%TA.AperFunction,Profile*%
%ADD10C,0.100000*%
%TD*%
%TA.AperFunction,Profile*%
%ADD11C,0.200000*%
%TD*%
G04 APERTURE END LIST*
D10*
X94230000Y-67480000D02*
X97480000Y-67480000D01*
X97980000Y-65480000D02*
G75*
G02*
X98980000Y-65480000I500000J0D01*
G01*
D11*
X95230000Y-76230000D02*
G75*
G02*
X91230000Y-72230000I0J4000000D01*
G01*
X91230000Y-50230000D02*
X91230000Y-72230000D01*
X127230000Y-76230000D02*
X95230000Y-76230000D01*
D10*
X97980000Y-60980000D02*
X97980000Y-62480000D01*
X94230000Y-59480000D02*
X97980000Y-59480000D01*
D11*
X127230000Y-46230000D02*
X95230000Y-46230000D01*
X131230000Y-72230000D02*
G75*
G02*
X127230000Y-76230000I-4000000J0D01*
G01*
D10*
X97980000Y-66980000D02*
G75*
G02*
X97480000Y-67480000I-500000J0D01*
G01*
X97980000Y-59480000D02*
G75*
G02*
X98980000Y-60480000I0J-1000000D01*
G01*
X98980000Y-62480000D02*
G75*
G02*
X97980000Y-62480000I-500000J0D01*
G01*
X98980000Y-65480000D02*
X98980000Y-67480000D01*
D11*
X127230000Y-46230000D02*
G75*
G02*
X131230000Y-50230000I0J-4000000D01*
G01*
X91230000Y-50230000D02*
G75*
G02*
X95230000Y-46230000I4000000J0D01*
G01*
D10*
X98980000Y-62480000D02*
X98980000Y-60480000D01*
X98980000Y-67480000D02*
G75*
G02*
X97980000Y-68480000I-1000000J0D01*
G01*
X97480000Y-60480000D02*
G75*
G02*
X97980000Y-60980000I0J-500000D01*
G01*
D11*
X131230000Y-50230000D02*
X131230000Y-72230000D01*
D10*
X97980000Y-68480000D02*
X94230000Y-68480000D01*
X94230000Y-60480000D02*
G75*
G02*
X94230000Y-59480000I0J500000D01*
G01*
X97480000Y-60480000D02*
X94230000Y-60480000D01*
X94230000Y-68480000D02*
G75*
G02*
X94230000Y-67480000I0J500000D01*
G01*
X97980000Y-66980000D02*
X97980000Y-65480000D01*
M02*
