%TF.GenerationSoftware,KiCad,Pcbnew,8.0.7*%
%TF.CreationDate,2025-10-25T23:35:46+02:00*%
%TF.ProjectId,VOCaware,564f4361-7761-4726-952e-6b696361645f,v1.0*%
%TF.SameCoordinates,Original*%
%TF.FileFunction,Copper,L1,Top*%
%TF.FilePolarity,Positive*%
%FSLAX46Y46*%
G04 Gerber Fmt 4.6, Leading zero omitted, Abs format (unit mm)*
G04 Created by KiCad (PCBNEW 8.0.7) date 2025-10-25 23:35:46*
%MOMM*%
%LPD*%
G01*
G04 APERTURE LIST*
G04 Aperture macros list*
%AMRoundRect*
0 Rectangle with rounded corners*
0 $1 Rounding radius*
0 $2 $3 $4 $5 $6 $7 $8 $9 X,Y pos of 4 corners*
0 Add a 4 corners polygon primitive as box body*
4,1,4,$2,$3,$4,$5,$6,$7,$8,$9,$2,$3,0*
0 Add four circle primitives for the rounded corners*
1,1,$1+$1,$2,$3*
1,1,$1+$1,$4,$5*
1,1,$1+$1,$6,$7*
1,1,$1+$1,$8,$9*
0 Add four rect primitives between the rounded corners*
20,1,$1+$1,$2,$3,$4,$5,0*
20,1,$1+$1,$4,$5,$6,$7,0*
20,1,$1+$1,$6,$7,$8,$9,0*
20,1,$1+$1,$8,$9,$2,$3,0*%
G04 Aperture macros list end*
%TA.AperFunction,SMDPad,CuDef*%
%ADD10RoundRect,0.140000X-0.170000X0.140000X-0.170000X-0.140000X0.170000X-0.140000X0.170000X0.140000X0*%
%TD*%
%TA.AperFunction,SMDPad,CuDef*%
%ADD11RoundRect,0.140000X0.140000X0.170000X-0.140000X0.170000X-0.140000X-0.170000X0.140000X-0.170000X0*%
%TD*%
%TA.AperFunction,SMDPad,CuDef*%
%ADD12R,1.000000X1.500000*%
%TD*%
%TA.AperFunction,SMDPad,CuDef*%
%ADD13RoundRect,0.135000X0.185000X-0.135000X0.185000X0.135000X-0.185000X0.135000X-0.185000X-0.135000X0*%
%TD*%
%TA.AperFunction,SMDPad,CuDef*%
%ADD14RoundRect,0.140000X-0.140000X-0.170000X0.140000X-0.170000X0.140000X0.170000X-0.140000X0.170000X0*%
%TD*%
%TA.AperFunction,SMDPad,CuDef*%
%ADD15RoundRect,0.135000X0.135000X0.185000X-0.135000X0.185000X-0.135000X-0.185000X0.135000X-0.185000X0*%
%TD*%
%TA.AperFunction,SMDPad,CuDef*%
%ADD16RoundRect,0.150000X0.587500X0.150000X-0.587500X0.150000X-0.587500X-0.150000X0.587500X-0.150000X0*%
%TD*%
%TA.AperFunction,SMDPad,CuDef*%
%ADD17R,0.750000X0.450000*%
%TD*%
%TA.AperFunction,SMDPad,CuDef*%
%ADD18R,1.350000X1.740000*%
%TD*%
%TA.AperFunction,SMDPad,CuDef*%
%ADD19RoundRect,0.225000X0.250000X-0.225000X0.250000X0.225000X-0.250000X0.225000X-0.250000X-0.225000X0*%
%TD*%
%TA.AperFunction,SMDPad,CuDef*%
%ADD20RoundRect,0.135000X-0.185000X0.135000X-0.185000X-0.135000X0.185000X-0.135000X0.185000X0.135000X0*%
%TD*%
%TA.AperFunction,SMDPad,CuDef*%
%ADD21RoundRect,0.150000X0.425000X-0.150000X0.425000X0.150000X-0.425000X0.150000X-0.425000X-0.150000X0*%
%TD*%
%TA.AperFunction,SMDPad,CuDef*%
%ADD22RoundRect,0.075000X0.500000X-0.075000X0.500000X0.075000X-0.500000X0.075000X-0.500000X-0.075000X0*%
%TD*%
%TA.AperFunction,ComponentPad*%
%ADD23O,2.100000X1.000000*%
%TD*%
%TA.AperFunction,ComponentPad*%
%ADD24O,1.800000X1.000000*%
%TD*%
%TA.AperFunction,SMDPad,CuDef*%
%ADD25R,1.150000X0.600000*%
%TD*%
%TA.AperFunction,SMDPad,CuDef*%
%ADD26R,0.950000X1.400000*%
%TD*%
%TA.AperFunction,SMDPad,CuDef*%
%ADD27R,1.150000X0.750000*%
%TD*%
%TA.AperFunction,SMDPad,CuDef*%
%ADD28RoundRect,0.140000X0.170000X-0.140000X0.170000X0.140000X-0.170000X0.140000X-0.170000X-0.140000X0*%
%TD*%
%TA.AperFunction,SMDPad,CuDef*%
%ADD29R,0.800000X0.400000*%
%TD*%
%TA.AperFunction,SMDPad,CuDef*%
%ADD30R,0.400000X0.800000*%
%TD*%
%TA.AperFunction,SMDPad,CuDef*%
%ADD31R,1.200000X1.200000*%
%TD*%
%TA.AperFunction,SMDPad,CuDef*%
%ADD32R,0.800000X0.800000*%
%TD*%
%TA.AperFunction,SMDPad,CuDef*%
%ADD33R,0.600000X0.700000*%
%TD*%
%TA.AperFunction,SMDPad,CuDef*%
%ADD34RoundRect,0.218750X-0.218750X-0.256250X0.218750X-0.256250X0.218750X0.256250X-0.218750X0.256250X0*%
%TD*%
%TA.AperFunction,SMDPad,CuDef*%
%ADD35R,0.300000X0.500000*%
%TD*%
%TA.AperFunction,ViaPad*%
%ADD36C,0.600000*%
%TD*%
%TA.AperFunction,Conductor*%
%ADD37C,0.400000*%
%TD*%
%TA.AperFunction,Conductor*%
%ADD38C,0.200000*%
%TD*%
%TA.AperFunction,Conductor*%
%ADD39C,0.150000*%
%TD*%
G04 APERTURE END LIST*
D10*
%TO.P,C6,1*%
%TO.N,EN*%
X121230000Y-72270000D03*
%TO.P,C6,2*%
%TO.N,GND*%
X121230000Y-73230000D03*
%TD*%
D11*
%TO.P,C10,1*%
%TO.N,+3V3*%
X95210000Y-61980000D03*
%TO.P,C10,2*%
%TO.N,GND*%
X94250000Y-61980000D03*
%TD*%
D12*
%TO.P,SW1,1,1*%
%TO.N,GND*%
X124880000Y-54230000D03*
%TO.P,SW1,2,2*%
%TO.N,IO0*%
X123580000Y-54230000D03*
%TD*%
D13*
%TO.P,R1,1*%
%TO.N,GND*%
X126230000Y-68230000D03*
%TO.P,R1,2*%
%TO.N,Net-(J1-CC1)*%
X126230000Y-67210000D03*
%TD*%
%TO.P,R7,1*%
%TO.N,+3V3*%
X119230000Y-55740000D03*
%TO.P,R7,2*%
%TO.N,EN*%
X119230000Y-54720000D03*
%TD*%
D14*
%TO.P,C4,1*%
%TO.N,+5V*%
X120750000Y-63230000D03*
%TO.P,C4,2*%
%TO.N,GND*%
X121710000Y-63230000D03*
%TD*%
D13*
%TO.P,R3,1*%
%TO.N,+3V3*%
X100480000Y-66240000D03*
%TO.P,R3,2*%
%TO.N,IO9_SCL0*%
X100480000Y-65220000D03*
%TD*%
D15*
%TO.P,R8,1*%
%TO.N,+3V3*%
X114740000Y-70780000D03*
%TO.P,R8,2*%
%TO.N,Net-(IC3-VDD)*%
X113720000Y-70780000D03*
%TD*%
D10*
%TO.P,C9,1*%
%TO.N,+3V3*%
X117480000Y-73300000D03*
%TO.P,C9,2*%
%TO.N,GND*%
X117480000Y-74260000D03*
%TD*%
D13*
%TO.P,R9,1*%
%TO.N,LED_SIG*%
X104480000Y-71490000D03*
%TO.P,R9,2*%
%TO.N,+5V*%
X104480000Y-70470000D03*
%TD*%
D16*
%TO.P,Q1,1,G*%
%TO.N,+3V3*%
X108230000Y-73880000D03*
%TO.P,Q1,2,S*%
%TO.N,IO12*%
X108230000Y-71980000D03*
%TO.P,Q1,3,D*%
%TO.N,LED_SIG*%
X106355000Y-72930000D03*
%TD*%
D17*
%TO.P,IC3,1,VDD*%
%TO.N,Net-(IC3-VDD)*%
X113730000Y-72230000D03*
%TO.P,IC3,2,VSS*%
%TO.N,GND*%
X113730000Y-73030000D03*
%TO.P,IC3,3,SDA*%
%TO.N,IO8_SDA0*%
X113730000Y-73830000D03*
%TO.P,IC3,4,N/A*%
%TO.N,unconnected-(IC3-N{slash}A-Pad4)*%
X116230000Y-73830000D03*
%TO.P,IC3,5,VDDH*%
%TO.N,+3V3*%
X116230000Y-73030000D03*
%TO.P,IC3,6,SCL*%
%TO.N,IO9_SCL0*%
X116230000Y-72230000D03*
D18*
%TO.P,IC3,7,EP*%
%TO.N,GND*%
X114980000Y-73030000D03*
%TD*%
D13*
%TO.P,R2,1*%
%TO.N,GND*%
X127230000Y-68230000D03*
%TO.P,R2,2*%
%TO.N,Net-(J1-CC2)*%
X127230000Y-67210000D03*
%TD*%
D10*
%TO.P,C5,1*%
%TO.N,+3V3*%
X119730000Y-63020000D03*
%TO.P,C5,2*%
%TO.N,GND*%
X119730000Y-63980000D03*
%TD*%
D19*
%TO.P,C1,1*%
%TO.N,+3V3*%
X100230000Y-56005000D03*
%TO.P,C1,2*%
%TO.N,GND*%
X100230000Y-54455000D03*
%TD*%
D20*
%TO.P,R5,1*%
%TO.N,+3V3*%
X100480000Y-62720000D03*
%TO.P,R5,2*%
%TO.N,IO8_SDA0*%
X100480000Y-63740000D03*
%TD*%
%TO.P,R11,1*%
%TO.N,LED_SIG*%
X104480000Y-72720000D03*
%TO.P,R11,2*%
%TO.N,Net-(LED1-DIN)*%
X104480000Y-73740000D03*
%TD*%
D10*
%TO.P,C8,1*%
%TO.N,Net-(IC3-VDD)*%
X112480000Y-72300000D03*
%TO.P,C8,2*%
%TO.N,GND*%
X112480000Y-73260000D03*
%TD*%
D21*
%TO.P,J1,A1,GND*%
%TO.N,GND*%
X124550000Y-64430000D03*
%TO.P,J1,A4,VBUS*%
%TO.N,Net-(F1-Pad2)*%
X124550000Y-63630000D03*
D22*
%TO.P,J1,A5,CC1*%
%TO.N,Net-(J1-CC1)*%
X124550000Y-62480000D03*
%TO.P,J1,A6,D+*%
%TO.N,USB_D+*%
X124550000Y-61480000D03*
%TO.P,J1,A7,D-*%
%TO.N,USB_D-*%
X124550000Y-60980000D03*
%TO.P,J1,A8,SBU1*%
%TO.N,unconnected-(J1-SBU1-PadA8)*%
X124550000Y-59980000D03*
D21*
%TO.P,J1,A9,VBUS*%
%TO.N,Net-(F1-Pad2)*%
X124550000Y-58830000D03*
%TO.P,J1,A12,GND*%
%TO.N,GND*%
X124550000Y-58030000D03*
%TO.P,J1,B1,GND*%
X124550000Y-58030000D03*
%TO.P,J1,B4,VBUS*%
%TO.N,Net-(F1-Pad2)*%
X124550000Y-58830000D03*
D22*
%TO.P,J1,B5,CC2*%
%TO.N,Net-(J1-CC2)*%
X124550000Y-59480000D03*
%TO.P,J1,B6,D+*%
%TO.N,USB_D+*%
X124550000Y-60480000D03*
%TO.P,J1,B7,D-*%
%TO.N,USB_D-*%
X124550000Y-61980000D03*
%TO.P,J1,B8,SBU2*%
%TO.N,unconnected-(J1-SBU2-PadB8)*%
X124550000Y-62980000D03*
D21*
%TO.P,J1,B9,VBUS*%
%TO.N,Net-(F1-Pad2)*%
X124550000Y-63630000D03*
%TO.P,J1,B12,GND*%
%TO.N,GND*%
X124550000Y-64430000D03*
D23*
%TO.P,J1,S1,SHIELD*%
X125125000Y-65550000D03*
D24*
X129305000Y-65550000D03*
D23*
X125125000Y-56910000D03*
D24*
X129305000Y-56910000D03*
%TD*%
D25*
%TO.P,IC2,1,VIN*%
%TO.N,+5V*%
X122280000Y-61430000D03*
%TO.P,IC2,2,GND*%
%TO.N,GND*%
X122280000Y-60480000D03*
%TO.P,IC2,3,EN*%
%TO.N,+5V*%
X122280000Y-59530000D03*
%TO.P,IC2,4,NC*%
%TO.N,unconnected-(IC2-NC-Pad4)*%
X119680000Y-59530000D03*
%TO.P,IC2,5,VOUT*%
%TO.N,+3V3*%
X119680000Y-61430000D03*
%TD*%
D26*
%TO.P,RST   .,1,COM*%
%TO.N,GND*%
X128305000Y-72230000D03*
%TO.P,RST   .,2,N.O.*%
%TO.N,EN*%
X124155000Y-72230000D03*
D27*
%TO.P,RST   .,G1,GND_1*%
%TO.N,GND*%
X127805000Y-70705000D03*
%TO.P,RST   .,G2,GND_2*%
X124655000Y-70705000D03*
%TO.P,RST   .,G3,GND_3*%
X124655000Y-73755000D03*
%TO.P,RST   .,G4,GND_4*%
X127805000Y-73755000D03*
%TD*%
D10*
%TO.P,C2,1*%
%TO.N,+3V3*%
X100230000Y-57750000D03*
%TO.P,C2,2*%
%TO.N,GND*%
X100230000Y-58710000D03*
%TD*%
D13*
%TO.P,R10,1*%
%TO.N,+3V3*%
X109980000Y-73240000D03*
%TO.P,R10,2*%
%TO.N,IO12*%
X109980000Y-72220000D03*
%TD*%
D28*
%TO.P,C3,1*%
%TO.N,EN*%
X119230000Y-53710000D03*
%TO.P,C3,2*%
%TO.N,GND*%
X119230000Y-52750000D03*
%TD*%
%TO.P,C7,1*%
%TO.N,IO0*%
X121230000Y-54230000D03*
%TO.P,C7,2*%
%TO.N,GND*%
X121230000Y-53270000D03*
%TD*%
D29*
%TO.P,IC1,1,GND_1*%
%TO.N,GND*%
X102930000Y-54280000D03*
%TO.P,IC1,2,GND_2*%
X102930000Y-55130000D03*
%TO.P,IC1,3,3V3*%
%TO.N,+3V3*%
X102930000Y-55980000D03*
%TO.P,IC1,4,IO0*%
%TO.N,IO0*%
X102930000Y-56830000D03*
%TO.P,IC1,5,IO1*%
%TO.N,IO1*%
X102930000Y-57680000D03*
%TO.P,IC1,6,IO2*%
%TO.N,IO2*%
X102930000Y-58530000D03*
%TO.P,IC1,7,IO3*%
%TO.N,IO3_S*%
X102930000Y-59380000D03*
%TO.P,IC1,8,IO4*%
%TO.N,unconnected-(IC1-IO4-Pad8)*%
X102930000Y-60230000D03*
%TO.P,IC1,9,IO5*%
%TO.N,unconnected-(IC1-IO5-Pad9)*%
X102930000Y-61080000D03*
%TO.P,IC1,10,IO6*%
%TO.N,unconnected-(IC1-IO6-Pad10)*%
X102930000Y-61930000D03*
%TO.P,IC1,11,IO7*%
%TO.N,unconnected-(IC1-IO7-Pad11)*%
X102930000Y-62780000D03*
%TO.P,IC1,12,IO8*%
%TO.N,IO8_SDA0*%
X102930000Y-63630000D03*
%TO.P,IC1,13,IO9*%
%TO.N,IO9_SCL0*%
X102930000Y-64480000D03*
%TO.P,IC1,14,IO10*%
%TO.N,IO10*%
X102930000Y-65330000D03*
%TO.P,IC1,15,IO11*%
%TO.N,IO11*%
X102930000Y-66180000D03*
D30*
%TO.P,IC1,16,IO12*%
%TO.N,IO12*%
X103980000Y-67230000D03*
%TO.P,IC1,17,IO13*%
%TO.N,unconnected-(IC1-IO13-Pad17)*%
X104830000Y-67230000D03*
%TO.P,IC1,18,IO14*%
%TO.N,unconnected-(IC1-IO14-Pad18)*%
X105680000Y-67230000D03*
%TO.P,IC1,19,IO15*%
%TO.N,unconnected-(IC1-IO15-Pad19)*%
X106530000Y-67230000D03*
%TO.P,IC1,20,IO16*%
%TO.N,unconnected-(IC1-IO16-Pad20)*%
X107380000Y-67230000D03*
%TO.P,IC1,21,IO17*%
%TO.N,unconnected-(IC1-IO17-Pad21)*%
X108230000Y-67230000D03*
%TO.P,IC1,22,IO18*%
%TO.N,unconnected-(IC1-IO18-Pad22)*%
X109080000Y-67230000D03*
%TO.P,IC1,23,IO19*%
%TO.N,USB_D-*%
X109930000Y-67230000D03*
%TO.P,IC1,24,IO20*%
%TO.N,USB_D+*%
X110780000Y-67230000D03*
%TO.P,IC1,25,IO21*%
%TO.N,unconnected-(IC1-IO21-Pad25)*%
X111630000Y-67230000D03*
%TO.P,IC1,26,IO26*%
%TO.N,unconnected-(IC1-IO26-Pad26)*%
X112480000Y-67230000D03*
%TO.P,IC1,27,IO47*%
%TO.N,unconnected-(IC1-IO47-Pad27)*%
X113330000Y-67230000D03*
%TO.P,IC1,28,IO33*%
%TO.N,unconnected-(IC1-IO33-Pad28)*%
X114180000Y-67230000D03*
%TO.P,IC1,29,IO34*%
%TO.N,unconnected-(IC1-IO34-Pad29)*%
X115030000Y-67230000D03*
%TO.P,IC1,30,IO48*%
%TO.N,unconnected-(IC1-IO48-Pad30)*%
X115880000Y-67230000D03*
D29*
%TO.P,IC1,31,IO35*%
%TO.N,unconnected-(IC1-IO35-Pad31)*%
X116930000Y-66180000D03*
%TO.P,IC1,32,IO36*%
%TO.N,unconnected-(IC1-IO36-Pad32)*%
X116930000Y-65330000D03*
%TO.P,IC1,33,IO37*%
%TO.N,unconnected-(IC1-IO37-Pad33)*%
X116930000Y-64480000D03*
%TO.P,IC1,34,IO38*%
%TO.N,unconnected-(IC1-IO38-Pad34)*%
X116930000Y-63630000D03*
%TO.P,IC1,35,IO39*%
%TO.N,unconnected-(IC1-IO39-Pad35)*%
X116930000Y-62780000D03*
%TO.P,IC1,36,IO40*%
%TO.N,unconnected-(IC1-IO40-Pad36)*%
X116930000Y-61930000D03*
%TO.P,IC1,37,IO41*%
%TO.N,unconnected-(IC1-IO41-Pad37)*%
X116930000Y-61080000D03*
%TO.P,IC1,38,IO42*%
%TO.N,unconnected-(IC1-IO42-Pad38)*%
X116930000Y-60230000D03*
%TO.P,IC1,39,TXD0*%
%TO.N,TXD0*%
X116930000Y-59380000D03*
%TO.P,IC1,40,RXD0*%
%TO.N,RXD0*%
X116930000Y-58530000D03*
%TO.P,IC1,41,IO45*%
%TO.N,I045_S*%
X116930000Y-57680000D03*
%TO.P,IC1,42,GND_3*%
%TO.N,GND*%
X116930000Y-56830000D03*
%TO.P,IC1,43,GND_4*%
X116930000Y-55980000D03*
%TO.P,IC1,44,IO46*%
%TO.N,I046_S*%
X116930000Y-55130000D03*
%TO.P,IC1,45,EN*%
%TO.N,EN*%
X116930000Y-54280000D03*
D30*
%TO.P,IC1,46,GND_5*%
%TO.N,GND*%
X115880000Y-53230000D03*
%TO.P,IC1,47,GND_6*%
X115030000Y-53230000D03*
%TO.P,IC1,48,GND_7*%
X114180000Y-53230000D03*
%TO.P,IC1,49,GND_8*%
X113330000Y-53230000D03*
%TO.P,IC1,50,GND_9*%
X112480000Y-53230000D03*
%TO.P,IC1,51,GND_10*%
X111630000Y-53230000D03*
%TO.P,IC1,52,GND_11*%
X110780000Y-53230000D03*
%TO.P,IC1,53,GND_12*%
X109930000Y-53230000D03*
%TO.P,IC1,54,GND_13*%
X109080000Y-53230000D03*
%TO.P,IC1,55,GND_14*%
X108230000Y-53230000D03*
%TO.P,IC1,56,GND_15*%
X107380000Y-53230000D03*
%TO.P,IC1,57,GND_16*%
X106530000Y-53230000D03*
%TO.P,IC1,58,GND_17*%
X105680000Y-53230000D03*
%TO.P,IC1,59,GND_18*%
X104830000Y-53230000D03*
%TO.P,IC1,60,GND_19*%
X103980000Y-53230000D03*
D31*
%TO.P,IC1,61,GND_20*%
X109930000Y-60230000D03*
D32*
%TO.P,IC1,62,GND_21*%
X102930000Y-53230000D03*
%TO.P,IC1,63,GND_22*%
X102930000Y-67230000D03*
%TO.P,IC1,64,GND_23*%
X116930000Y-67230000D03*
%TO.P,IC1,65,GND_24*%
X116930000Y-53230000D03*
D31*
%TO.P,IC1,66,GND_25*%
X108280000Y-58580000D03*
%TO.P,IC1,67,GND_26*%
X108280000Y-60230000D03*
%TO.P,IC1,68,GND_27*%
X108280000Y-61880000D03*
%TO.P,IC1,69,GND_28*%
X109930000Y-61880000D03*
%TO.P,IC1,70,GND_29*%
X111580000Y-61880000D03*
%TO.P,IC1,71,GND_30*%
X111580000Y-60230000D03*
%TO.P,IC1,72,GND_31*%
X111580000Y-58580000D03*
%TO.P,IC1,73,GND_32*%
X109930000Y-58580000D03*
%TD*%
D33*
%TO.P,LED1,1,VDD*%
%TO.N,+5V*%
X102480000Y-72580000D03*
%TO.P,LED1,2,DOUT*%
%TO.N,unconnected-(LED1-DOUT-Pad2)*%
X100980000Y-72580000D03*
%TO.P,LED1,3,GND*%
%TO.N,GND*%
X100980000Y-73480000D03*
%TO.P,LED1,4,DIN*%
%TO.N,Net-(LED1-DIN)*%
X102480000Y-73480000D03*
%TD*%
D11*
%TO.P,C11,1*%
%TO.N,+5V*%
X102440000Y-70480000D03*
%TO.P,C11,2*%
%TO.N,GND*%
X101480000Y-70480000D03*
%TD*%
D34*
%TO.P,F1,1*%
%TO.N,+5V*%
X120905000Y-57480000D03*
%TO.P,F1,2*%
%TO.N,Net-(F1-Pad2)*%
X122480000Y-57480000D03*
%TD*%
D35*
%TO.P,U1,1,SDA*%
%TO.N,IO8_SDA0*%
X94380000Y-64730000D03*
%TO.P,U1,2,SCL*%
%TO.N,IO9_SCL0*%
X95180000Y-64730000D03*
%TO.P,U1,3,VDD*%
%TO.N,+3V3*%
X95180000Y-63330000D03*
%TO.P,U1,4,VSS*%
%TO.N,GND*%
X94380000Y-63330000D03*
%TD*%
D36*
%TO.N,GND*%
X111500000Y-57000000D03*
X105750000Y-58250000D03*
X98500000Y-57250000D03*
X108250000Y-57000000D03*
X129750000Y-67250000D03*
X99780000Y-67227018D03*
X109730000Y-66230000D03*
X98750000Y-74500000D03*
X110980000Y-66230000D03*
X105980000Y-70480000D03*
X121730000Y-64480000D03*
X103980000Y-62980000D03*
X123319240Y-60015696D03*
X103980000Y-65480000D03*
X119750000Y-72250000D03*
X108500000Y-75250000D03*
X92750000Y-58000000D03*
X129250000Y-61250000D03*
X110000000Y-57000000D03*
X108730000Y-69730000D03*
X93750000Y-63750000D03*
X129000000Y-54500000D03*
X118230000Y-56480000D03*
X92750000Y-53250000D03*
X100230000Y-53230000D03*
X106750000Y-60250000D03*
X98250000Y-70000000D03*
X121230000Y-74230000D03*
X102980000Y-68730000D03*
X115730000Y-56980000D03*
X123000000Y-67750000D03*
X119250000Y-67250000D03*
X100230000Y-60230000D03*
%TO.N,+3V3*%
X101480000Y-55980000D03*
X96250000Y-63250000D03*
X118855000Y-73355000D03*
X106480000Y-73980000D03*
X118480000Y-57730000D03*
X100480000Y-61730000D03*
X101529265Y-65529265D03*
%TO.N,EN*%
X118230000Y-55480000D03*
X121230000Y-68980000D03*
%TO.N,IO0*%
X106480000Y-54730000D03*
X120230000Y-54730000D03*
%TO.N,+5V*%
X119730000Y-66230000D03*
X104480000Y-69230000D03*
%TO.N,RXD0*%
X113480000Y-60480000D03*
%TO.N,IO9_SCL0*%
X116230000Y-71480000D03*
X113480000Y-65730000D03*
%TO.N,IO3_S*%
X105730000Y-60730000D03*
%TO.N,I046_S*%
X112980000Y-58730000D03*
%TO.N,IO11*%
X100480000Y-70480000D03*
%TO.N,IO10*%
X99980000Y-71480000D03*
%TO.N,I045_S*%
X113105000Y-59605000D03*
%TO.N,TXD0*%
X115230000Y-60230000D03*
%TO.N,IO8_SDA0*%
X111230000Y-64730000D03*
X111580000Y-69730000D03*
%TO.N,Net-(F1-Pad2)*%
X125625000Y-63080000D03*
X126230000Y-59230000D03*
%TD*%
D37*
%TO.N,GND*%
X124550000Y-57485000D02*
X125125000Y-56910000D01*
D38*
X113200000Y-73260000D02*
X112480000Y-73260000D01*
X117730000Y-55980000D02*
X116930000Y-55980000D01*
X121200000Y-74260000D02*
X121230000Y-74230000D01*
X113730000Y-73030000D02*
X114980000Y-73030000D01*
D37*
X122280000Y-60480000D02*
X122854936Y-60480000D01*
D38*
X113430000Y-73030000D02*
X113200000Y-73260000D01*
X117480000Y-74260000D02*
X121200000Y-74260000D01*
D39*
X93920000Y-63330000D02*
X94380000Y-63330000D01*
D38*
X113730000Y-73030000D02*
X113430000Y-73030000D01*
D37*
X124550000Y-58030000D02*
X124550000Y-57485000D01*
D39*
X93750000Y-63750000D02*
X93750000Y-63500000D01*
D37*
X122854936Y-60480000D02*
X123319240Y-60015696D01*
D38*
X118230000Y-56480000D02*
X117730000Y-55980000D01*
X115355000Y-74355000D02*
X114980000Y-73980000D01*
X102930000Y-68680000D02*
X102980000Y-68730000D01*
D37*
X100230000Y-60230000D02*
X100230000Y-58710000D01*
D39*
X94380000Y-63330000D02*
X94380000Y-62110000D01*
D38*
X117480000Y-74260000D02*
X117385000Y-74355000D01*
X117385000Y-74355000D02*
X115355000Y-74355000D01*
X102930000Y-67230000D02*
X102930000Y-68680000D01*
X121230000Y-73230000D02*
X121230000Y-74230000D01*
D39*
X93750000Y-63500000D02*
X93920000Y-63330000D01*
D38*
X114980000Y-73980000D02*
X114980000Y-73030000D01*
D39*
X94380000Y-62110000D02*
X94250000Y-61980000D01*
D37*
%TO.N,+3V3*%
X118480000Y-60230000D02*
X119680000Y-61430000D01*
D38*
X117480000Y-73300000D02*
X117050000Y-73300000D01*
D37*
X101480000Y-55980000D02*
X100255000Y-55980000D01*
D38*
X118855000Y-73355000D02*
X118800000Y-73300000D01*
X101529265Y-65529265D02*
X100818530Y-66240000D01*
X109980000Y-73240000D02*
X109720000Y-73240000D01*
X108230000Y-73880000D02*
X106580000Y-73880000D01*
X118800000Y-73300000D02*
X117480000Y-73300000D01*
X100818530Y-66240000D02*
X100480000Y-66240000D01*
D37*
X118480000Y-57730000D02*
X118480000Y-60230000D01*
D39*
X95180000Y-62160000D02*
X95210000Y-62130000D01*
D37*
X100255000Y-55980000D02*
X100230000Y-56005000D01*
D38*
X116780000Y-73030000D02*
X116230000Y-73030000D01*
X109720000Y-73240000D02*
X109080000Y-73880000D01*
D37*
X119230000Y-55740000D02*
X119230000Y-56980000D01*
D38*
X100480000Y-61730000D02*
X100480000Y-62720000D01*
X117050000Y-73300000D02*
X116780000Y-73030000D01*
X106580000Y-73880000D02*
X106480000Y-73980000D01*
D37*
X119730000Y-63020000D02*
X119730000Y-61480000D01*
D39*
X95180000Y-63330000D02*
X95180000Y-62010000D01*
D37*
X102930000Y-55980000D02*
X101480000Y-55980000D01*
D38*
X109080000Y-73880000D02*
X108230000Y-73880000D01*
D37*
X119730000Y-61480000D02*
X119680000Y-61430000D01*
X119230000Y-56980000D02*
X118480000Y-57730000D01*
D39*
X95180000Y-62010000D02*
X95210000Y-61980000D01*
D38*
X114740000Y-70780000D02*
X117280000Y-70780000D01*
D37*
X100230000Y-56005000D02*
X100230000Y-57750000D01*
D39*
X95260000Y-63250000D02*
X95180000Y-63330000D01*
X96250000Y-63250000D02*
X95260000Y-63250000D01*
D38*
X117280000Y-70780000D02*
X117480000Y-70980000D01*
X117480000Y-70980000D02*
X117480000Y-73300000D01*
%TO.N,EN*%
X119180000Y-54280000D02*
X119230000Y-54230000D01*
X124155000Y-72230000D02*
X121270000Y-72230000D01*
X117800000Y-54280000D02*
X119180000Y-54280000D01*
X121230000Y-72270000D02*
X121230000Y-68980000D01*
X116930000Y-54280000D02*
X117800000Y-54280000D01*
X119230000Y-54230000D02*
X119230000Y-53710000D01*
X121270000Y-72230000D02*
X121230000Y-72270000D01*
X119230000Y-53710000D02*
X119230000Y-54720000D01*
X118230000Y-54280000D02*
X118230000Y-55480000D01*
%TO.N,IO0*%
X104380000Y-56830000D02*
X102930000Y-56830000D01*
X106480000Y-54730000D02*
X104380000Y-56830000D01*
X123580000Y-54230000D02*
X121230000Y-54230000D01*
X120730000Y-54230000D02*
X120230000Y-54730000D01*
X121230000Y-54230000D02*
X120730000Y-54230000D01*
%TO.N,Net-(IC3-VDD)*%
X113730000Y-72230000D02*
X112550000Y-72230000D01*
X113730000Y-70790000D02*
X113720000Y-70780000D01*
X113730000Y-72230000D02*
X113730000Y-70790000D01*
X112550000Y-72230000D02*
X112480000Y-72300000D01*
D37*
%TO.N,+5V*%
X120980000Y-59980000D02*
X120980000Y-62480000D01*
X120750000Y-62710000D02*
X120750000Y-63230000D01*
X120750000Y-63230000D02*
X120750000Y-65210000D01*
D38*
X102480000Y-70520000D02*
X102440000Y-70480000D01*
D37*
X122280000Y-61430000D02*
X121030000Y-61430000D01*
X104480000Y-69230000D02*
X104480000Y-70470000D01*
X102480000Y-72580000D02*
X102480000Y-70520000D01*
D38*
X104470000Y-70480000D02*
X104480000Y-70470000D01*
D37*
X121430000Y-59530000D02*
X120980000Y-59980000D01*
X120750000Y-65210000D02*
X119730000Y-66230000D01*
X122280000Y-58855000D02*
X120905000Y-57480000D01*
X122280000Y-59530000D02*
X121430000Y-59530000D01*
X120980000Y-62480000D02*
X120750000Y-62710000D01*
X102440000Y-70480000D02*
X104470000Y-70480000D01*
X121030000Y-61430000D02*
X120980000Y-61480000D01*
X122280000Y-59530000D02*
X122280000Y-58855000D01*
D38*
%TO.N,IO12*%
X103980000Y-67980000D02*
X104480000Y-68480000D01*
X105730000Y-68480000D02*
X108230000Y-70980000D01*
X104480000Y-68480000D02*
X105730000Y-68480000D01*
X109980000Y-72220000D02*
X109470000Y-72220000D01*
X109230000Y-71980000D02*
X108230000Y-71980000D01*
X109470000Y-72220000D02*
X109230000Y-71980000D01*
X108230000Y-70980000D02*
X108230000Y-71980000D01*
X103980000Y-67230000D02*
X103980000Y-67980000D01*
%TO.N,RXD0*%
X115430000Y-58530000D02*
X116930000Y-58530000D01*
X113480000Y-60480000D02*
X115430000Y-58530000D01*
%TO.N,USB_D-*%
X109930000Y-67930000D02*
X109930000Y-67230000D01*
X123730000Y-61980000D02*
X123630000Y-62080000D01*
X123630000Y-62395686D02*
X122880000Y-63145686D01*
X124550000Y-61980000D02*
X123730000Y-61980000D01*
X122880000Y-63145686D02*
X122880000Y-65827486D01*
X119827486Y-68880000D02*
X110880000Y-68880000D01*
X125425000Y-61712410D02*
X125425000Y-61247590D01*
X122880000Y-65827486D02*
X119827486Y-68880000D01*
X124550000Y-61980000D02*
X125157410Y-61980000D01*
X110880000Y-68880000D02*
X109930000Y-67930000D01*
X125157410Y-60980000D02*
X124550000Y-60980000D01*
X125157410Y-61980000D02*
X125425000Y-61712410D01*
X123630000Y-62080000D02*
X123630000Y-62395686D01*
X125425000Y-61247590D02*
X125157410Y-60980000D01*
%TO.N,IO9_SCL0*%
X102930000Y-64480000D02*
X103980000Y-64480000D01*
X104480000Y-64980000D02*
X105130000Y-65630000D01*
D39*
X96480000Y-64230000D02*
X98765499Y-64230000D01*
D38*
X101730000Y-64480000D02*
X100990000Y-65220000D01*
D39*
X95980000Y-64730000D02*
X96480000Y-64230000D01*
D38*
X103980000Y-64480000D02*
X104480000Y-64980000D01*
D39*
X98765499Y-64230000D02*
X99755499Y-65220000D01*
D38*
X102930000Y-64480000D02*
X101730000Y-64480000D01*
D39*
X95180000Y-64730000D02*
X95980000Y-64730000D01*
D38*
X100990000Y-65220000D02*
X100480000Y-65220000D01*
X105130000Y-65630000D02*
X113380000Y-65630000D01*
D39*
X99755499Y-65220000D02*
X100480000Y-65220000D01*
D38*
X113380000Y-65630000D02*
X113480000Y-65730000D01*
X116230000Y-71480000D02*
X116230000Y-72230000D01*
%TO.N,USB_D+*%
X124550000Y-60480000D02*
X123942590Y-60480000D01*
X122480000Y-65661800D02*
X119661800Y-68480000D01*
X124550000Y-61480000D02*
X123730000Y-61480000D01*
X123942590Y-60480000D02*
X123675000Y-60747590D01*
X123230000Y-62230000D02*
X122480000Y-62980000D01*
X123230000Y-61914314D02*
X123230000Y-62230000D01*
X119661800Y-68480000D02*
X111429999Y-68480000D01*
X123675000Y-60747590D02*
X123675000Y-61425000D01*
X123730000Y-61480000D02*
X123664314Y-61480000D01*
X111429999Y-68480000D02*
X110780000Y-67830001D01*
X110780000Y-67830001D02*
X110780000Y-67230000D01*
X122480000Y-62980000D02*
X122480000Y-65661800D01*
X123664314Y-61480000D02*
X123230000Y-61914314D01*
X123675000Y-61425000D02*
X123730000Y-61480000D01*
%TO.N,IO3_S*%
X104380000Y-59380000D02*
X105730000Y-60730000D01*
X102930000Y-59380000D02*
X104380000Y-59380000D01*
%TO.N,I046_S*%
X116580000Y-55130000D02*
X116930000Y-55130000D01*
X112980000Y-58730000D02*
X116580000Y-55130000D01*
%TO.N,IO11*%
X100480000Y-68430000D02*
X100480000Y-70480000D01*
X102730000Y-66180000D02*
X100480000Y-68430000D01*
X102930000Y-66180000D02*
X102730000Y-66180000D01*
%TO.N,IO10*%
X102930000Y-65330000D02*
X102730000Y-65330000D01*
X99880000Y-71380000D02*
X99980000Y-71480000D01*
X102730000Y-65330000D02*
X99880000Y-68180000D01*
X99880000Y-68180000D02*
X99880000Y-71380000D01*
%TO.N,I045_S*%
X115030000Y-57680000D02*
X116930000Y-57680000D01*
X113105000Y-59605000D02*
X115030000Y-57680000D01*
%TO.N,TXD0*%
X116080000Y-59380000D02*
X116930000Y-59380000D01*
X115230000Y-60230000D02*
X116080000Y-59380000D01*
D39*
%TO.N,IO8_SDA0*%
X99080000Y-63880000D02*
X99230000Y-63730000D01*
D38*
X103880000Y-63630000D02*
X102930000Y-63630000D01*
X111730000Y-73980000D02*
X111480000Y-73730000D01*
X102930000Y-63630000D02*
X101500000Y-63630000D01*
X104980000Y-64730000D02*
X103880000Y-63630000D01*
D39*
X94380000Y-64730000D02*
X95230000Y-63880000D01*
D38*
X111480000Y-69830000D02*
X111580000Y-69730000D01*
X111230000Y-64730000D02*
X104980000Y-64730000D01*
D39*
X99230000Y-63730000D02*
X100470000Y-63730000D01*
D38*
X112980000Y-73980000D02*
X111730000Y-73980000D01*
D39*
X95230000Y-63880000D02*
X99080000Y-63880000D01*
D38*
X113130000Y-73830000D02*
X112980000Y-73980000D01*
D39*
X100470000Y-63730000D02*
X100480000Y-63740000D01*
D38*
X111480000Y-73730000D02*
X111480000Y-69830000D01*
X113730000Y-73830000D02*
X113130000Y-73830000D01*
X101390000Y-63740000D02*
X100480000Y-63740000D01*
X101500000Y-63630000D02*
X101390000Y-63740000D01*
D37*
%TO.N,Net-(F1-Pad2)*%
X124550000Y-58830000D02*
X123830000Y-58830000D01*
D38*
X126080000Y-59080000D02*
X125257410Y-59080000D01*
D37*
X123830000Y-58830000D02*
X122480000Y-57480000D01*
D38*
X126230000Y-59230000D02*
X126080000Y-59080000D01*
X124550000Y-63630000D02*
X125075000Y-63630000D01*
X125007410Y-58830000D02*
X124550000Y-58830000D01*
X125075000Y-63630000D02*
X125625000Y-63080000D01*
X125257410Y-59080000D02*
X125007410Y-58830000D01*
%TO.N,Net-(J1-CC1)*%
X124550000Y-62480000D02*
X125980000Y-62480000D01*
X125980000Y-62480000D02*
X126475000Y-62975000D01*
X126475000Y-66965000D02*
X126230000Y-67210000D01*
X126475000Y-62975000D02*
X126475000Y-66965000D01*
%TO.N,Net-(J1-CC2)*%
X127230000Y-61230000D02*
X127230000Y-67210000D01*
X124550000Y-59480000D02*
X125480000Y-59480000D01*
X125480000Y-59480000D02*
X127230000Y-61230000D01*
%TO.N,Net-(LED1-DIN)*%
X104480000Y-73740000D02*
X103490000Y-73740000D01*
X103490000Y-73740000D02*
X103230000Y-73480000D01*
X103230000Y-73480000D02*
X102480000Y-73480000D01*
%TO.N,LED_SIG*%
X104480000Y-72720000D02*
X104480000Y-71490000D01*
X106355000Y-72930000D02*
X105430000Y-72930000D01*
X105220000Y-72720000D02*
X104480000Y-72720000D01*
X105430000Y-72930000D02*
X105220000Y-72720000D01*
%TD*%
%TA.AperFunction,Conductor*%
%TO.N,GND*%
G36*
X99249212Y-68522877D02*
G01*
X99278238Y-68586433D01*
X99279500Y-68604081D01*
X99279500Y-71054507D01*
X99260494Y-71120478D01*
X99254209Y-71130479D01*
X99194633Y-71300737D01*
X99194630Y-71300750D01*
X99174435Y-71479996D01*
X99174435Y-71480003D01*
X99194630Y-71659249D01*
X99194631Y-71659254D01*
X99254211Y-71829523D01*
X99338000Y-71962872D01*
X99350184Y-71982262D01*
X99477738Y-72109816D01*
X99562042Y-72162788D01*
X99609172Y-72192402D01*
X99630478Y-72205789D01*
X99708334Y-72233032D01*
X99800745Y-72265368D01*
X99800750Y-72265369D01*
X99979996Y-72285565D01*
X99980000Y-72285565D01*
X99980001Y-72285565D01*
X99988324Y-72284627D01*
X100041617Y-72278622D01*
X100110437Y-72290676D01*
X100161817Y-72338024D01*
X100179500Y-72401842D01*
X100179500Y-72977869D01*
X100179501Y-72977880D01*
X100183931Y-73019093D01*
X100183931Y-73045596D01*
X100180000Y-73082165D01*
X100180000Y-73230000D01*
X100217306Y-73230000D01*
X100284345Y-73249685D01*
X100316570Y-73279686D01*
X100322454Y-73287546D01*
X100322455Y-73287546D01*
X100322456Y-73287548D01*
X100437664Y-73373793D01*
X100437671Y-73373797D01*
X100437674Y-73373798D01*
X100572517Y-73424091D01*
X100632127Y-73430500D01*
X100879139Y-73430499D01*
X100946176Y-73450183D01*
X100966818Y-73466818D01*
X100980000Y-73480000D01*
X101106000Y-73480000D01*
X101173039Y-73499685D01*
X101218794Y-73552489D01*
X101230000Y-73604000D01*
X101230000Y-74330000D01*
X101327828Y-74330000D01*
X101327844Y-74329999D01*
X101387372Y-74323598D01*
X101387379Y-74323596D01*
X101522086Y-74273354D01*
X101522093Y-74273350D01*
X101637187Y-74187190D01*
X101641962Y-74182416D01*
X101703285Y-74148931D01*
X101772977Y-74153915D01*
X101817324Y-74182416D01*
X101822455Y-74187547D01*
X101937664Y-74273793D01*
X101937671Y-74273797D01*
X101982618Y-74290561D01*
X102072517Y-74324091D01*
X102132127Y-74330500D01*
X102827872Y-74330499D01*
X102887483Y-74324091D01*
X103022331Y-74273796D01*
X103040119Y-74260479D01*
X103105578Y-74236061D01*
X103173852Y-74250910D01*
X103176413Y-74252348D01*
X103258216Y-74299577D01*
X103410943Y-74340501D01*
X103410945Y-74340501D01*
X103576654Y-74340501D01*
X103576670Y-74340500D01*
X103810404Y-74340500D01*
X103877443Y-74360185D01*
X103898085Y-74376819D01*
X103902396Y-74381130D01*
X103902400Y-74381133D01*
X103902402Y-74381135D01*
X104040607Y-74462869D01*
X104081268Y-74474682D01*
X104194791Y-74507664D01*
X104194794Y-74507664D01*
X104194796Y-74507665D01*
X104230819Y-74510500D01*
X104729180Y-74510499D01*
X104765204Y-74507665D01*
X104919393Y-74462869D01*
X105057598Y-74381135D01*
X105171135Y-74267598D01*
X105252869Y-74129393D01*
X105288385Y-74007145D01*
X105297664Y-73975208D01*
X105297665Y-73975202D01*
X105298635Y-73962879D01*
X105300500Y-73939181D01*
X105300499Y-73776952D01*
X105320183Y-73709915D01*
X105372987Y-73664160D01*
X105442145Y-73654216D01*
X105487616Y-73670220D01*
X105507102Y-73681744D01*
X105601349Y-73709125D01*
X105660233Y-73746730D01*
X105689440Y-73810203D01*
X105689973Y-73842084D01*
X105674435Y-73979995D01*
X105674435Y-73980003D01*
X105694630Y-74159249D01*
X105694631Y-74159254D01*
X105754211Y-74329523D01*
X105837999Y-74462870D01*
X105850184Y-74482262D01*
X105977738Y-74609816D01*
X106130478Y-74705789D01*
X106300745Y-74765368D01*
X106300750Y-74765369D01*
X106479996Y-74785565D01*
X106480000Y-74785565D01*
X106480004Y-74785565D01*
X106659249Y-74765369D01*
X106659252Y-74765368D01*
X106659255Y-74765368D01*
X106829522Y-74705789D01*
X106982262Y-74609816D01*
X107054637Y-74537440D01*
X107115956Y-74503958D01*
X107185648Y-74508942D01*
X107229996Y-74537443D01*
X107240629Y-74548076D01*
X107240633Y-74548079D01*
X107240635Y-74548081D01*
X107382102Y-74631744D01*
X107423724Y-74643836D01*
X107539926Y-74677597D01*
X107539929Y-74677597D01*
X107539931Y-74677598D01*
X107576806Y-74680500D01*
X107576814Y-74680500D01*
X108883186Y-74680500D01*
X108883194Y-74680500D01*
X108920069Y-74677598D01*
X108920071Y-74677597D01*
X108920073Y-74677597D01*
X108961691Y-74665505D01*
X109077898Y-74631744D01*
X109219365Y-74548081D01*
X109335581Y-74431865D01*
X109335582Y-74431862D01*
X109338297Y-74429148D01*
X109363981Y-74409441D01*
X109398388Y-74389577D01*
X109448709Y-74360524D01*
X109448708Y-74360524D01*
X109448716Y-74360520D01*
X109560520Y-74248716D01*
X109560520Y-74248714D01*
X109570724Y-74238511D01*
X109570728Y-74238506D01*
X109762416Y-74046818D01*
X109823739Y-74013333D01*
X109850097Y-74010499D01*
X110229168Y-74010499D01*
X110229180Y-74010499D01*
X110265204Y-74007665D01*
X110419393Y-73962869D01*
X110557598Y-73881135D01*
X110671135Y-73767598D01*
X110671136Y-73767595D01*
X110674836Y-73763896D01*
X110736159Y-73730411D01*
X110805851Y-73735395D01*
X110861785Y-73777266D01*
X110882292Y-73819481D01*
X110920423Y-73961785D01*
X110920424Y-73961788D01*
X110921049Y-73962870D01*
X110921053Y-73962876D01*
X110963387Y-74036201D01*
X110980000Y-74098200D01*
X110980000Y-75605500D01*
X110960315Y-75672539D01*
X110907511Y-75718294D01*
X110856000Y-75729500D01*
X95233051Y-75729500D01*
X95226968Y-75729351D01*
X95206900Y-75728365D01*
X94893071Y-75712947D01*
X94880962Y-75711754D01*
X94553305Y-75663151D01*
X94541369Y-75660777D01*
X94220055Y-75580292D01*
X94208411Y-75576759D01*
X93896540Y-75465170D01*
X93885301Y-75460515D01*
X93585844Y-75318883D01*
X93575121Y-75313150D01*
X93291011Y-75142862D01*
X93280893Y-75136102D01*
X93014829Y-74938775D01*
X93005423Y-74931055D01*
X92844899Y-74785565D01*
X92759986Y-74708604D01*
X92751395Y-74700013D01*
X92528944Y-74454576D01*
X92521224Y-74445170D01*
X92435454Y-74329523D01*
X92323895Y-74179103D01*
X92317137Y-74168988D01*
X92146844Y-73884871D01*
X92141120Y-73874163D01*
X91999479Y-73574688D01*
X91994829Y-73563459D01*
X91984379Y-73534254D01*
X91912067Y-73332155D01*
X91883240Y-73251588D01*
X91879707Y-73239944D01*
X91799219Y-72918617D01*
X91796848Y-72906694D01*
X91796298Y-72902989D01*
X91761203Y-72666395D01*
X91748245Y-72579037D01*
X91747052Y-72566927D01*
X91744786Y-72520811D01*
X91730649Y-72233032D01*
X91730500Y-72226948D01*
X91730500Y-72108711D01*
X93379500Y-72108711D01*
X93379500Y-72351288D01*
X93411161Y-72591785D01*
X93473947Y-72826104D01*
X93566773Y-73050205D01*
X93566777Y-73050214D01*
X93572320Y-73059815D01*
X93688064Y-73260289D01*
X93688066Y-73260292D01*
X93688067Y-73260293D01*
X93835733Y-73452736D01*
X93835739Y-73452743D01*
X94007256Y-73624260D01*
X94007263Y-73624266D01*
X94046295Y-73654216D01*
X94199711Y-73771936D01*
X94409788Y-73893224D01*
X94605269Y-73974195D01*
X94619291Y-73980003D01*
X94633900Y-73986054D01*
X94868211Y-74048838D01*
X95044800Y-74072086D01*
X95108711Y-74080500D01*
X95108712Y-74080500D01*
X95351289Y-74080500D01*
X95413339Y-74072331D01*
X95591789Y-74048838D01*
X95826100Y-73986054D01*
X96050212Y-73893224D01*
X96076851Y-73877844D01*
X100180000Y-73877844D01*
X100186401Y-73937372D01*
X100186403Y-73937379D01*
X100236645Y-74072086D01*
X100236649Y-74072093D01*
X100322809Y-74187187D01*
X100322812Y-74187190D01*
X100437906Y-74273350D01*
X100437913Y-74273354D01*
X100572620Y-74323596D01*
X100572627Y-74323598D01*
X100632155Y-74329999D01*
X100632172Y-74330000D01*
X100730000Y-74330000D01*
X100730000Y-73730000D01*
X100180000Y-73730000D01*
X100180000Y-73877844D01*
X96076851Y-73877844D01*
X96260289Y-73771936D01*
X96452738Y-73624265D01*
X96624265Y-73452738D01*
X96771936Y-73260289D01*
X96893224Y-73050212D01*
X96986054Y-72826100D01*
X97048838Y-72591789D01*
X97080500Y-72351288D01*
X97080500Y-72108712D01*
X97048838Y-71868211D01*
X96986054Y-71633900D01*
X96984231Y-71629500D01*
X96963728Y-71580000D01*
X96893224Y-71409788D01*
X96771936Y-71199711D01*
X96695891Y-71100607D01*
X96624266Y-71007263D01*
X96624260Y-71007256D01*
X96452743Y-70835739D01*
X96452736Y-70835733D01*
X96260293Y-70688067D01*
X96260292Y-70688066D01*
X96260289Y-70688064D01*
X96050212Y-70566776D01*
X96050205Y-70566773D01*
X95826104Y-70473947D01*
X95591785Y-70411161D01*
X95351289Y-70379500D01*
X95351288Y-70379500D01*
X95108712Y-70379500D01*
X95108711Y-70379500D01*
X94868214Y-70411161D01*
X94633895Y-70473947D01*
X94409794Y-70566773D01*
X94409785Y-70566777D01*
X94199706Y-70688067D01*
X94007263Y-70835733D01*
X94007256Y-70835739D01*
X93835739Y-71007256D01*
X93835733Y-71007263D01*
X93688067Y-71199706D01*
X93566777Y-71409785D01*
X93566773Y-71409794D01*
X93473947Y-71633895D01*
X93411161Y-71868214D01*
X93379500Y-72108711D01*
X91730500Y-72108711D01*
X91730500Y-69104000D01*
X91750185Y-69036961D01*
X91802989Y-68991206D01*
X91854500Y-68980000D01*
X94126163Y-68980000D01*
X94136979Y-68980500D01*
X94137290Y-68980500D01*
X98087315Y-68980500D01*
X98087318Y-68980500D01*
X98087320Y-68980499D01*
X98089887Y-68980316D01*
X98098735Y-68980000D01*
X98234827Y-68980000D01*
X98285512Y-68952323D01*
X98294228Y-68950751D01*
X98298140Y-68950188D01*
X98299769Y-68949954D01*
X98505710Y-68889484D01*
X98505713Y-68889482D01*
X98505715Y-68889482D01*
X98700938Y-68800327D01*
X98700944Y-68800323D01*
X98700950Y-68800321D01*
X98881513Y-68684281D01*
X99043724Y-68543724D01*
X99061786Y-68522878D01*
X99120564Y-68485104D01*
X99190434Y-68485104D01*
X99249212Y-68522877D01*
G37*
%TD.AperFunction*%
%TA.AperFunction,Conductor*%
G36*
X125375000Y-66550000D02*
G01*
X125399772Y-66550000D01*
X125466811Y-66569685D01*
X125512566Y-66622489D01*
X125522510Y-66691647D01*
X125506504Y-66737121D01*
X125457131Y-66820605D01*
X125457129Y-66820611D01*
X125412335Y-66974791D01*
X125412334Y-66974797D01*
X125409500Y-67010811D01*
X125409500Y-67409169D01*
X125409501Y-67409191D01*
X125412335Y-67445205D01*
X125457129Y-67599388D01*
X125457130Y-67599391D01*
X125491419Y-67657371D01*
X125508601Y-67725095D01*
X125491419Y-67783611D01*
X125457594Y-67840806D01*
X125417156Y-67980000D01*
X125969591Y-67980000D01*
X125979318Y-67980382D01*
X125979516Y-67980397D01*
X125980819Y-67980500D01*
X126479180Y-67980499D01*
X126479193Y-67980498D01*
X126480668Y-67980382D01*
X126490393Y-67980000D01*
X126969591Y-67980000D01*
X126979318Y-67980382D01*
X126979516Y-67980397D01*
X126980819Y-67980500D01*
X127479180Y-67980499D01*
X127479193Y-67980498D01*
X127480668Y-67980382D01*
X127490393Y-67980000D01*
X128042844Y-67980000D01*
X128002404Y-67840805D01*
X127968581Y-67783612D01*
X127951398Y-67715888D01*
X127968582Y-67657369D01*
X128002869Y-67599393D01*
X128047665Y-67445204D01*
X128050500Y-67409181D01*
X128050499Y-67010820D01*
X128047665Y-66974796D01*
X128002869Y-66820607D01*
X127921135Y-66682402D01*
X127921133Y-66682400D01*
X127921130Y-66682396D01*
X127866819Y-66628085D01*
X127833334Y-66566762D01*
X127830500Y-66540404D01*
X127830500Y-66150624D01*
X127850185Y-66083585D01*
X127902989Y-66037830D01*
X127972147Y-66027886D01*
X128035703Y-66056911D01*
X128057602Y-66081733D01*
X128128248Y-66187462D01*
X128128251Y-66187466D01*
X128267533Y-66326748D01*
X128267537Y-66326751D01*
X128431315Y-66436185D01*
X128431328Y-66436192D01*
X128613306Y-66511569D01*
X128613318Y-66511572D01*
X128806504Y-66549999D01*
X128806508Y-66550000D01*
X129055000Y-66550000D01*
X129055000Y-65850000D01*
X129555000Y-65850000D01*
X129555000Y-66550000D01*
X129803492Y-66550000D01*
X129803495Y-66549999D01*
X129996681Y-66511572D01*
X129996693Y-66511569D01*
X130178671Y-66436192D01*
X130178684Y-66436185D01*
X130342462Y-66326751D01*
X130342466Y-66326748D01*
X130481751Y-66187463D01*
X130502398Y-66156563D01*
X130556010Y-66111758D01*
X130625335Y-66103051D01*
X130688362Y-66133205D01*
X130725082Y-66192648D01*
X130729500Y-66225454D01*
X130729500Y-72226948D01*
X130729351Y-72233033D01*
X130712947Y-72566928D01*
X130711754Y-72579037D01*
X130663151Y-72906694D01*
X130660777Y-72918630D01*
X130580292Y-73239944D01*
X130576759Y-73251588D01*
X130465170Y-73563459D01*
X130460514Y-73574702D01*
X130318885Y-73874151D01*
X130313148Y-73884883D01*
X130142862Y-74168988D01*
X130136102Y-74179106D01*
X129938775Y-74445170D01*
X129931055Y-74454576D01*
X129708611Y-74700006D01*
X129700006Y-74708611D01*
X129454576Y-74931055D01*
X129445170Y-74938775D01*
X129179106Y-75136102D01*
X129168988Y-75142862D01*
X128884883Y-75313148D01*
X128874151Y-75318885D01*
X128574702Y-75460514D01*
X128563459Y-75465170D01*
X128251588Y-75576759D01*
X128239944Y-75580292D01*
X127918630Y-75660777D01*
X127906694Y-75663151D01*
X127579037Y-75711754D01*
X127566928Y-75712947D01*
X127251989Y-75728419D01*
X127233031Y-75729351D01*
X127226949Y-75729500D01*
X119104000Y-75729500D01*
X119036961Y-75709815D01*
X118991206Y-75657011D01*
X118980000Y-75605500D01*
X118980000Y-74247335D01*
X118999685Y-74180296D01*
X119002515Y-74177844D01*
X123580000Y-74177844D01*
X123586401Y-74237372D01*
X123586403Y-74237379D01*
X123636645Y-74372086D01*
X123636649Y-74372093D01*
X123722809Y-74487187D01*
X123722812Y-74487190D01*
X123837906Y-74573350D01*
X123837913Y-74573354D01*
X123972620Y-74623596D01*
X123972627Y-74623598D01*
X124032155Y-74629999D01*
X124032172Y-74630000D01*
X124405000Y-74630000D01*
X124905000Y-74630000D01*
X125277828Y-74630000D01*
X125277844Y-74629999D01*
X125337372Y-74623598D01*
X125337379Y-74623596D01*
X125472086Y-74573354D01*
X125472093Y-74573350D01*
X125587187Y-74487190D01*
X125587190Y-74487187D01*
X125673350Y-74372093D01*
X125673354Y-74372086D01*
X125723596Y-74237379D01*
X125723598Y-74237372D01*
X125729999Y-74177844D01*
X126730000Y-74177844D01*
X126736401Y-74237372D01*
X126736403Y-74237379D01*
X126786645Y-74372086D01*
X126786649Y-74372093D01*
X126872809Y-74487187D01*
X126872812Y-74487190D01*
X126987906Y-74573350D01*
X126987913Y-74573354D01*
X127122620Y-74623596D01*
X127122627Y-74623598D01*
X127182155Y-74629999D01*
X127182172Y-74630000D01*
X127555000Y-74630000D01*
X128055000Y-74630000D01*
X128427828Y-74630000D01*
X128427844Y-74629999D01*
X128487372Y-74623598D01*
X128487379Y-74623596D01*
X128622086Y-74573354D01*
X128622093Y-74573350D01*
X128737187Y-74487190D01*
X128737190Y-74487187D01*
X128823350Y-74372093D01*
X128823354Y-74372086D01*
X128873596Y-74237379D01*
X128873598Y-74237372D01*
X128879999Y-74177844D01*
X128880000Y-74177827D01*
X128880000Y-74005000D01*
X128055000Y-74005000D01*
X128055000Y-74630000D01*
X127555000Y-74630000D01*
X127555000Y-74005000D01*
X126730000Y-74005000D01*
X126730000Y-74177844D01*
X125729999Y-74177844D01*
X125730000Y-74177827D01*
X125730000Y-74005000D01*
X124905000Y-74005000D01*
X124905000Y-74630000D01*
X124405000Y-74630000D01*
X124405000Y-74005000D01*
X123580000Y-74005000D01*
X123580000Y-74177844D01*
X119002515Y-74177844D01*
X119052489Y-74134541D01*
X119063034Y-74130297D01*
X119204522Y-74080789D01*
X119357262Y-73984816D01*
X119484816Y-73857262D01*
X119580789Y-73704522D01*
X119640368Y-73534255D01*
X119640369Y-73534249D01*
X119646481Y-73480000D01*
X120425496Y-73480000D01*
X120467968Y-73626195D01*
X120550278Y-73765374D01*
X120550285Y-73765383D01*
X120664616Y-73879714D01*
X120664625Y-73879721D01*
X120803804Y-73962031D01*
X120959089Y-74007145D01*
X120980000Y-74008789D01*
X121480000Y-74008789D01*
X121500910Y-74007145D01*
X121656195Y-73962031D01*
X121795374Y-73879721D01*
X121795383Y-73879714D01*
X121909714Y-73765383D01*
X121909721Y-73765374D01*
X121992031Y-73626195D01*
X122034504Y-73480000D01*
X121480000Y-73480000D01*
X121480000Y-74008789D01*
X120980000Y-74008789D01*
X120980000Y-73480000D01*
X120425496Y-73480000D01*
X119646481Y-73480000D01*
X119660565Y-73355003D01*
X119660565Y-73354996D01*
X119640369Y-73175750D01*
X119640368Y-73175745D01*
X119627130Y-73137913D01*
X119580789Y-73005478D01*
X119580360Y-73004796D01*
X119527153Y-72920117D01*
X119484816Y-72852738D01*
X119357262Y-72725184D01*
X119204522Y-72629211D01*
X119063045Y-72579706D01*
X119006269Y-72538984D01*
X118980522Y-72474031D01*
X118980000Y-72462664D01*
X118980000Y-69604500D01*
X118999685Y-69537461D01*
X119052489Y-69491706D01*
X119104000Y-69480500D01*
X119740817Y-69480500D01*
X119740833Y-69480501D01*
X119748429Y-69480501D01*
X119906540Y-69480501D01*
X119906543Y-69480501D01*
X120059271Y-69439577D01*
X120111790Y-69409255D01*
X120111791Y-69409255D01*
X120196195Y-69360524D01*
X120196194Y-69360524D01*
X120196202Y-69360520D01*
X120292865Y-69263856D01*
X120354184Y-69230374D01*
X120423876Y-69235358D01*
X120479810Y-69277229D01*
X120497585Y-69310587D01*
X120504209Y-69329520D01*
X120568193Y-69431348D01*
X120599077Y-69480501D01*
X120600185Y-69482263D01*
X120602445Y-69485097D01*
X120603334Y-69487275D01*
X120603889Y-69488158D01*
X120603734Y-69488255D01*
X120628855Y-69549783D01*
X120629500Y-69562412D01*
X120629500Y-71603333D01*
X120609815Y-71670372D01*
X120593181Y-71691014D01*
X120549887Y-71734307D01*
X120549881Y-71734315D01*
X120467505Y-71873606D01*
X120467504Y-71873609D01*
X120422357Y-72029002D01*
X120422356Y-72029008D01*
X120419500Y-72065302D01*
X120419500Y-72474697D01*
X120422356Y-72510991D01*
X120422357Y-72510997D01*
X120467504Y-72666390D01*
X120467507Y-72666397D01*
X120479910Y-72687370D01*
X120497093Y-72755094D01*
X120479912Y-72813608D01*
X120467968Y-72833804D01*
X120425496Y-72980000D01*
X120731648Y-72980000D01*
X120794766Y-72997267D01*
X120803605Y-73002494D01*
X120803608Y-73002494D01*
X120803610Y-73002496D01*
X120959002Y-73047642D01*
X120959005Y-73047642D01*
X120959007Y-73047643D01*
X120995310Y-73050500D01*
X120995318Y-73050500D01*
X121464682Y-73050500D01*
X121464690Y-73050500D01*
X121500993Y-73047643D01*
X121500995Y-73047642D01*
X121500997Y-73047642D01*
X121656389Y-73002496D01*
X121656389Y-73002495D01*
X121656395Y-73002494D01*
X121665233Y-72997267D01*
X121728352Y-72980000D01*
X122034505Y-72980000D01*
X122037183Y-72976433D01*
X122037346Y-72919225D01*
X122075288Y-72860556D01*
X122138927Y-72831712D01*
X122156223Y-72830500D01*
X123055501Y-72830500D01*
X123122540Y-72850185D01*
X123168295Y-72902989D01*
X123179501Y-72954500D01*
X123179501Y-72977876D01*
X123185908Y-73037483D01*
X123236202Y-73172328D01*
X123236206Y-73172335D01*
X123322452Y-73287544D01*
X123322455Y-73287547D01*
X123437664Y-73373793D01*
X123437673Y-73373798D01*
X123499332Y-73396795D01*
X123555266Y-73438665D01*
X123579684Y-73504129D01*
X123579704Y-73504704D01*
X123580000Y-73505000D01*
X125730000Y-73505000D01*
X125730000Y-73332172D01*
X125729999Y-73332155D01*
X126730000Y-73332155D01*
X126730000Y-73505000D01*
X128880000Y-73505000D01*
X128883094Y-73501905D01*
X128899685Y-73445405D01*
X128952489Y-73399650D01*
X128960667Y-73396262D01*
X129022086Y-73373354D01*
X129022093Y-73373350D01*
X129137187Y-73287190D01*
X129137190Y-73287187D01*
X129223350Y-73172093D01*
X129223354Y-73172086D01*
X129273596Y-73037379D01*
X129273598Y-73037372D01*
X129279999Y-72977844D01*
X129280000Y-72977827D01*
X129280000Y-72480000D01*
X127330000Y-72480000D01*
X127330000Y-72756000D01*
X127310315Y-72823039D01*
X127257511Y-72868794D01*
X127206000Y-72880000D01*
X127182155Y-72880000D01*
X127122627Y-72886401D01*
X127122620Y-72886403D01*
X126987913Y-72936645D01*
X126987906Y-72936649D01*
X126872812Y-73022809D01*
X126872809Y-73022812D01*
X126786649Y-73137906D01*
X126786645Y-73137913D01*
X126736403Y-73272620D01*
X126736401Y-73272627D01*
X126730000Y-73332155D01*
X125729999Y-73332155D01*
X125723598Y-73272627D01*
X125723596Y-73272620D01*
X125673354Y-73137913D01*
X125673350Y-73137906D01*
X125587190Y-73022812D01*
X125587187Y-73022809D01*
X125472093Y-72936649D01*
X125472086Y-72936645D01*
X125337379Y-72886403D01*
X125337372Y-72886401D01*
X125277844Y-72880000D01*
X125254500Y-72880000D01*
X125187461Y-72860315D01*
X125141706Y-72807511D01*
X125130500Y-72756000D01*
X125130499Y-71704000D01*
X125150183Y-71636961D01*
X125202987Y-71591206D01*
X125254499Y-71580000D01*
X125277828Y-71580000D01*
X125277844Y-71579999D01*
X125337372Y-71573598D01*
X125337379Y-71573596D01*
X125472086Y-71523354D01*
X125472093Y-71523350D01*
X125587187Y-71437190D01*
X125587190Y-71437187D01*
X125673350Y-71322093D01*
X125673354Y-71322086D01*
X125723596Y-71187379D01*
X125723598Y-71187372D01*
X125729999Y-71127844D01*
X126730000Y-71127844D01*
X126736401Y-71187372D01*
X126736403Y-71187379D01*
X126786645Y-71322086D01*
X126786649Y-71322093D01*
X126872809Y-71437187D01*
X126872812Y-71437190D01*
X126987906Y-71523350D01*
X126987913Y-71523354D01*
X127122620Y-71573596D01*
X127122627Y-71573598D01*
X127182155Y-71579999D01*
X127182172Y-71580000D01*
X127206000Y-71580000D01*
X127273039Y-71599685D01*
X127318794Y-71652489D01*
X127330000Y-71704000D01*
X127330000Y-71980000D01*
X129280000Y-71980000D01*
X129280000Y-71482172D01*
X129279999Y-71482155D01*
X129273598Y-71422627D01*
X129273596Y-71422620D01*
X129223354Y-71287913D01*
X129223350Y-71287906D01*
X129137190Y-71172812D01*
X129137187Y-71172809D01*
X129022093Y-71086649D01*
X129022087Y-71086646D01*
X128960666Y-71063737D01*
X128904733Y-71021865D01*
X128880316Y-70956401D01*
X128880275Y-70955275D01*
X128880000Y-70955000D01*
X126730000Y-70955000D01*
X126730000Y-71127844D01*
X125729999Y-71127844D01*
X125730000Y-71127827D01*
X125730000Y-70955000D01*
X123580000Y-70955000D01*
X123576683Y-70958316D01*
X123560315Y-71014061D01*
X123507511Y-71059816D01*
X123499334Y-71063204D01*
X123437669Y-71086203D01*
X123437664Y-71086206D01*
X123322455Y-71172452D01*
X123322452Y-71172455D01*
X123236206Y-71287664D01*
X123236202Y-71287671D01*
X123185908Y-71422517D01*
X123179501Y-71482116D01*
X123179500Y-71482135D01*
X123179500Y-71505500D01*
X123159815Y-71572539D01*
X123107011Y-71618294D01*
X123055500Y-71629500D01*
X121954500Y-71629500D01*
X121887461Y-71609815D01*
X121841706Y-71557011D01*
X121830500Y-71505500D01*
X121830500Y-70282155D01*
X123580000Y-70282155D01*
X123580000Y-70455000D01*
X124405000Y-70455000D01*
X124905000Y-70455000D01*
X125730000Y-70455000D01*
X125730000Y-70282172D01*
X125729999Y-70282155D01*
X126730000Y-70282155D01*
X126730000Y-70455000D01*
X127555000Y-70455000D01*
X128055000Y-70455000D01*
X128880000Y-70455000D01*
X128880000Y-70282172D01*
X128879999Y-70282155D01*
X128873598Y-70222627D01*
X128873596Y-70222620D01*
X128823354Y-70087913D01*
X128823350Y-70087906D01*
X128737190Y-69972812D01*
X128737187Y-69972809D01*
X128622093Y-69886649D01*
X128622086Y-69886645D01*
X128487379Y-69836403D01*
X128487372Y-69836401D01*
X128427844Y-69830000D01*
X128055000Y-69830000D01*
X128055000Y-70455000D01*
X127555000Y-70455000D01*
X127555000Y-69830000D01*
X127182155Y-69830000D01*
X127122627Y-69836401D01*
X127122620Y-69836403D01*
X126987913Y-69886645D01*
X126987906Y-69886649D01*
X126872812Y-69972809D01*
X126872809Y-69972812D01*
X126786649Y-70087906D01*
X126786645Y-70087913D01*
X126736403Y-70222620D01*
X126736401Y-70222627D01*
X126730000Y-70282155D01*
X125729999Y-70282155D01*
X125723598Y-70222627D01*
X125723596Y-70222620D01*
X125673354Y-70087913D01*
X125673350Y-70087906D01*
X125587190Y-69972812D01*
X125587187Y-69972809D01*
X125472093Y-69886649D01*
X125472086Y-69886645D01*
X125337379Y-69836403D01*
X125337372Y-69836401D01*
X125277844Y-69830000D01*
X124905000Y-69830000D01*
X124905000Y-70455000D01*
X124405000Y-70455000D01*
X124405000Y-69830000D01*
X124032155Y-69830000D01*
X123972627Y-69836401D01*
X123972620Y-69836403D01*
X123837913Y-69886645D01*
X123837906Y-69886649D01*
X123722812Y-69972809D01*
X123722809Y-69972812D01*
X123636649Y-70087906D01*
X123636645Y-70087913D01*
X123586403Y-70222620D01*
X123586401Y-70222627D01*
X123580000Y-70282155D01*
X121830500Y-70282155D01*
X121830500Y-69562412D01*
X121850185Y-69495373D01*
X121857555Y-69485097D01*
X121859810Y-69482267D01*
X121859816Y-69482262D01*
X121955789Y-69329522D01*
X122015368Y-69159255D01*
X122020150Y-69116819D01*
X122035565Y-68980000D01*
X122035565Y-68979996D01*
X122015369Y-68800750D01*
X122015368Y-68800745D01*
X121955788Y-68630476D01*
X121861237Y-68480000D01*
X125417156Y-68480000D01*
X125457595Y-68619194D01*
X125539261Y-68757285D01*
X125539268Y-68757294D01*
X125652705Y-68870731D01*
X125652714Y-68870738D01*
X125790808Y-68952406D01*
X125790811Y-68952407D01*
X125944871Y-68997166D01*
X125944877Y-68997167D01*
X125980000Y-68999931D01*
X125980000Y-68999930D01*
X126480000Y-68999930D01*
X126515122Y-68997167D01*
X126515128Y-68997166D01*
X126669189Y-68952407D01*
X126676352Y-68949308D01*
X126677157Y-68951169D01*
X126734585Y-68936591D01*
X126782999Y-68950806D01*
X126783648Y-68949308D01*
X126790810Y-68952407D01*
X126944871Y-68997166D01*
X126944877Y-68997167D01*
X126980000Y-68999931D01*
X126980000Y-68999930D01*
X127480000Y-68999930D01*
X127515122Y-68997167D01*
X127515128Y-68997166D01*
X127669188Y-68952407D01*
X127669191Y-68952406D01*
X127807285Y-68870738D01*
X127807294Y-68870731D01*
X127920731Y-68757294D01*
X127920738Y-68757285D01*
X128002404Y-68619194D01*
X128042844Y-68480000D01*
X127480000Y-68480000D01*
X127480000Y-68999930D01*
X126980000Y-68999930D01*
X126980000Y-68480000D01*
X126480000Y-68480000D01*
X126480000Y-68999930D01*
X125980000Y-68999930D01*
X125980000Y-68480000D01*
X125417156Y-68480000D01*
X121861237Y-68480000D01*
X121859815Y-68477737D01*
X121732262Y-68350184D01*
X121579520Y-68254209D01*
X121560583Y-68247583D01*
X121503808Y-68206861D01*
X121478061Y-68141908D01*
X121491518Y-68073346D01*
X121513854Y-68042865D01*
X123360520Y-66196202D01*
X123439577Y-66059270D01*
X123448721Y-66025143D01*
X123485084Y-65965485D01*
X123547931Y-65934955D01*
X123617307Y-65943249D01*
X123671185Y-65987734D01*
X123683056Y-66009785D01*
X123688809Y-66023674D01*
X123688814Y-66023684D01*
X123798248Y-66187462D01*
X123798251Y-66187466D01*
X123937533Y-66326748D01*
X123937537Y-66326751D01*
X124101315Y-66436185D01*
X124101328Y-66436192D01*
X124283306Y-66511569D01*
X124283318Y-66511572D01*
X124476504Y-66549999D01*
X124476508Y-66550000D01*
X124875000Y-66550000D01*
X124875000Y-65850000D01*
X125375000Y-65850000D01*
X125375000Y-66550000D01*
G37*
%TD.AperFunction*%
%TA.AperFunction,Conductor*%
G36*
X105496942Y-69100185D02*
G01*
X105517584Y-69116819D01*
X107425423Y-71024658D01*
X107458908Y-71085981D01*
X107453924Y-71155673D01*
X107412052Y-71211606D01*
X107386998Y-71226136D01*
X107382108Y-71228252D01*
X107240637Y-71311917D01*
X107240629Y-71311923D01*
X107124423Y-71428129D01*
X107124417Y-71428137D01*
X107040755Y-71569603D01*
X107040754Y-71569606D01*
X106994902Y-71727426D01*
X106994901Y-71727432D01*
X106992000Y-71764298D01*
X106992000Y-72005500D01*
X106972315Y-72072539D01*
X106919511Y-72118294D01*
X106868000Y-72129500D01*
X105701798Y-72129500D01*
X105664932Y-72132401D01*
X105664926Y-72132402D01*
X105541640Y-72168221D01*
X105471771Y-72168022D01*
X105459596Y-72162788D01*
X105459289Y-72163532D01*
X105451787Y-72160424D01*
X105451785Y-72160423D01*
X105299057Y-72119499D01*
X105299055Y-72119499D01*
X105294409Y-72118254D01*
X105234749Y-72081889D01*
X105204220Y-72019042D01*
X105212515Y-71949666D01*
X105219771Y-71935358D01*
X105252869Y-71879393D01*
X105297018Y-71727431D01*
X105297664Y-71725208D01*
X105297664Y-71725206D01*
X105297665Y-71725204D01*
X105300500Y-71689181D01*
X105300499Y-71290820D01*
X105297665Y-71254796D01*
X105252869Y-71100607D01*
X105218869Y-71043117D01*
X105201688Y-70975398D01*
X105218869Y-70916882D01*
X105252869Y-70859393D01*
X105259743Y-70835735D01*
X105297664Y-70705208D01*
X105297665Y-70705202D01*
X105298497Y-70694632D01*
X105300500Y-70669181D01*
X105300499Y-70270820D01*
X105297665Y-70234796D01*
X105252869Y-70080607D01*
X105231671Y-70044763D01*
X105197768Y-69987434D01*
X105180500Y-69924314D01*
X105180500Y-69655493D01*
X105199508Y-69589519D01*
X105205787Y-69579525D01*
X105205786Y-69579525D01*
X105205789Y-69579522D01*
X105265368Y-69409255D01*
X105281750Y-69263859D01*
X105285565Y-69230003D01*
X105285565Y-69230001D01*
X105285565Y-69230000D01*
X105284256Y-69218384D01*
X105296309Y-69149564D01*
X105343657Y-69098184D01*
X105407476Y-69080500D01*
X105429903Y-69080500D01*
X105496942Y-69100185D01*
G37*
%TD.AperFunction*%
%TA.AperFunction,Conductor*%
G36*
X103123039Y-67249685D02*
G01*
X103168794Y-67302489D01*
X103180000Y-67354000D01*
X103180000Y-68130000D01*
X103303692Y-68130000D01*
X103370731Y-68149685D01*
X103416486Y-68202489D01*
X103418253Y-68206547D01*
X103420424Y-68211788D01*
X103441455Y-68248214D01*
X103441456Y-68248216D01*
X103499475Y-68348709D01*
X103499479Y-68348714D01*
X103499480Y-68348716D01*
X103611284Y-68460520D01*
X103611285Y-68460521D01*
X103737197Y-68586433D01*
X103791188Y-68640423D01*
X103824673Y-68701746D01*
X103819689Y-68771437D01*
X103808501Y-68794076D01*
X103754211Y-68880476D01*
X103694631Y-69050745D01*
X103694630Y-69050750D01*
X103674435Y-69229996D01*
X103674435Y-69230003D01*
X103694630Y-69409249D01*
X103694631Y-69409254D01*
X103754212Y-69579525D01*
X103760492Y-69589519D01*
X103779500Y-69655493D01*
X103779500Y-69655500D01*
X103759815Y-69722539D01*
X103707011Y-69768294D01*
X103655500Y-69779500D01*
X102975143Y-69779500D01*
X102912022Y-69762232D01*
X102857512Y-69729995D01*
X102836395Y-69717506D01*
X102836394Y-69717505D01*
X102836393Y-69717505D01*
X102836390Y-69717504D01*
X102680997Y-69672357D01*
X102680991Y-69672356D01*
X102644697Y-69669500D01*
X102644690Y-69669500D01*
X102235310Y-69669500D01*
X102235302Y-69669500D01*
X102199008Y-69672356D01*
X102199002Y-69672357D01*
X102043609Y-69717504D01*
X102043604Y-69717506D01*
X102022628Y-69729911D01*
X101954903Y-69747092D01*
X101896389Y-69729911D01*
X101876191Y-69717966D01*
X101876190Y-69717965D01*
X101730001Y-69675493D01*
X101730000Y-69675494D01*
X101730000Y-69981645D01*
X101712734Y-70044763D01*
X101707507Y-70053600D01*
X101707504Y-70053608D01*
X101662357Y-70209002D01*
X101662356Y-70209008D01*
X101659500Y-70245302D01*
X101659500Y-70714697D01*
X101662356Y-70750991D01*
X101662357Y-70750997D01*
X101707503Y-70906389D01*
X101707505Y-70906393D01*
X101707506Y-70906395D01*
X101712732Y-70915233D01*
X101730000Y-70978352D01*
X101730000Y-71284532D01*
X101771743Y-71340460D01*
X101779500Y-71383629D01*
X101779500Y-71730998D01*
X101759815Y-71798037D01*
X101707011Y-71843792D01*
X101637853Y-71853736D01*
X101581189Y-71830265D01*
X101522331Y-71786204D01*
X101522328Y-71786202D01*
X101387482Y-71735908D01*
X101387483Y-71735908D01*
X101327883Y-71729501D01*
X101327881Y-71729500D01*
X101327873Y-71729500D01*
X101327865Y-71729500D01*
X100896210Y-71729500D01*
X100829171Y-71709815D01*
X100783416Y-71657011D01*
X100772990Y-71591617D01*
X100785565Y-71480004D01*
X100785565Y-71479996D01*
X100768342Y-71327135D01*
X100780397Y-71258313D01*
X100825590Y-71208258D01*
X100829516Y-71205791D01*
X100829522Y-71205789D01*
X100859086Y-71187212D01*
X100926317Y-71168214D01*
X100988174Y-71185476D01*
X101083804Y-71242031D01*
X101230000Y-71284504D01*
X101230000Y-70781397D01*
X101236959Y-70740442D01*
X101265368Y-70659255D01*
X101283370Y-70499480D01*
X101285565Y-70480003D01*
X101285565Y-70479996D01*
X101265369Y-70300750D01*
X101265367Y-70300742D01*
X101236958Y-70219552D01*
X101230000Y-70178598D01*
X101230000Y-69675494D01*
X101226430Y-69672814D01*
X101169224Y-69672650D01*
X101110554Y-69634708D01*
X101081712Y-69571069D01*
X101080500Y-69553774D01*
X101080500Y-68730096D01*
X101100185Y-68663057D01*
X101116814Y-68642420D01*
X101900052Y-67859182D01*
X101961371Y-67825700D01*
X102031062Y-67830684D01*
X102086995Y-67872555D01*
X102172809Y-67987187D01*
X102172812Y-67987190D01*
X102287906Y-68073350D01*
X102287913Y-68073354D01*
X102422620Y-68123596D01*
X102422627Y-68123598D01*
X102482155Y-68129999D01*
X102482172Y-68130000D01*
X102680000Y-68130000D01*
X102680000Y-67354000D01*
X102699685Y-67286961D01*
X102752489Y-67241206D01*
X102804000Y-67230000D01*
X103056000Y-67230000D01*
X103123039Y-67249685D01*
G37*
%TD.AperFunction*%
%TA.AperFunction,Conductor*%
G36*
X108698327Y-68096420D02*
G01*
X108772517Y-68124091D01*
X108832127Y-68130500D01*
X109280768Y-68130499D01*
X109347807Y-68150183D01*
X109388148Y-68192487D01*
X109391449Y-68198203D01*
X109391456Y-68198216D01*
X109449475Y-68298709D01*
X109449481Y-68298717D01*
X109568349Y-68417585D01*
X109568355Y-68417590D01*
X110395139Y-69244374D01*
X110395149Y-69244385D01*
X110399479Y-69248715D01*
X110399480Y-69248716D01*
X110511284Y-69360520D01*
X110511286Y-69360521D01*
X110511290Y-69360524D01*
X110595695Y-69409255D01*
X110595696Y-69409255D01*
X110648215Y-69439577D01*
X110699425Y-69453299D01*
X110759085Y-69489663D01*
X110789614Y-69552510D01*
X110790551Y-69586956D01*
X110774435Y-69729995D01*
X110774435Y-69730003D01*
X110794630Y-69909249D01*
X110794631Y-69909254D01*
X110854212Y-70079525D01*
X110860492Y-70089519D01*
X110879500Y-70155493D01*
X110879500Y-71601404D01*
X110859815Y-71668443D01*
X110807011Y-71714198D01*
X110737853Y-71724142D01*
X110674297Y-71695117D01*
X110667819Y-71689085D01*
X110557603Y-71578869D01*
X110557595Y-71578863D01*
X110419393Y-71497131D01*
X110419388Y-71497129D01*
X110265208Y-71452335D01*
X110265202Y-71452334D01*
X110229181Y-71449500D01*
X109730830Y-71449500D01*
X109730808Y-71449501D01*
X109694796Y-71452335D01*
X109694795Y-71452335D01*
X109627343Y-71471930D01*
X109557473Y-71471729D01*
X109530752Y-71460241D01*
X109511209Y-71448958D01*
X109475142Y-71428135D01*
X109461785Y-71420423D01*
X109310944Y-71380004D01*
X109255358Y-71347911D01*
X109219370Y-71311923D01*
X109219362Y-71311917D01*
X109077896Y-71228255D01*
X109077893Y-71228253D01*
X108919906Y-71182354D01*
X108861020Y-71144748D01*
X108831814Y-71081275D01*
X108830501Y-71063278D01*
X108830501Y-70900945D01*
X108830501Y-70900943D01*
X108789577Y-70748215D01*
X108758641Y-70694632D01*
X108710520Y-70611284D01*
X108598716Y-70499480D01*
X108598715Y-70499479D01*
X108594385Y-70495149D01*
X108594374Y-70495139D01*
X106441415Y-68342180D01*
X106407930Y-68280857D01*
X106412914Y-68211165D01*
X106454786Y-68155232D01*
X106520250Y-68130815D01*
X106529081Y-68130499D01*
X106777872Y-68130499D01*
X106837483Y-68124091D01*
X106911667Y-68096421D01*
X106981358Y-68091438D01*
X106998327Y-68096420D01*
X107072517Y-68124091D01*
X107132127Y-68130500D01*
X107627872Y-68130499D01*
X107687483Y-68124091D01*
X107761667Y-68096421D01*
X107831358Y-68091438D01*
X107848327Y-68096420D01*
X107922517Y-68124091D01*
X107982127Y-68130500D01*
X108477872Y-68130499D01*
X108537483Y-68124091D01*
X108611667Y-68096421D01*
X108681358Y-68091438D01*
X108698327Y-68096420D01*
G37*
%TD.AperFunction*%
%TA.AperFunction,Conductor*%
G36*
X118035702Y-60776805D02*
G01*
X118042180Y-60782837D01*
X118568181Y-61308838D01*
X118601666Y-61370161D01*
X118604500Y-61396519D01*
X118604500Y-61777869D01*
X118604501Y-61777876D01*
X118610908Y-61837483D01*
X118661202Y-61972328D01*
X118661206Y-61972335D01*
X118747452Y-62087544D01*
X118747455Y-62087547D01*
X118862664Y-62173793D01*
X118862671Y-62173797D01*
X118948833Y-62205933D01*
X119004766Y-62247804D01*
X119029184Y-62313268D01*
X119029500Y-62322115D01*
X119029500Y-62484855D01*
X119012233Y-62547975D01*
X118967504Y-62623608D01*
X118967504Y-62623609D01*
X118922357Y-62779002D01*
X118922356Y-62779008D01*
X118919500Y-62815302D01*
X118919500Y-63224697D01*
X118922356Y-63260991D01*
X118922357Y-63260997D01*
X118967504Y-63416390D01*
X118967507Y-63416397D01*
X118979910Y-63437370D01*
X118997093Y-63505094D01*
X118979912Y-63563608D01*
X118967968Y-63583804D01*
X118925496Y-63730000D01*
X119231648Y-63730000D01*
X119294766Y-63747267D01*
X119303605Y-63752494D01*
X119303608Y-63752494D01*
X119303610Y-63752496D01*
X119459002Y-63797642D01*
X119459005Y-63797642D01*
X119459007Y-63797643D01*
X119495310Y-63800500D01*
X119495318Y-63800500D01*
X119606000Y-63800500D01*
X119673039Y-63820185D01*
X119718794Y-63872989D01*
X119730000Y-63924500D01*
X119730000Y-63980000D01*
X119856000Y-63980000D01*
X119923039Y-63999685D01*
X119968794Y-64052489D01*
X119980000Y-64104000D01*
X119980000Y-64758790D01*
X120005103Y-64781996D01*
X120040969Y-64841958D01*
X120038723Y-64911791D01*
X120008611Y-64960731D01*
X119530709Y-65438632D01*
X119483984Y-65467992D01*
X119380476Y-65504211D01*
X119380475Y-65504212D01*
X119227737Y-65600184D01*
X119100184Y-65727737D01*
X119004211Y-65880476D01*
X118944631Y-66050745D01*
X118944630Y-66050750D01*
X118924435Y-66229996D01*
X118924435Y-66230003D01*
X118944630Y-66409249D01*
X118944631Y-66409254D01*
X119004211Y-66579523D01*
X119094127Y-66722623D01*
X119100184Y-66732262D01*
X119227738Y-66859816D01*
X119380478Y-66955789D01*
X119528731Y-67007665D01*
X119550745Y-67015368D01*
X119550750Y-67015369D01*
X119729996Y-67035565D01*
X119730000Y-67035565D01*
X119730004Y-67035565D01*
X119909249Y-67015369D01*
X119909252Y-67015368D01*
X119909255Y-67015368D01*
X119909256Y-67015367D01*
X119909259Y-67015367D01*
X119962451Y-66996754D01*
X120032230Y-66993191D01*
X120092858Y-67027920D01*
X120125085Y-67089913D01*
X120118681Y-67159488D01*
X120091088Y-67201476D01*
X119449384Y-67843181D01*
X119388061Y-67876666D01*
X119361703Y-67879500D01*
X117946364Y-67879500D01*
X117879325Y-67859815D01*
X117833570Y-67807011D01*
X117823075Y-67742244D01*
X117829999Y-67677844D01*
X117830000Y-67677827D01*
X117830000Y-67480000D01*
X117054000Y-67480000D01*
X116986961Y-67460315D01*
X116941206Y-67407511D01*
X116930000Y-67356000D01*
X116930000Y-67104000D01*
X116949685Y-67036961D01*
X117002489Y-66991206D01*
X117054000Y-66980000D01*
X117830000Y-66980000D01*
X117830000Y-66782172D01*
X117829999Y-66782155D01*
X117823598Y-66722623D01*
X117796155Y-66649047D01*
X117791171Y-66579355D01*
X117796148Y-66562399D01*
X117824091Y-66487483D01*
X117830500Y-66427873D01*
X117830499Y-65932128D01*
X117824091Y-65872517D01*
X117796421Y-65798332D01*
X117791438Y-65728642D01*
X117796422Y-65711667D01*
X117824091Y-65637483D01*
X117830500Y-65577873D01*
X117830499Y-65082128D01*
X117824091Y-65022517D01*
X117796421Y-64948332D01*
X117791438Y-64878642D01*
X117796422Y-64861667D01*
X117824091Y-64787483D01*
X117830500Y-64727873D01*
X117830499Y-64232128D01*
X117830270Y-64230000D01*
X118925496Y-64230000D01*
X118967968Y-64376195D01*
X119050278Y-64515374D01*
X119050285Y-64515383D01*
X119164616Y-64629714D01*
X119164625Y-64629721D01*
X119303804Y-64712031D01*
X119459089Y-64757145D01*
X119480000Y-64758789D01*
X119480000Y-64230000D01*
X118925496Y-64230000D01*
X117830270Y-64230000D01*
X117824091Y-64172517D01*
X117796421Y-64098332D01*
X117791438Y-64028642D01*
X117796422Y-64011667D01*
X117824091Y-63937483D01*
X117830500Y-63877873D01*
X117830499Y-63382128D01*
X117824091Y-63322517D01*
X117796421Y-63248332D01*
X117791438Y-63178642D01*
X117796422Y-63161667D01*
X117824091Y-63087483D01*
X117830500Y-63027873D01*
X117830499Y-62532128D01*
X117824091Y-62472517D01*
X117796421Y-62398332D01*
X117791438Y-62328642D01*
X117796422Y-62311667D01*
X117824091Y-62237483D01*
X117830500Y-62177873D01*
X117830499Y-61682128D01*
X117824091Y-61622517D01*
X117796421Y-61548332D01*
X117791438Y-61478642D01*
X117796422Y-61461667D01*
X117824091Y-61387483D01*
X117830500Y-61327873D01*
X117830499Y-60870517D01*
X117850183Y-60803479D01*
X117902987Y-60757724D01*
X117972146Y-60747780D01*
X118035702Y-60776805D01*
G37*
%TD.AperFunction*%
%TA.AperFunction,Conductor*%
G36*
X99685703Y-66605735D02*
G01*
X99711231Y-66636325D01*
X99738477Y-66682396D01*
X99788863Y-66767595D01*
X99788869Y-66767603D01*
X99902396Y-66881130D01*
X99902400Y-66881133D01*
X99902402Y-66881135D01*
X100033264Y-66958526D01*
X100080947Y-67009595D01*
X100093451Y-67078336D01*
X100066806Y-67142926D01*
X100057824Y-67152939D01*
X99692181Y-67518582D01*
X99630858Y-67552067D01*
X99561166Y-67547083D01*
X99505233Y-67505211D01*
X99480816Y-67439747D01*
X99480500Y-67430901D01*
X99480500Y-66699448D01*
X99500185Y-66632409D01*
X99552989Y-66586654D01*
X99622147Y-66576710D01*
X99685703Y-66605735D01*
G37*
%TD.AperFunction*%
%TA.AperFunction,Conductor*%
G36*
X104035701Y-65385383D02*
G01*
X104042180Y-65391416D01*
X104118349Y-65467585D01*
X104118355Y-65467590D01*
X104645139Y-65994374D01*
X104645149Y-65994385D01*
X104649479Y-65998715D01*
X104649480Y-65998716D01*
X104761284Y-66110520D01*
X104761286Y-66110521D01*
X104767031Y-66116266D01*
X104765008Y-66118288D01*
X104798058Y-66163541D01*
X104802220Y-66233287D01*
X104768013Y-66294210D01*
X104706299Y-66326969D01*
X104681374Y-66329500D01*
X104582130Y-66329500D01*
X104582123Y-66329501D01*
X104522516Y-66335908D01*
X104448332Y-66363577D01*
X104378640Y-66368561D01*
X104361668Y-66363577D01*
X104287485Y-66335909D01*
X104287483Y-66335908D01*
X104227883Y-66329501D01*
X104227881Y-66329500D01*
X104227873Y-66329500D01*
X104227865Y-66329500D01*
X103954499Y-66329500D01*
X103887460Y-66309815D01*
X103841705Y-66257011D01*
X103830499Y-66205500D01*
X103830499Y-65932129D01*
X103830498Y-65932123D01*
X103830497Y-65932116D01*
X103824091Y-65872517D01*
X103796421Y-65798332D01*
X103791438Y-65728642D01*
X103796422Y-65711667D01*
X103824091Y-65637483D01*
X103830500Y-65577873D01*
X103830499Y-65479095D01*
X103850183Y-65412059D01*
X103902986Y-65366303D01*
X103972145Y-65356359D01*
X104035701Y-65385383D01*
G37*
%TD.AperFunction*%
%TA.AperFunction,Conductor*%
G36*
X102015341Y-52499685D02*
G01*
X102061096Y-52552489D01*
X102071040Y-52621647D01*
X102064484Y-52647334D01*
X102036402Y-52722623D01*
X102036401Y-52722627D01*
X102030000Y-52782155D01*
X102030000Y-52980000D01*
X103858638Y-52980000D01*
X103925677Y-52999685D01*
X103946319Y-53016319D01*
X103960000Y-53030000D01*
X115900000Y-53030000D01*
X115913681Y-53016319D01*
X115975004Y-52982834D01*
X116001362Y-52980000D01*
X117830000Y-52980000D01*
X117830000Y-52782172D01*
X117829999Y-52782155D01*
X117823598Y-52722627D01*
X117823597Y-52722623D01*
X117795516Y-52647334D01*
X117790532Y-52577642D01*
X117824017Y-52516319D01*
X117885340Y-52482834D01*
X117911698Y-52480000D01*
X118348520Y-52480000D01*
X118415559Y-52499685D01*
X118415898Y-52500000D01*
X120051909Y-52500000D01*
X120068315Y-52487756D01*
X120111480Y-52480000D01*
X120505540Y-52480000D01*
X120572579Y-52499685D01*
X120618334Y-52552489D01*
X120628278Y-52621647D01*
X120599253Y-52685203D01*
X120593221Y-52691681D01*
X120550285Y-52734616D01*
X120550278Y-52734625D01*
X120467968Y-52873804D01*
X120425496Y-53020000D01*
X122034504Y-53020000D01*
X121992031Y-52873804D01*
X121909721Y-52734625D01*
X121909714Y-52734616D01*
X121866779Y-52691681D01*
X121833294Y-52630358D01*
X121838278Y-52560666D01*
X121880150Y-52504733D01*
X121945614Y-52480316D01*
X121954460Y-52480000D01*
X130605500Y-52480000D01*
X130672539Y-52499685D01*
X130718294Y-52552489D01*
X130729500Y-52604000D01*
X130729500Y-56234545D01*
X130709815Y-56301584D01*
X130657011Y-56347339D01*
X130587853Y-56357283D01*
X130524297Y-56328258D01*
X130502399Y-56303437D01*
X130481753Y-56272539D01*
X130481748Y-56272533D01*
X130342466Y-56133251D01*
X130342462Y-56133248D01*
X130178684Y-56023814D01*
X130178671Y-56023807D01*
X129996693Y-55948430D01*
X129996681Y-55948427D01*
X129803495Y-55910000D01*
X129555000Y-55910000D01*
X129555000Y-56610000D01*
X129055000Y-56610000D01*
X129055000Y-55910000D01*
X128806504Y-55910000D01*
X128613318Y-55948427D01*
X128613306Y-55948430D01*
X128431328Y-56023807D01*
X128431315Y-56023814D01*
X128267537Y-56133248D01*
X128267533Y-56133251D01*
X128128251Y-56272533D01*
X128128248Y-56272537D01*
X128018814Y-56436315D01*
X128018807Y-56436328D01*
X127943430Y-56618307D01*
X127943430Y-56618309D01*
X127935138Y-56660000D01*
X128738012Y-56660000D01*
X128720795Y-56669940D01*
X128664940Y-56725795D01*
X128625444Y-56794204D01*
X128605000Y-56870504D01*
X128605000Y-56949496D01*
X128625444Y-57025796D01*
X128664940Y-57094205D01*
X128720795Y-57150060D01*
X128738012Y-57160000D01*
X127935138Y-57160000D01*
X127943430Y-57201690D01*
X127943430Y-57201692D01*
X128018807Y-57383671D01*
X128018814Y-57383684D01*
X128128248Y-57547462D01*
X128128251Y-57547466D01*
X128267533Y-57686748D01*
X128267537Y-57686751D01*
X128431315Y-57796185D01*
X128431328Y-57796192D01*
X128613306Y-57871569D01*
X128613318Y-57871572D01*
X128806504Y-57909999D01*
X128806508Y-57910000D01*
X129055000Y-57910000D01*
X129055000Y-57210000D01*
X129555000Y-57210000D01*
X129555000Y-57910000D01*
X129803492Y-57910000D01*
X129803495Y-57909999D01*
X129996681Y-57871572D01*
X129996693Y-57871569D01*
X130178671Y-57796192D01*
X130178684Y-57796185D01*
X130342462Y-57686751D01*
X130342466Y-57686748D01*
X130481751Y-57547463D01*
X130502398Y-57516563D01*
X130556010Y-57471758D01*
X130625335Y-57463051D01*
X130688362Y-57493205D01*
X130725082Y-57552648D01*
X130729500Y-57585454D01*
X130729500Y-64874545D01*
X130709815Y-64941584D01*
X130657011Y-64987339D01*
X130587853Y-64997283D01*
X130524297Y-64968258D01*
X130502399Y-64943437D01*
X130481753Y-64912539D01*
X130481748Y-64912533D01*
X130342466Y-64773251D01*
X130342462Y-64773248D01*
X130178684Y-64663814D01*
X130178671Y-64663807D01*
X129996693Y-64588430D01*
X129996681Y-64588427D01*
X129803495Y-64550000D01*
X129555000Y-64550000D01*
X129555000Y-65250000D01*
X129055000Y-65250000D01*
X129055000Y-64550000D01*
X128806504Y-64550000D01*
X128613318Y-64588427D01*
X128613306Y-64588430D01*
X128431328Y-64663807D01*
X128431315Y-64663814D01*
X128267537Y-64773248D01*
X128267533Y-64773251D01*
X128128251Y-64912533D01*
X128128248Y-64912537D01*
X128057602Y-65018266D01*
X128003989Y-65063071D01*
X127934664Y-65071778D01*
X127871637Y-65041623D01*
X127834918Y-64982180D01*
X127830500Y-64949375D01*
X127830500Y-61319060D01*
X127830501Y-61319047D01*
X127830501Y-61150944D01*
X127822605Y-61121475D01*
X127789577Y-60998216D01*
X127765082Y-60955789D01*
X127710524Y-60861290D01*
X127710518Y-60861282D01*
X127260401Y-60411165D01*
X126808336Y-59959101D01*
X126774852Y-59897779D01*
X126779836Y-59828088D01*
X126808336Y-59783741D01*
X126859816Y-59732262D01*
X126955789Y-59579522D01*
X127015368Y-59409255D01*
X127015369Y-59409249D01*
X127035565Y-59230003D01*
X127035565Y-59229996D01*
X127015369Y-59050750D01*
X127015368Y-59050745D01*
X127001560Y-59011284D01*
X126955789Y-58880478D01*
X126940408Y-58856000D01*
X126892340Y-58779500D01*
X126859816Y-58727738D01*
X126732262Y-58600184D01*
X126579523Y-58504211D01*
X126409254Y-58444631D01*
X126409250Y-58444630D01*
X126310616Y-58433517D01*
X126246202Y-58406450D01*
X126206647Y-58348855D01*
X126200500Y-58310297D01*
X126200500Y-58264236D01*
X126200500Y-58264234D01*
X126161281Y-58117865D01*
X126085515Y-57986635D01*
X126085513Y-57986633D01*
X126081451Y-57979597D01*
X126083654Y-57978325D01*
X126063041Y-57925022D01*
X126077073Y-57856576D01*
X126125882Y-57806582D01*
X126139163Y-57800129D01*
X126148682Y-57796186D01*
X126148684Y-57796185D01*
X126312462Y-57686751D01*
X126312466Y-57686748D01*
X126451748Y-57547466D01*
X126451751Y-57547462D01*
X126561185Y-57383684D01*
X126561192Y-57383671D01*
X126636569Y-57201692D01*
X126636569Y-57201690D01*
X126644862Y-57160000D01*
X125841988Y-57160000D01*
X125859205Y-57150060D01*
X125915060Y-57094205D01*
X125954556Y-57025796D01*
X125975000Y-56949496D01*
X125975000Y-56870504D01*
X125954556Y-56794204D01*
X125915060Y-56725795D01*
X125859205Y-56669940D01*
X125841988Y-56660000D01*
X126644862Y-56660000D01*
X126636569Y-56618309D01*
X126636569Y-56618307D01*
X126561192Y-56436328D01*
X126561185Y-56436315D01*
X126451751Y-56272537D01*
X126451748Y-56272533D01*
X126312466Y-56133251D01*
X126312462Y-56133248D01*
X126148684Y-56023814D01*
X126148671Y-56023807D01*
X125966693Y-55948430D01*
X125966681Y-55948427D01*
X125773495Y-55910000D01*
X125375000Y-55910000D01*
X125375000Y-56610000D01*
X124875000Y-56610000D01*
X124875000Y-55910000D01*
X124476504Y-55910000D01*
X124283318Y-55948427D01*
X124283306Y-55948430D01*
X124101328Y-56023807D01*
X124101315Y-56023814D01*
X123937537Y-56133248D01*
X123937533Y-56133251D01*
X123798251Y-56272533D01*
X123798248Y-56272537D01*
X123688814Y-56436315D01*
X123688807Y-56436328D01*
X123613430Y-56618307D01*
X123613430Y-56618309D01*
X123605138Y-56660000D01*
X124408012Y-56660000D01*
X124390795Y-56669940D01*
X124334940Y-56725795D01*
X124295444Y-56794204D01*
X124275000Y-56870504D01*
X124275000Y-56949496D01*
X124295444Y-57025796D01*
X124334940Y-57094205D01*
X124390795Y-57150060D01*
X124408012Y-57160000D01*
X123588667Y-57160000D01*
X123568264Y-57173897D01*
X123498419Y-57175766D01*
X123438652Y-57139577D01*
X123408907Y-57081853D01*
X123407936Y-57077322D01*
X123407936Y-57077315D01*
X123355049Y-56917713D01*
X123355045Y-56917707D01*
X123355044Y-56917704D01*
X123266783Y-56774612D01*
X123266780Y-56774608D01*
X123147891Y-56655719D01*
X123147887Y-56655716D01*
X123004795Y-56567455D01*
X123004789Y-56567452D01*
X123004787Y-56567451D01*
X122845185Y-56514564D01*
X122845183Y-56514563D01*
X122746681Y-56504500D01*
X122746674Y-56504500D01*
X122213326Y-56504500D01*
X122213318Y-56504500D01*
X122114816Y-56514563D01*
X122114815Y-56514564D01*
X122035719Y-56540773D01*
X121955215Y-56567450D01*
X121955204Y-56567455D01*
X121812112Y-56655716D01*
X121812108Y-56655719D01*
X121780181Y-56687647D01*
X121718858Y-56721132D01*
X121649166Y-56716148D01*
X121604819Y-56687647D01*
X121572891Y-56655719D01*
X121572887Y-56655716D01*
X121429795Y-56567455D01*
X121429789Y-56567452D01*
X121429787Y-56567451D01*
X121270185Y-56514564D01*
X121270183Y-56514563D01*
X121171681Y-56504500D01*
X121171674Y-56504500D01*
X120638326Y-56504500D01*
X120638318Y-56504500D01*
X120539816Y-56514563D01*
X120539815Y-56514564D01*
X120460719Y-56540773D01*
X120380215Y-56567450D01*
X120380204Y-56567455D01*
X120237112Y-56655716D01*
X120237108Y-56655719D01*
X120142181Y-56750647D01*
X120080858Y-56784132D01*
X120011166Y-56779148D01*
X119955233Y-56737276D01*
X119930816Y-56671812D01*
X119930500Y-56662966D01*
X119930500Y-56285684D01*
X119947768Y-56222563D01*
X119957688Y-56205789D01*
X120002869Y-56129393D01*
X120002870Y-56129388D01*
X120002872Y-56129385D01*
X120047664Y-55975208D01*
X120047665Y-55975202D01*
X120050499Y-55939188D01*
X120050500Y-55939181D01*
X120050499Y-55654095D01*
X120070183Y-55587057D01*
X120122987Y-55541302D01*
X120188383Y-55530876D01*
X120229998Y-55535565D01*
X120230000Y-55535565D01*
X120230004Y-55535565D01*
X120409249Y-55515369D01*
X120409252Y-55515368D01*
X120409255Y-55515368D01*
X120579522Y-55455789D01*
X120732262Y-55359816D01*
X120859816Y-55232262D01*
X120955789Y-55079522D01*
X120955789Y-55079520D01*
X120959494Y-55073625D01*
X120960845Y-55074474D01*
X121002035Y-55028845D01*
X121066942Y-55010500D01*
X121464682Y-55010500D01*
X121464690Y-55010500D01*
X121500993Y-55007643D01*
X121500995Y-55007642D01*
X121500997Y-55007642D01*
X121566948Y-54988481D01*
X121656395Y-54962494D01*
X121795687Y-54880117D01*
X121795692Y-54880112D01*
X121808986Y-54866819D01*
X121870309Y-54833334D01*
X121896667Y-54830500D01*
X122455501Y-54830500D01*
X122522540Y-54850185D01*
X122568295Y-54902989D01*
X122579501Y-54954500D01*
X122579501Y-55027876D01*
X122585908Y-55087483D01*
X122636202Y-55222328D01*
X122636206Y-55222335D01*
X122722452Y-55337544D01*
X122722455Y-55337547D01*
X122837664Y-55423793D01*
X122837671Y-55423797D01*
X122972517Y-55474091D01*
X122972516Y-55474091D01*
X122979444Y-55474835D01*
X123032127Y-55480500D01*
X124127872Y-55480499D01*
X124187483Y-55474091D01*
X124187489Y-55474088D01*
X124195025Y-55472308D01*
X124195321Y-55473561D01*
X124257063Y-55469142D01*
X124270655Y-55473132D01*
X124272627Y-55473598D01*
X124332155Y-55479999D01*
X124332172Y-55480000D01*
X124630000Y-55480000D01*
X125130000Y-55480000D01*
X125427828Y-55480000D01*
X125427844Y-55479999D01*
X125487372Y-55473598D01*
X125487379Y-55473596D01*
X125622086Y-55423354D01*
X125622093Y-55423350D01*
X125737187Y-55337190D01*
X125737190Y-55337187D01*
X125823350Y-55222093D01*
X125823354Y-55222086D01*
X125873596Y-55087379D01*
X125873598Y-55087372D01*
X125879999Y-55027844D01*
X125880000Y-55027827D01*
X125880000Y-54480000D01*
X125130000Y-54480000D01*
X125130000Y-55480000D01*
X124630000Y-55480000D01*
X124630000Y-53980000D01*
X125130000Y-53980000D01*
X125880000Y-53980000D01*
X125880000Y-53432172D01*
X125879999Y-53432155D01*
X125873598Y-53372627D01*
X125873596Y-53372620D01*
X125823354Y-53237913D01*
X125823350Y-53237906D01*
X125737190Y-53122812D01*
X125737187Y-53122809D01*
X125622093Y-53036649D01*
X125622086Y-53036645D01*
X125487379Y-52986403D01*
X125487372Y-52986401D01*
X125427844Y-52980000D01*
X125130000Y-52980000D01*
X125130000Y-53980000D01*
X124630000Y-53980000D01*
X124630000Y-52980000D01*
X124332155Y-52980000D01*
X124272624Y-52986401D01*
X124265073Y-52988186D01*
X124264684Y-52986542D01*
X124204348Y-52990853D01*
X124187614Y-52985939D01*
X124187483Y-52985908D01*
X124127883Y-52979501D01*
X124127881Y-52979500D01*
X124127873Y-52979500D01*
X124127864Y-52979500D01*
X123032129Y-52979500D01*
X123032123Y-52979501D01*
X122972516Y-52985908D01*
X122837671Y-53036202D01*
X122837664Y-53036206D01*
X122722455Y-53122452D01*
X122722452Y-53122455D01*
X122636206Y-53237664D01*
X122636202Y-53237671D01*
X122585908Y-53372517D01*
X122579501Y-53432116D01*
X122579500Y-53432135D01*
X122579500Y-53505500D01*
X122559815Y-53572539D01*
X122507011Y-53618294D01*
X122455500Y-53629500D01*
X122167844Y-53629500D01*
X122100805Y-53609815D01*
X122055050Y-53557011D01*
X122053334Y-53545078D01*
X122034505Y-53520000D01*
X121728352Y-53520000D01*
X121665233Y-53502732D01*
X121656395Y-53497506D01*
X121656393Y-53497505D01*
X121656389Y-53497503D01*
X121500997Y-53452357D01*
X121500991Y-53452356D01*
X121464697Y-53449500D01*
X121464690Y-53449500D01*
X120995310Y-53449500D01*
X120995302Y-53449500D01*
X120959008Y-53452356D01*
X120959002Y-53452357D01*
X120803610Y-53497503D01*
X120803605Y-53497506D01*
X120794766Y-53502732D01*
X120731648Y-53520000D01*
X120425495Y-53520000D01*
X120446239Y-53591402D01*
X120446039Y-53661272D01*
X120408096Y-53719941D01*
X120389165Y-53733382D01*
X120361285Y-53749479D01*
X120361282Y-53749481D01*
X120252181Y-53858583D01*
X120190858Y-53892068D01*
X120121166Y-53887084D01*
X120065233Y-53845212D01*
X120040816Y-53779748D01*
X120040500Y-53770902D01*
X120040500Y-53505317D01*
X120040499Y-53505302D01*
X120040475Y-53505001D01*
X120037643Y-53469007D01*
X120032805Y-53452356D01*
X119992495Y-53313609D01*
X119992494Y-53313605D01*
X119992493Y-53313604D01*
X119980089Y-53292630D01*
X119962906Y-53224909D01*
X119980091Y-53166384D01*
X119992032Y-53146194D01*
X120034504Y-53000000D01*
X119728352Y-53000000D01*
X119665233Y-52982732D01*
X119656395Y-52977506D01*
X119656393Y-52977505D01*
X119656389Y-52977503D01*
X119500997Y-52932357D01*
X119500991Y-52932356D01*
X119464697Y-52929500D01*
X119464690Y-52929500D01*
X118995310Y-52929500D01*
X118995302Y-52929500D01*
X118959008Y-52932356D01*
X118959002Y-52932357D01*
X118803610Y-52977503D01*
X118803605Y-52977506D01*
X118794766Y-52982732D01*
X118731648Y-53000000D01*
X118425496Y-53000000D01*
X118467968Y-53146194D01*
X118479911Y-53166389D01*
X118497092Y-53234113D01*
X118479911Y-53292628D01*
X118467506Y-53313604D01*
X118467504Y-53313609D01*
X118422357Y-53469002D01*
X118422356Y-53469008D01*
X118419500Y-53505302D01*
X118419500Y-53555500D01*
X118399815Y-53622539D01*
X118347011Y-53668294D01*
X118295500Y-53679500D01*
X117954000Y-53679500D01*
X117886961Y-53659815D01*
X117841206Y-53607011D01*
X117830000Y-53555500D01*
X117830000Y-53480000D01*
X116080000Y-53480000D01*
X116080000Y-53831930D01*
X116072182Y-53875263D01*
X116065915Y-53892068D01*
X116035909Y-53972517D01*
X116029500Y-54032127D01*
X116029500Y-54032134D01*
X116029500Y-54032135D01*
X116029500Y-54527870D01*
X116029501Y-54527876D01*
X116035908Y-54587483D01*
X116063577Y-54661667D01*
X116068561Y-54731358D01*
X116063577Y-54748332D01*
X116043943Y-54800973D01*
X116015442Y-54845321D01*
X112961465Y-57899298D01*
X112900142Y-57932783D01*
X112887668Y-57934837D01*
X112800726Y-57944633D01*
X112731904Y-57932579D01*
X112680524Y-57885230D01*
X112670660Y-57864746D01*
X112623354Y-57737913D01*
X112623350Y-57737906D01*
X112537190Y-57622812D01*
X112537187Y-57622809D01*
X112422093Y-57536649D01*
X112422086Y-57536645D01*
X112287379Y-57486403D01*
X112287372Y-57486401D01*
X112227844Y-57480000D01*
X111830000Y-57480000D01*
X111830000Y-61630000D01*
X112680000Y-61630000D01*
X112680000Y-61232172D01*
X112679999Y-61232155D01*
X112673598Y-61172627D01*
X112673598Y-61172625D01*
X112654520Y-61121475D01*
X112649536Y-61051784D01*
X112683021Y-60990461D01*
X112744344Y-60956976D01*
X112814036Y-60961960D01*
X112858383Y-60990461D01*
X112977738Y-61109816D01*
X113043191Y-61150943D01*
X113080040Y-61174097D01*
X113130478Y-61205789D01*
X113300745Y-61265368D01*
X113300750Y-61265369D01*
X113479996Y-61285565D01*
X113480000Y-61285565D01*
X113480004Y-61285565D01*
X113659249Y-61265369D01*
X113659252Y-61265368D01*
X113659255Y-61265368D01*
X113829522Y-61205789D01*
X113982262Y-61109816D01*
X114109816Y-60982262D01*
X114205789Y-60829522D01*
X114265368Y-60659255D01*
X114269743Y-60620422D01*
X114296808Y-60556011D01*
X114354402Y-60516454D01*
X114424239Y-60514315D01*
X114484146Y-60550272D01*
X114500159Y-60573843D01*
X114500506Y-60573626D01*
X114554311Y-60659256D01*
X114600184Y-60732262D01*
X114727738Y-60859816D01*
X114806410Y-60909249D01*
X114862721Y-60944632D01*
X114880478Y-60955789D01*
X115018860Y-61004211D01*
X115050745Y-61015368D01*
X115050750Y-61015369D01*
X115229996Y-61035565D01*
X115230000Y-61035565D01*
X115230004Y-61035565D01*
X115409249Y-61015369D01*
X115409252Y-61015368D01*
X115409255Y-61015368D01*
X115579522Y-60955789D01*
X115732262Y-60859816D01*
X115817822Y-60774255D01*
X115879141Y-60740773D01*
X115948833Y-60745757D01*
X116004767Y-60787628D01*
X116029184Y-60853092D01*
X116029500Y-60861939D01*
X116029500Y-61327870D01*
X116029501Y-61327876D01*
X116035908Y-61387483D01*
X116063577Y-61461667D01*
X116068561Y-61531358D01*
X116063577Y-61548331D01*
X116035910Y-61622511D01*
X116035909Y-61622515D01*
X116035909Y-61622517D01*
X116029500Y-61682127D01*
X116029500Y-61682134D01*
X116029500Y-61682135D01*
X116029500Y-62177870D01*
X116029501Y-62177876D01*
X116035908Y-62237483D01*
X116063577Y-62311667D01*
X116068561Y-62381358D01*
X116063577Y-62398331D01*
X116035910Y-62472511D01*
X116035909Y-62472515D01*
X116035909Y-62472517D01*
X116029500Y-62532127D01*
X116029500Y-62532134D01*
X116029500Y-62532135D01*
X116029500Y-63027870D01*
X116029501Y-63027876D01*
X116035908Y-63087483D01*
X116063577Y-63161667D01*
X116068561Y-63231358D01*
X116063577Y-63248331D01*
X116035910Y-63322511D01*
X116035909Y-63322515D01*
X116035909Y-63322517D01*
X116029500Y-63382127D01*
X116029500Y-63382134D01*
X116029500Y-63382135D01*
X116029500Y-63877870D01*
X116029501Y-63877876D01*
X116035908Y-63937483D01*
X116063577Y-64011667D01*
X116068561Y-64081358D01*
X116063577Y-64098331D01*
X116035910Y-64172511D01*
X116035909Y-64172515D01*
X116035909Y-64172517D01*
X116029500Y-64232127D01*
X116029500Y-64232134D01*
X116029500Y-64232135D01*
X116029500Y-64727870D01*
X116029501Y-64727876D01*
X116035908Y-64787483D01*
X116063577Y-64861667D01*
X116068561Y-64931358D01*
X116063577Y-64948331D01*
X116035910Y-65022511D01*
X116035909Y-65022515D01*
X116035909Y-65022517D01*
X116029500Y-65082127D01*
X116029500Y-65082134D01*
X116029500Y-65082135D01*
X116029500Y-65577870D01*
X116029501Y-65577876D01*
X116035908Y-65637483D01*
X116063577Y-65711667D01*
X116068561Y-65781358D01*
X116063577Y-65798331D01*
X116035909Y-65872514D01*
X116035908Y-65872516D01*
X116031959Y-65909254D01*
X116029501Y-65932123D01*
X116029500Y-65932135D01*
X116029500Y-66205500D01*
X116009815Y-66272539D01*
X115957011Y-66318294D01*
X115905500Y-66329500D01*
X115632130Y-66329500D01*
X115632123Y-66329501D01*
X115572516Y-66335908D01*
X115498332Y-66363577D01*
X115428640Y-66368561D01*
X115411668Y-66363577D01*
X115337488Y-66335910D01*
X115337484Y-66335909D01*
X115337483Y-66335909D01*
X115277873Y-66329500D01*
X115277863Y-66329500D01*
X114782129Y-66329500D01*
X114782123Y-66329501D01*
X114722516Y-66335908D01*
X114648332Y-66363577D01*
X114578640Y-66368561D01*
X114561668Y-66363577D01*
X114487485Y-66335909D01*
X114487483Y-66335908D01*
X114427883Y-66329501D01*
X114427881Y-66329500D01*
X114427873Y-66329500D01*
X114427865Y-66329500D01*
X114273079Y-66329500D01*
X114206040Y-66309815D01*
X114160285Y-66257011D01*
X114150341Y-66187853D01*
X114168085Y-66139528D01*
X114203236Y-66083585D01*
X114205789Y-66079522D01*
X114265368Y-65909255D01*
X114265674Y-65906543D01*
X114285565Y-65730003D01*
X114285565Y-65729996D01*
X114265369Y-65550750D01*
X114265368Y-65550745D01*
X114226138Y-65438632D01*
X114205789Y-65380478D01*
X114109816Y-65227738D01*
X113982262Y-65100184D01*
X113953526Y-65082128D01*
X113829523Y-65004211D01*
X113659254Y-64944631D01*
X113659249Y-64944630D01*
X113480004Y-64924435D01*
X113479996Y-64924435D01*
X113300750Y-64944630D01*
X113300745Y-64944631D01*
X113130474Y-65004212D01*
X113120477Y-65010494D01*
X113054506Y-65029500D01*
X112140576Y-65029500D01*
X112073537Y-65009815D01*
X112027782Y-64957011D01*
X112017356Y-64891617D01*
X112035565Y-64730003D01*
X112035565Y-64729996D01*
X112015369Y-64550750D01*
X112015368Y-64550745D01*
X111990613Y-64480000D01*
X111955789Y-64380478D01*
X111939659Y-64354808D01*
X111884566Y-64267128D01*
X111859816Y-64227738D01*
X111732262Y-64100184D01*
X111686201Y-64071242D01*
X111579523Y-64004211D01*
X111409254Y-63944631D01*
X111409249Y-63944630D01*
X111230004Y-63924435D01*
X111229996Y-63924435D01*
X111050750Y-63944630D01*
X111050745Y-63944631D01*
X110880476Y-64004211D01*
X110727736Y-64100185D01*
X110724903Y-64102445D01*
X110722724Y-64103334D01*
X110721842Y-64103889D01*
X110721744Y-64103734D01*
X110660217Y-64128855D01*
X110647588Y-64129500D01*
X105280097Y-64129500D01*
X105213058Y-64109815D01*
X105192416Y-64093181D01*
X104367590Y-63268355D01*
X104367588Y-63268352D01*
X104248717Y-63149481D01*
X104248716Y-63149480D01*
X104150404Y-63092720D01*
X104111785Y-63070423D01*
X103959057Y-63029499D01*
X103959054Y-63029499D01*
X103954500Y-63029499D01*
X103887461Y-63009814D01*
X103841706Y-62957010D01*
X103830500Y-62905499D01*
X103830499Y-62532130D01*
X103830498Y-62532123D01*
X103830038Y-62527844D01*
X107180000Y-62527844D01*
X107186401Y-62587372D01*
X107186403Y-62587379D01*
X107236645Y-62722086D01*
X107236649Y-62722093D01*
X107322809Y-62837187D01*
X107322812Y-62837190D01*
X107437906Y-62923350D01*
X107437913Y-62923354D01*
X107572620Y-62973596D01*
X107572627Y-62973598D01*
X107632155Y-62979999D01*
X107632172Y-62980000D01*
X108030000Y-62980000D01*
X108530000Y-62980000D01*
X108927828Y-62980000D01*
X108927844Y-62979999D01*
X108987371Y-62973598D01*
X109061666Y-62945888D01*
X109131358Y-62940904D01*
X109148334Y-62945888D01*
X109222628Y-62973598D01*
X109222627Y-62973598D01*
X109282155Y-62979999D01*
X109282172Y-62980000D01*
X109680000Y-62980000D01*
X110180000Y-62980000D01*
X110577828Y-62980000D01*
X110577844Y-62979999D01*
X110637371Y-62973598D01*
X110711666Y-62945888D01*
X110781358Y-62940904D01*
X110798334Y-62945888D01*
X110872628Y-62973598D01*
X110872627Y-62973598D01*
X110932155Y-62979999D01*
X110932172Y-62980000D01*
X111330000Y-62980000D01*
X111830000Y-62980000D01*
X112227828Y-62980000D01*
X112227844Y-62979999D01*
X112287372Y-62973598D01*
X112287379Y-62973596D01*
X112422086Y-62923354D01*
X112422093Y-62923350D01*
X112537187Y-62837190D01*
X112537190Y-62837187D01*
X112623350Y-62722093D01*
X112623354Y-62722086D01*
X112673596Y-62587379D01*
X112673598Y-62587372D01*
X112679999Y-62527844D01*
X112680000Y-62527827D01*
X112680000Y-62130000D01*
X111830000Y-62130000D01*
X111830000Y-62980000D01*
X111330000Y-62980000D01*
X111330000Y-62130000D01*
X110180000Y-62130000D01*
X110180000Y-62980000D01*
X109680000Y-62980000D01*
X109680000Y-62130000D01*
X108530000Y-62130000D01*
X108530000Y-62980000D01*
X108030000Y-62980000D01*
X108030000Y-62130000D01*
X107180000Y-62130000D01*
X107180000Y-62527844D01*
X103830038Y-62527844D01*
X103830036Y-62527827D01*
X103824091Y-62472517D01*
X103796421Y-62398332D01*
X103791438Y-62328642D01*
X103796422Y-62311667D01*
X103824091Y-62237483D01*
X103830500Y-62177873D01*
X103830499Y-61682128D01*
X103824091Y-61622517D01*
X103796421Y-61548332D01*
X103791438Y-61478642D01*
X103796422Y-61461667D01*
X103824091Y-61387483D01*
X103830500Y-61327873D01*
X103830499Y-60832128D01*
X103824091Y-60772517D01*
X103796421Y-60698332D01*
X103791438Y-60628642D01*
X103796422Y-60611667D01*
X103824091Y-60537483D01*
X103830500Y-60477873D01*
X103830499Y-60104499D01*
X103850183Y-60037461D01*
X103902987Y-59991706D01*
X103954499Y-59980500D01*
X104079903Y-59980500D01*
X104146942Y-60000185D01*
X104167584Y-60016819D01*
X104899298Y-60748533D01*
X104932783Y-60809856D01*
X104934837Y-60822330D01*
X104944630Y-60909249D01*
X105004210Y-61079521D01*
X105062713Y-61172627D01*
X105100184Y-61232262D01*
X105227738Y-61359816D01*
X105318080Y-61416582D01*
X105344026Y-61432885D01*
X105380478Y-61455789D01*
X105446054Y-61478735D01*
X105550745Y-61515368D01*
X105550750Y-61515369D01*
X105729996Y-61535565D01*
X105730000Y-61535565D01*
X105730004Y-61535565D01*
X105909249Y-61515369D01*
X105909252Y-61515368D01*
X105909255Y-61515368D01*
X106079522Y-61455789D01*
X106232262Y-61359816D01*
X106359816Y-61232262D01*
X106455789Y-61079522D01*
X106515368Y-60909255D01*
X106515369Y-60909249D01*
X106518907Y-60877844D01*
X107180000Y-60877844D01*
X107186401Y-60937372D01*
X107186403Y-60937382D01*
X107214110Y-61011668D01*
X107219094Y-61081359D01*
X107214110Y-61098332D01*
X107186403Y-61172617D01*
X107186401Y-61172627D01*
X107180000Y-61232155D01*
X107180000Y-61630000D01*
X108030000Y-61630000D01*
X108530000Y-61630000D01*
X109680000Y-61630000D01*
X110180000Y-61630000D01*
X111330000Y-61630000D01*
X111330000Y-60480000D01*
X110180000Y-60480000D01*
X110180000Y-61630000D01*
X109680000Y-61630000D01*
X109680000Y-60480000D01*
X108530000Y-60480000D01*
X108530000Y-61630000D01*
X108030000Y-61630000D01*
X108030000Y-60480000D01*
X107180000Y-60480000D01*
X107180000Y-60877844D01*
X106518907Y-60877844D01*
X106535565Y-60730003D01*
X106535565Y-60729996D01*
X106515369Y-60550750D01*
X106515368Y-60550745D01*
X106481690Y-60454499D01*
X106455789Y-60380478D01*
X106450890Y-60372682D01*
X106401471Y-60294032D01*
X106359816Y-60227738D01*
X106232262Y-60100184D01*
X106132439Y-60037461D01*
X106079521Y-60004210D01*
X105909249Y-59944630D01*
X105822330Y-59934837D01*
X105757916Y-59907770D01*
X105748533Y-59899298D01*
X105077079Y-59227844D01*
X107180000Y-59227844D01*
X107186401Y-59287372D01*
X107186403Y-59287382D01*
X107214110Y-59361668D01*
X107219094Y-59431359D01*
X107214110Y-59448332D01*
X107186403Y-59522617D01*
X107186401Y-59522627D01*
X107180000Y-59582155D01*
X107180000Y-59980000D01*
X108030000Y-59980000D01*
X108530000Y-59980000D01*
X109680000Y-59980000D01*
X110180000Y-59980000D01*
X111330000Y-59980000D01*
X111330000Y-58830000D01*
X110180000Y-58830000D01*
X110180000Y-59980000D01*
X109680000Y-59980000D01*
X109680000Y-58830000D01*
X108530000Y-58830000D01*
X108530000Y-59980000D01*
X108030000Y-59980000D01*
X108030000Y-58830000D01*
X107180000Y-58830000D01*
X107180000Y-59227844D01*
X105077079Y-59227844D01*
X104867590Y-59018355D01*
X104867588Y-59018352D01*
X104748717Y-58899481D01*
X104748716Y-58899480D01*
X104641334Y-58837483D01*
X104641332Y-58837482D01*
X104611785Y-58820423D01*
X104611784Y-58820422D01*
X104611783Y-58820422D01*
X104555881Y-58805443D01*
X104459057Y-58779499D01*
X104300943Y-58779499D01*
X104293347Y-58779499D01*
X104293331Y-58779500D01*
X103954500Y-58779500D01*
X103887461Y-58759815D01*
X103841706Y-58707011D01*
X103830500Y-58655500D01*
X103830499Y-58282130D01*
X103830498Y-58282123D01*
X103828575Y-58264236D01*
X103824091Y-58222517D01*
X103796421Y-58148332D01*
X103791438Y-58078642D01*
X103796422Y-58061667D01*
X103824091Y-57987483D01*
X103830040Y-57932155D01*
X107180000Y-57932155D01*
X107180000Y-58330000D01*
X108030000Y-58330000D01*
X108530000Y-58330000D01*
X109680000Y-58330000D01*
X110180000Y-58330000D01*
X111330000Y-58330000D01*
X111330000Y-57480000D01*
X110932155Y-57480000D01*
X110872627Y-57486401D01*
X110872617Y-57486403D01*
X110798332Y-57514110D01*
X110728641Y-57519094D01*
X110711668Y-57514110D01*
X110637382Y-57486403D01*
X110637372Y-57486401D01*
X110577844Y-57480000D01*
X110180000Y-57480000D01*
X110180000Y-58330000D01*
X109680000Y-58330000D01*
X109680000Y-57480000D01*
X109282155Y-57480000D01*
X109222627Y-57486401D01*
X109222617Y-57486403D01*
X109148332Y-57514110D01*
X109078641Y-57519094D01*
X109061668Y-57514110D01*
X108987382Y-57486403D01*
X108987372Y-57486401D01*
X108927844Y-57480000D01*
X108530000Y-57480000D01*
X108530000Y-58330000D01*
X108030000Y-58330000D01*
X108030000Y-57480000D01*
X107632155Y-57480000D01*
X107572627Y-57486401D01*
X107572620Y-57486403D01*
X107437913Y-57536645D01*
X107437906Y-57536649D01*
X107322812Y-57622809D01*
X107322809Y-57622812D01*
X107236649Y-57737906D01*
X107236645Y-57737913D01*
X107186403Y-57872620D01*
X107186401Y-57872627D01*
X107180000Y-57932155D01*
X103830040Y-57932155D01*
X103830500Y-57927873D01*
X103830499Y-57554499D01*
X103850183Y-57487461D01*
X103902987Y-57441706D01*
X103954499Y-57430500D01*
X104293331Y-57430500D01*
X104293347Y-57430501D01*
X104300943Y-57430501D01*
X104459054Y-57430501D01*
X104459057Y-57430501D01*
X104611785Y-57389577D01*
X104674090Y-57353605D01*
X104748716Y-57310520D01*
X104860520Y-57198716D01*
X104860520Y-57198714D01*
X104870724Y-57188511D01*
X104870728Y-57188506D01*
X106498535Y-55560698D01*
X106559856Y-55527215D01*
X106572311Y-55525163D01*
X106659255Y-55515368D01*
X106829522Y-55455789D01*
X106982262Y-55359816D01*
X107109816Y-55232262D01*
X107205789Y-55079522D01*
X107265368Y-54909255D01*
X107266074Y-54902989D01*
X107285565Y-54730003D01*
X107285565Y-54729996D01*
X107265369Y-54550750D01*
X107265368Y-54550745D01*
X107205788Y-54380476D01*
X107151794Y-54294545D01*
X107132794Y-54227308D01*
X107153162Y-54160473D01*
X107169108Y-54140891D01*
X107179999Y-54130000D01*
X107580000Y-54130000D01*
X107627828Y-54130000D01*
X107627844Y-54129999D01*
X107687371Y-54123598D01*
X107761666Y-54095888D01*
X107831358Y-54090904D01*
X107848334Y-54095888D01*
X107922628Y-54123598D01*
X107922627Y-54123598D01*
X107982155Y-54129999D01*
X107982172Y-54130000D01*
X108030000Y-54130000D01*
X108430000Y-54130000D01*
X108477828Y-54130000D01*
X108477844Y-54129999D01*
X108537371Y-54123598D01*
X108611666Y-54095888D01*
X108681358Y-54090904D01*
X108698334Y-54095888D01*
X108772628Y-54123598D01*
X108772627Y-54123598D01*
X108832155Y-54129999D01*
X108832172Y-54130000D01*
X108880000Y-54130000D01*
X109280000Y-54130000D01*
X109327828Y-54130000D01*
X109327844Y-54129999D01*
X109387371Y-54123598D01*
X109461666Y-54095888D01*
X109531358Y-54090904D01*
X109548334Y-54095888D01*
X109622628Y-54123598D01*
X109622627Y-54123598D01*
X109682155Y-54129999D01*
X109682172Y-54130000D01*
X109730000Y-54130000D01*
X110130000Y-54130000D01*
X110177828Y-54130000D01*
X110177844Y-54129999D01*
X110237371Y-54123598D01*
X110311666Y-54095888D01*
X110381358Y-54090904D01*
X110398334Y-54095888D01*
X110472628Y-54123598D01*
X110472627Y-54123598D01*
X110532155Y-54129999D01*
X110532172Y-54130000D01*
X110580000Y-54130000D01*
X110980000Y-54130000D01*
X111027828Y-54130000D01*
X111027844Y-54129999D01*
X111087371Y-54123598D01*
X111161666Y-54095888D01*
X111231358Y-54090904D01*
X111248334Y-54095888D01*
X111322628Y-54123598D01*
X111322627Y-54123598D01*
X111382155Y-54129999D01*
X111382172Y-54130000D01*
X111430000Y-54130000D01*
X111830000Y-54130000D01*
X111877828Y-54130000D01*
X111877844Y-54129999D01*
X111937371Y-54123598D01*
X112011666Y-54095888D01*
X112081358Y-54090904D01*
X112098334Y-54095888D01*
X112172628Y-54123598D01*
X112172627Y-54123598D01*
X112232155Y-54129999D01*
X112232172Y-54130000D01*
X112280000Y-54130000D01*
X112680000Y-54130000D01*
X112727828Y-54130000D01*
X112727844Y-54129999D01*
X112787371Y-54123598D01*
X112861666Y-54095888D01*
X112931358Y-54090904D01*
X112948334Y-54095888D01*
X113022628Y-54123598D01*
X113022627Y-54123598D01*
X113082155Y-54129999D01*
X113082172Y-54130000D01*
X113130000Y-54130000D01*
X113530000Y-54130000D01*
X113577828Y-54130000D01*
X113577844Y-54129999D01*
X113637371Y-54123598D01*
X113711666Y-54095888D01*
X113781358Y-54090904D01*
X113798334Y-54095888D01*
X113872628Y-54123598D01*
X113872627Y-54123598D01*
X113932155Y-54129999D01*
X113932172Y-54130000D01*
X113980000Y-54130000D01*
X114380000Y-54130000D01*
X114427828Y-54130000D01*
X114427844Y-54129999D01*
X114487371Y-54123598D01*
X114561666Y-54095888D01*
X114631358Y-54090904D01*
X114648334Y-54095888D01*
X114722628Y-54123598D01*
X114722627Y-54123598D01*
X114782155Y-54129999D01*
X114782172Y-54130000D01*
X114830000Y-54130000D01*
X115230000Y-54130000D01*
X115277828Y-54130000D01*
X115277844Y-54129999D01*
X115337371Y-54123598D01*
X115411666Y-54095888D01*
X115481358Y-54090904D01*
X115498334Y-54095888D01*
X115572628Y-54123598D01*
X115572627Y-54123598D01*
X115632155Y-54129999D01*
X115632172Y-54130000D01*
X115680000Y-54130000D01*
X115680000Y-53430000D01*
X115230000Y-53430000D01*
X115230000Y-54130000D01*
X114830000Y-54130000D01*
X114830000Y-53430000D01*
X114380000Y-53430000D01*
X114380000Y-54130000D01*
X113980000Y-54130000D01*
X113980000Y-53430000D01*
X113530000Y-53430000D01*
X113530000Y-54130000D01*
X113130000Y-54130000D01*
X113130000Y-53430000D01*
X112680000Y-53430000D01*
X112680000Y-54130000D01*
X112280000Y-54130000D01*
X112280000Y-53430000D01*
X111830000Y-53430000D01*
X111830000Y-54130000D01*
X111430000Y-54130000D01*
X111430000Y-53430000D01*
X110980000Y-53430000D01*
X110980000Y-54130000D01*
X110580000Y-54130000D01*
X110580000Y-53430000D01*
X110130000Y-53430000D01*
X110130000Y-54130000D01*
X109730000Y-54130000D01*
X109730000Y-53430000D01*
X109280000Y-53430000D01*
X109280000Y-54130000D01*
X108880000Y-54130000D01*
X108880000Y-53430000D01*
X108430000Y-53430000D01*
X108430000Y-54130000D01*
X108030000Y-54130000D01*
X108030000Y-53430000D01*
X107580000Y-53430000D01*
X107580000Y-54130000D01*
X107179999Y-54130000D01*
X107180000Y-54129999D01*
X107180000Y-53430000D01*
X105880000Y-53430000D01*
X105880000Y-54146959D01*
X105860315Y-54213998D01*
X105852954Y-54224263D01*
X105850187Y-54227732D01*
X105754210Y-54380478D01*
X105694630Y-54550750D01*
X105684837Y-54637668D01*
X105657770Y-54702082D01*
X105649298Y-54711465D01*
X104167584Y-56193181D01*
X104106261Y-56226666D01*
X104079903Y-56229500D01*
X103954500Y-56229500D01*
X103887461Y-56209815D01*
X103841706Y-56157011D01*
X103830500Y-56105500D01*
X103830499Y-55732130D01*
X103830498Y-55732123D01*
X103824091Y-55672518D01*
X103817220Y-55654096D01*
X103796154Y-55597616D01*
X103791171Y-55527927D01*
X103796156Y-55510950D01*
X103823597Y-55437379D01*
X103823597Y-55437377D01*
X103829999Y-55377844D01*
X103830000Y-55377827D01*
X103830000Y-55330000D01*
X103578069Y-55330000D01*
X103534736Y-55322182D01*
X103437482Y-55285908D01*
X103437483Y-55285908D01*
X103377883Y-55279501D01*
X103377881Y-55279500D01*
X103377873Y-55279500D01*
X103377865Y-55279500D01*
X101905494Y-55279500D01*
X101839523Y-55260494D01*
X101829525Y-55254212D01*
X101659254Y-55194631D01*
X101659249Y-55194630D01*
X101480004Y-55174435D01*
X101479996Y-55174435D01*
X101300750Y-55194630D01*
X101300739Y-55194633D01*
X101265656Y-55206909D01*
X101195878Y-55210470D01*
X101135251Y-55175741D01*
X101103024Y-55113747D01*
X101109430Y-55044171D01*
X101119166Y-55024768D01*
X101141543Y-54988490D01*
X101141547Y-54988481D01*
X101194855Y-54827606D01*
X101204999Y-54728322D01*
X101205000Y-54728309D01*
X101205000Y-54705000D01*
X99255001Y-54705000D01*
X99255001Y-54728322D01*
X99265144Y-54827607D01*
X99318452Y-54988481D01*
X99318457Y-54988492D01*
X99407424Y-55132728D01*
X99407427Y-55132732D01*
X99416660Y-55141965D01*
X99450145Y-55203288D01*
X99445161Y-55272980D01*
X99416663Y-55317324D01*
X99407033Y-55326953D01*
X99407029Y-55326959D01*
X99318001Y-55471294D01*
X99317996Y-55471305D01*
X99264651Y-55632290D01*
X99254500Y-55731647D01*
X99254500Y-56278337D01*
X99254501Y-56278355D01*
X99264650Y-56377707D01*
X99264651Y-56377710D01*
X99317996Y-56538694D01*
X99318001Y-56538705D01*
X99407029Y-56683040D01*
X99407032Y-56683044D01*
X99493181Y-56769193D01*
X99526666Y-56830516D01*
X99529500Y-56856874D01*
X99529500Y-57214855D01*
X99512233Y-57277975D01*
X99467504Y-57353608D01*
X99467504Y-57353609D01*
X99422357Y-57509002D01*
X99422356Y-57509008D01*
X99419500Y-57545302D01*
X99419500Y-57954697D01*
X99422356Y-57990991D01*
X99422357Y-57990997D01*
X99467504Y-58146390D01*
X99467507Y-58146397D01*
X99479910Y-58167370D01*
X99497093Y-58235094D01*
X99479912Y-58293608D01*
X99467968Y-58313804D01*
X99425496Y-58460000D01*
X99731648Y-58460000D01*
X99794766Y-58477267D01*
X99803605Y-58482494D01*
X99803608Y-58482494D01*
X99803610Y-58482496D01*
X99959002Y-58527642D01*
X99959005Y-58527642D01*
X99959007Y-58527643D01*
X99995310Y-58530500D01*
X99995318Y-58530500D01*
X100464682Y-58530500D01*
X100464690Y-58530500D01*
X100500993Y-58527643D01*
X100500995Y-58527642D01*
X100500997Y-58527642D01*
X100656389Y-58482496D01*
X100656389Y-58482495D01*
X100656395Y-58482494D01*
X100665233Y-58477267D01*
X100728352Y-58460000D01*
X101034504Y-58460000D01*
X100992031Y-58313803D01*
X100980090Y-58293613D01*
X100962906Y-58225889D01*
X100980089Y-58167369D01*
X100992494Y-58146395D01*
X101037643Y-57990993D01*
X101040500Y-57954690D01*
X101040500Y-57545310D01*
X101037643Y-57509007D01*
X101031383Y-57487461D01*
X101001229Y-57383671D01*
X100992494Y-57353605D01*
X100947767Y-57277975D01*
X100930500Y-57214855D01*
X100930500Y-56856874D01*
X100950185Y-56789835D01*
X100966812Y-56769199D01*
X101001118Y-56734893D01*
X101062437Y-56701410D01*
X101129752Y-56705535D01*
X101300737Y-56765366D01*
X101300743Y-56765367D01*
X101300745Y-56765368D01*
X101300746Y-56765368D01*
X101300750Y-56765369D01*
X101479996Y-56785565D01*
X101480000Y-56785565D01*
X101480004Y-56785565D01*
X101659249Y-56765369D01*
X101659252Y-56765368D01*
X101659255Y-56765368D01*
X101829522Y-56705789D01*
X101830488Y-56705181D01*
X101839523Y-56699506D01*
X101905494Y-56680500D01*
X101905500Y-56680500D01*
X101972539Y-56700185D01*
X102018294Y-56752989D01*
X102029500Y-56804500D01*
X102029500Y-57077869D01*
X102029501Y-57077876D01*
X102035908Y-57137483D01*
X102063577Y-57211667D01*
X102068561Y-57281358D01*
X102063577Y-57298331D01*
X102035910Y-57372511D01*
X102035909Y-57372515D01*
X102035909Y-57372517D01*
X102029500Y-57432127D01*
X102029500Y-57432134D01*
X102029500Y-57432135D01*
X102029500Y-57927870D01*
X102029501Y-57927876D01*
X102035908Y-57987483D01*
X102063577Y-58061667D01*
X102068561Y-58131358D01*
X102063577Y-58148331D01*
X102035910Y-58222511D01*
X102035909Y-58222515D01*
X102035909Y-58222517D01*
X102029500Y-58282127D01*
X102029500Y-58282134D01*
X102029500Y-58282135D01*
X102029500Y-58777870D01*
X102029501Y-58777876D01*
X102035908Y-58837483D01*
X102063577Y-58911667D01*
X102068561Y-58981358D01*
X102063577Y-58998331D01*
X102035910Y-59072511D01*
X102035909Y-59072515D01*
X102035909Y-59072517D01*
X102029500Y-59132127D01*
X102029500Y-59132134D01*
X102029500Y-59132135D01*
X102029500Y-59627870D01*
X102029501Y-59627876D01*
X102035908Y-59687483D01*
X102063577Y-59761667D01*
X102068561Y-59831358D01*
X102063577Y-59848331D01*
X102035910Y-59922511D01*
X102035909Y-59922515D01*
X102035909Y-59922517D01*
X102029500Y-59982127D01*
X102029500Y-59982134D01*
X102029500Y-59982135D01*
X102029500Y-60477870D01*
X102029501Y-60477876D01*
X102035908Y-60537483D01*
X102063577Y-60611667D01*
X102068561Y-60681358D01*
X102063577Y-60698331D01*
X102035910Y-60772511D01*
X102035909Y-60772515D01*
X102035909Y-60772517D01*
X102029500Y-60832127D01*
X102029500Y-60832134D01*
X102029500Y-60832135D01*
X102029500Y-61327870D01*
X102029501Y-61327876D01*
X102035908Y-61387483D01*
X102063577Y-61461667D01*
X102068561Y-61531358D01*
X102063577Y-61548331D01*
X102035910Y-61622511D01*
X102035909Y-61622515D01*
X102035909Y-61622517D01*
X102029500Y-61682127D01*
X102029500Y-61682134D01*
X102029500Y-61682135D01*
X102029500Y-62177870D01*
X102029501Y-62177876D01*
X102035908Y-62237483D01*
X102063577Y-62311667D01*
X102068561Y-62381358D01*
X102063577Y-62398331D01*
X102035910Y-62472511D01*
X102035909Y-62472515D01*
X102035909Y-62472517D01*
X102029500Y-62532127D01*
X102029500Y-62779008D01*
X102029501Y-62905500D01*
X102009817Y-62972539D01*
X101957013Y-63018294D01*
X101905501Y-63029500D01*
X101424500Y-63029500D01*
X101357461Y-63009815D01*
X101311706Y-62957011D01*
X101300500Y-62905500D01*
X101300499Y-62520830D01*
X101300498Y-62520808D01*
X101298820Y-62499478D01*
X101297665Y-62484796D01*
X101252869Y-62330607D01*
X101192032Y-62227738D01*
X101174850Y-62160015D01*
X101193772Y-62098645D01*
X101205789Y-62079522D01*
X101247506Y-61960300D01*
X101265366Y-61909262D01*
X101265369Y-61909249D01*
X101285565Y-61730003D01*
X101285565Y-61729996D01*
X101265369Y-61550750D01*
X101265368Y-61550745D01*
X101245694Y-61494519D01*
X101205789Y-61380478D01*
X101199306Y-61370161D01*
X101133461Y-61265369D01*
X101109816Y-61227738D01*
X100982262Y-61100184D01*
X100979315Y-61098332D01*
X100829523Y-61004211D01*
X100659254Y-60944631D01*
X100659249Y-60944630D01*
X100480004Y-60924435D01*
X100479996Y-60924435D01*
X100300750Y-60944630D01*
X100300745Y-60944631D01*
X100130476Y-61004211D01*
X99977737Y-61100184D01*
X99850184Y-61227737D01*
X99754209Y-61380480D01*
X99721541Y-61473840D01*
X99680820Y-61530616D01*
X99615867Y-61556363D01*
X99547305Y-61542907D01*
X99496903Y-61494519D01*
X99480500Y-61432885D01*
X99480500Y-60372683D01*
X99480500Y-60372682D01*
X99459062Y-60223584D01*
X99449955Y-60160235D01*
X99449952Y-60160225D01*
X99432323Y-60100184D01*
X99389484Y-59954290D01*
X99389483Y-59954288D01*
X99389482Y-59954284D01*
X99300327Y-59759061D01*
X99300320Y-59759048D01*
X99216021Y-59627876D01*
X99184281Y-59578487D01*
X99106557Y-59488789D01*
X99043724Y-59416275D01*
X98881514Y-59275720D01*
X98881513Y-59275719D01*
X98807018Y-59227844D01*
X98700951Y-59159679D01*
X98700938Y-59159672D01*
X98505715Y-59070517D01*
X98299777Y-59010048D01*
X98299769Y-59010046D01*
X98294219Y-59009248D01*
X98230665Y-58980219D01*
X98230430Y-58980000D01*
X98230000Y-58980000D01*
X98098735Y-58980000D01*
X98089887Y-58979684D01*
X98087320Y-58979500D01*
X98087318Y-58979500D01*
X98045892Y-58979500D01*
X94295892Y-58979500D01*
X94230000Y-58979500D01*
X94137290Y-58979500D01*
X94136979Y-58979500D01*
X94126163Y-58980000D01*
X91854500Y-58980000D01*
X91787461Y-58960315D01*
X91787188Y-58960000D01*
X99425496Y-58960000D01*
X99467968Y-59106195D01*
X99550278Y-59245374D01*
X99550285Y-59245383D01*
X99664616Y-59359714D01*
X99664625Y-59359721D01*
X99803804Y-59442031D01*
X99959089Y-59487145D01*
X99980000Y-59488789D01*
X100480000Y-59488789D01*
X100500910Y-59487145D01*
X100656195Y-59442031D01*
X100795374Y-59359721D01*
X100795383Y-59359714D01*
X100909714Y-59245383D01*
X100909721Y-59245374D01*
X100992031Y-59106195D01*
X101034504Y-58960000D01*
X100480000Y-58960000D01*
X100480000Y-59488789D01*
X99980000Y-59488789D01*
X99980000Y-58960000D01*
X99425496Y-58960000D01*
X91787188Y-58960000D01*
X91741706Y-58907511D01*
X91730500Y-58856000D01*
X91730500Y-54527844D01*
X102030000Y-54527844D01*
X102036401Y-54587372D01*
X102036403Y-54587382D01*
X102064110Y-54661668D01*
X102069094Y-54731359D01*
X102064110Y-54748332D01*
X102036403Y-54822617D01*
X102036401Y-54822627D01*
X102030000Y-54882155D01*
X102030000Y-54930000D01*
X102730000Y-54930000D01*
X103130000Y-54930000D01*
X103830000Y-54930000D01*
X103830000Y-54882172D01*
X103829999Y-54882155D01*
X103823598Y-54822628D01*
X103795888Y-54748334D01*
X103790904Y-54678642D01*
X103795888Y-54661666D01*
X103823598Y-54587371D01*
X103829999Y-54527844D01*
X103830000Y-54527827D01*
X103830000Y-54480000D01*
X103130000Y-54480000D01*
X103130000Y-54930000D01*
X102730000Y-54930000D01*
X102730000Y-54480000D01*
X102030000Y-54480000D01*
X102030000Y-54527844D01*
X91730500Y-54527844D01*
X91730500Y-54181677D01*
X99255000Y-54181677D01*
X99255000Y-54205000D01*
X99980000Y-54205000D01*
X100480000Y-54205000D01*
X101204999Y-54205000D01*
X101204999Y-54181692D01*
X101204998Y-54181677D01*
X101199719Y-54130000D01*
X104180000Y-54130000D01*
X104227828Y-54130000D01*
X104227844Y-54129999D01*
X104287371Y-54123598D01*
X104361666Y-54095888D01*
X104431358Y-54090904D01*
X104448334Y-54095888D01*
X104522628Y-54123598D01*
X104522627Y-54123598D01*
X104582155Y-54129999D01*
X104582172Y-54130000D01*
X104630000Y-54130000D01*
X105030000Y-54130000D01*
X105077828Y-54130000D01*
X105077844Y-54129999D01*
X105137371Y-54123598D01*
X105211666Y-54095888D01*
X105281358Y-54090904D01*
X105298334Y-54095888D01*
X105372628Y-54123598D01*
X105372627Y-54123598D01*
X105432155Y-54129999D01*
X105432172Y-54130000D01*
X105480000Y-54130000D01*
X105480000Y-53430000D01*
X105030000Y-53430000D01*
X105030000Y-54130000D01*
X104630000Y-54130000D01*
X104630000Y-53430000D01*
X104180000Y-53430000D01*
X104180000Y-54130000D01*
X101199719Y-54130000D01*
X101194855Y-54082392D01*
X101141547Y-53921518D01*
X101141542Y-53921507D01*
X101052575Y-53777271D01*
X101052572Y-53777267D01*
X100953149Y-53677844D01*
X102030000Y-53677844D01*
X102036401Y-53737372D01*
X102036403Y-53737382D01*
X102064110Y-53811668D01*
X102069094Y-53881359D01*
X102064110Y-53898332D01*
X102036403Y-53972617D01*
X102036401Y-53972627D01*
X102030000Y-54032155D01*
X102030000Y-54080000D01*
X102680000Y-54080000D01*
X103180000Y-54080000D01*
X103780000Y-54080000D01*
X103780000Y-53480000D01*
X103180000Y-53480000D01*
X103180000Y-54080000D01*
X102680000Y-54080000D01*
X102680000Y-53480000D01*
X102030000Y-53480000D01*
X102030000Y-53677844D01*
X100953149Y-53677844D01*
X100932732Y-53657427D01*
X100932728Y-53657424D01*
X100788492Y-53568457D01*
X100788481Y-53568452D01*
X100627606Y-53515144D01*
X100528322Y-53505000D01*
X100480000Y-53505000D01*
X100480000Y-54205000D01*
X99980000Y-54205000D01*
X99980000Y-53505000D01*
X99979999Y-53504999D01*
X99931693Y-53505000D01*
X99931675Y-53505001D01*
X99832392Y-53515144D01*
X99671518Y-53568452D01*
X99671507Y-53568457D01*
X99527271Y-53657424D01*
X99527267Y-53657427D01*
X99407427Y-53777267D01*
X99407424Y-53777271D01*
X99318457Y-53921507D01*
X99318452Y-53921518D01*
X99265144Y-54082393D01*
X99255000Y-54181677D01*
X91730500Y-54181677D01*
X91730500Y-52604000D01*
X91750185Y-52536961D01*
X91802989Y-52491206D01*
X91854500Y-52480000D01*
X101948302Y-52480000D01*
X102015341Y-52499685D01*
G37*
%TD.AperFunction*%
%TA.AperFunction,Conductor*%
G36*
X121822539Y-63249685D02*
G01*
X121868294Y-63302489D01*
X121879500Y-63354000D01*
X121879500Y-65361702D01*
X121859815Y-65428741D01*
X121843181Y-65449383D01*
X121495867Y-65796696D01*
X121434544Y-65830181D01*
X121364852Y-65825197D01*
X121308919Y-65783325D01*
X121284502Y-65717861D01*
X121299354Y-65649588D01*
X121305076Y-65640136D01*
X121370775Y-65541811D01*
X121423580Y-65414328D01*
X121438302Y-65340315D01*
X121450500Y-65278996D01*
X121450500Y-64103596D01*
X121460000Y-64071242D01*
X121460000Y-63728352D01*
X121477269Y-63665229D01*
X121482494Y-63656395D01*
X121527643Y-63500993D01*
X121530500Y-63464690D01*
X121530500Y-63354000D01*
X121550185Y-63286961D01*
X121602989Y-63241206D01*
X121654500Y-63230000D01*
X121755500Y-63230000D01*
X121822539Y-63249685D01*
G37*
%TD.AperFunction*%
%TA.AperFunction,Conductor*%
G36*
X123685703Y-64261095D02*
G01*
X123692182Y-64267128D01*
X123723129Y-64298076D01*
X123723133Y-64298079D01*
X123723135Y-64298081D01*
X123864602Y-64381744D01*
X123906224Y-64393836D01*
X124022426Y-64427597D01*
X124022429Y-64427597D01*
X124022431Y-64427598D01*
X124059306Y-64430500D01*
X124059314Y-64430500D01*
X124676000Y-64430500D01*
X124743039Y-64450185D01*
X124788794Y-64502989D01*
X124800000Y-64554500D01*
X124800000Y-65236000D01*
X124795889Y-65250000D01*
X124535504Y-65250000D01*
X124459204Y-65270444D01*
X124390795Y-65309940D01*
X124359634Y-65341100D01*
X124356961Y-65340315D01*
X124311206Y-65287511D01*
X124300000Y-65236000D01*
X124300000Y-64680000D01*
X123604500Y-64680000D01*
X123537461Y-64660315D01*
X123491706Y-64607511D01*
X123480500Y-64556000D01*
X123480500Y-64354808D01*
X123500185Y-64287769D01*
X123552989Y-64242014D01*
X123622147Y-64232070D01*
X123685703Y-64261095D01*
G37*
%TD.AperFunction*%
%TA.AperFunction,Conductor*%
G36*
X124493039Y-57799685D02*
G01*
X124538794Y-57852489D01*
X124550000Y-57904000D01*
X124550000Y-57905500D01*
X124530315Y-57972539D01*
X124477511Y-58018294D01*
X124426000Y-58029500D01*
X124071518Y-58029500D01*
X124004479Y-58009815D01*
X123983837Y-57993181D01*
X123982337Y-57991681D01*
X123948852Y-57930358D01*
X123953836Y-57860666D01*
X123995708Y-57804733D01*
X124061172Y-57780316D01*
X124070018Y-57780000D01*
X124426000Y-57780000D01*
X124493039Y-57799685D01*
G37*
%TD.AperFunction*%
%TA.AperFunction,Conductor*%
G36*
X117073039Y-55999685D02*
G01*
X117118794Y-56052489D01*
X117130000Y-56104000D01*
X117130000Y-56630000D01*
X117830000Y-56630000D01*
X117830000Y-56582172D01*
X117829999Y-56582155D01*
X117823598Y-56522628D01*
X117795888Y-56448334D01*
X117790904Y-56378642D01*
X117795888Y-56361667D01*
X117814622Y-56311438D01*
X117856493Y-56255504D01*
X117921957Y-56231087D01*
X117971759Y-56237730D01*
X118050737Y-56265366D01*
X118050743Y-56265367D01*
X118050745Y-56265368D01*
X118050746Y-56265368D01*
X118050750Y-56265369D01*
X118229996Y-56285565D01*
X118230000Y-56285565D01*
X118230004Y-56285565D01*
X118391617Y-56267356D01*
X118460439Y-56279411D01*
X118511818Y-56326760D01*
X118529500Y-56390576D01*
X118529500Y-56638480D01*
X118509815Y-56705519D01*
X118493181Y-56726161D01*
X118280709Y-56938632D01*
X118233984Y-56967992D01*
X118130476Y-57004211D01*
X118130470Y-57004214D01*
X118013838Y-57077499D01*
X117946602Y-57096499D01*
X117879767Y-57076131D01*
X117860186Y-57060186D01*
X117830000Y-57030000D01*
X117578069Y-57030000D01*
X117534736Y-57022182D01*
X117437482Y-56985908D01*
X117437483Y-56985908D01*
X117377883Y-56979501D01*
X117377881Y-56979500D01*
X117377873Y-56979500D01*
X117377865Y-56979500D01*
X116482129Y-56979500D01*
X116482123Y-56979501D01*
X116422516Y-56985908D01*
X116325264Y-57022182D01*
X116281931Y-57030000D01*
X116030000Y-57030000D01*
X116016819Y-57043181D01*
X115955496Y-57076666D01*
X115929138Y-57079500D01*
X115779096Y-57079500D01*
X115712057Y-57059815D01*
X115666302Y-57007011D01*
X115656358Y-56937853D01*
X115685383Y-56874297D01*
X115691403Y-56867831D01*
X115892916Y-56666318D01*
X115954238Y-56632834D01*
X115980596Y-56630000D01*
X116730000Y-56630000D01*
X116730000Y-56104000D01*
X116749685Y-56036961D01*
X116802489Y-55991206D01*
X116854000Y-55980000D01*
X117006000Y-55980000D01*
X117073039Y-55999685D01*
G37*
%TD.AperFunction*%
%TD*%
M02*
