%TF.GenerationSoftware,KiCad,Pcbnew,8.0.7*%
%TF.CreationDate,2025-10-25T23:35:46+02:00*%
%TF.ProjectId,VOCaware,564f4361-7761-4726-952e-6b696361645f,v1.0*%
%TF.SameCoordinates,Original*%
%TF.FileFunction,Legend,Top*%
%TF.FilePolarity,Positive*%
%FSLAX46Y46*%
G04 Gerber Fmt 4.6, Leading zero omitted, Abs format (unit mm)*
G04 Created by KiCad (PCBNEW 8.0.7) date 2025-10-25 23:35:46*
%MOMM*%
%LPD*%
G01*
G04 APERTURE LIST*
G04 Aperture macros list*
%AMRoundRect*
0 Rectangle with rounded corners*
0 $1 Rounding radius*
0 $2 $3 $4 $5 $6 $7 $8 $9 X,Y pos of 4 corners*
0 Add a 4 corners polygon primitive as box body*
4,1,4,$2,$3,$4,$5,$6,$7,$8,$9,$2,$3,0*
0 Add four circle primitives for the rounded corners*
1,1,$1+$1,$2,$3*
1,1,$1+$1,$4,$5*
1,1,$1+$1,$6,$7*
1,1,$1+$1,$8,$9*
0 Add four rect primitives between the rounded corners*
20,1,$1+$1,$2,$3,$4,$5,0*
20,1,$1+$1,$4,$5,$6,$7,0*
20,1,$1+$1,$6,$7,$8,$9,0*
20,1,$1+$1,$8,$9,$2,$3,0*%
G04 Aperture macros list end*
%ADD10C,0.100000*%
%ADD11C,0.250000*%
%ADD12C,0.280000*%
%ADD13C,0.150000*%
%ADD14C,0.120000*%
%ADD15C,0.000000*%
%ADD16C,0.200000*%
%ADD17RoundRect,0.140000X-0.170000X0.140000X-0.170000X-0.140000X0.170000X-0.140000X0.170000X0.140000X0*%
%ADD18RoundRect,0.140000X0.140000X0.170000X-0.140000X0.170000X-0.140000X-0.170000X0.140000X-0.170000X0*%
%ADD19R,1.000000X1.500000*%
%ADD20RoundRect,0.135000X0.185000X-0.135000X0.185000X0.135000X-0.185000X0.135000X-0.185000X-0.135000X0*%
%ADD21RoundRect,0.140000X-0.140000X-0.170000X0.140000X-0.170000X0.140000X0.170000X-0.140000X0.170000X0*%
%ADD22RoundRect,0.135000X0.135000X0.185000X-0.135000X0.185000X-0.135000X-0.185000X0.135000X-0.185000X0*%
%ADD23RoundRect,0.150000X0.587500X0.150000X-0.587500X0.150000X-0.587500X-0.150000X0.587500X-0.150000X0*%
%ADD24R,0.750000X0.450000*%
%ADD25R,1.350000X1.740000*%
%ADD26RoundRect,0.225000X0.250000X-0.225000X0.250000X0.225000X-0.250000X0.225000X-0.250000X-0.225000X0*%
%ADD27RoundRect,0.135000X-0.185000X0.135000X-0.185000X-0.135000X0.185000X-0.135000X0.185000X0.135000X0*%
%ADD28C,3.200000*%
%ADD29C,0.650000*%
%ADD30RoundRect,0.150000X0.425000X-0.150000X0.425000X0.150000X-0.425000X0.150000X-0.425000X-0.150000X0*%
%ADD31RoundRect,0.075000X0.500000X-0.075000X0.500000X0.075000X-0.500000X0.075000X-0.500000X-0.075000X0*%
%ADD32O,2.100000X1.000000*%
%ADD33O,1.800000X1.000000*%
%ADD34R,1.150000X0.600000*%
%ADD35R,0.950000X1.400000*%
%ADD36R,1.150000X0.750000*%
%ADD37RoundRect,0.140000X0.170000X-0.140000X0.170000X0.140000X-0.170000X0.140000X-0.170000X-0.140000X0*%
%ADD38R,0.800000X0.400000*%
%ADD39R,0.400000X0.800000*%
%ADD40R,1.200000X1.200000*%
%ADD41R,0.800000X0.800000*%
%ADD42R,0.600000X0.700000*%
%ADD43RoundRect,0.218750X-0.218750X-0.256250X0.218750X-0.256250X0.218750X0.256250X-0.218750X0.256250X0*%
%ADD44R,0.300000X0.500000*%
G04 APERTURE END LIST*
D10*
X98030000Y-72230000D02*
G75*
G02*
X92430000Y-72230000I-2800000J0D01*
G01*
X92430000Y-72230000D02*
G75*
G02*
X98030000Y-72230000I2800000J0D01*
G01*
X93750000Y-48000000D02*
X98750000Y-48000000D01*
X98750000Y-51000000D01*
X93750000Y-51000000D01*
X93750000Y-48000000D01*
X111730000Y-69730000D02*
X112830000Y-69730000D01*
X113230000Y-69730000D02*
X114330000Y-69730000D01*
X114730000Y-69730000D02*
X115830000Y-69730000D01*
X116230000Y-69730000D02*
X117330000Y-69730000D01*
X117730000Y-69730000D02*
X118230000Y-69730000D01*
X118230000Y-69730000D02*
X118230000Y-70830000D01*
X118230000Y-71230000D02*
X118230000Y-72330000D01*
X118230000Y-72730000D02*
X118230000Y-73830000D01*
X118230000Y-74230000D02*
X118230000Y-75330000D01*
X118230000Y-75730000D02*
X118230000Y-75730000D01*
X118230000Y-75730000D02*
X117130000Y-75730000D01*
X116730000Y-75730000D02*
X115630000Y-75730000D01*
X115230000Y-75730000D02*
X114130000Y-75730000D01*
X113730000Y-75730000D02*
X112630000Y-75730000D01*
X112230000Y-75730000D02*
X111730000Y-75730000D01*
X111730000Y-75730000D02*
X111730000Y-74630000D01*
X111730000Y-74230000D02*
X111730000Y-73130000D01*
X111730000Y-72730000D02*
X111730000Y-71630000D01*
X111730000Y-71230000D02*
X111730000Y-70130000D01*
X111730000Y-69730000D02*
X111730000Y-69730000D01*
X130030000Y-50230000D02*
G75*
G02*
X124430000Y-50230000I-2800000J0D01*
G01*
X124430000Y-50230000D02*
G75*
G02*
X130030000Y-50230000I2800000J0D01*
G01*
X91730000Y-60730000D02*
X92830000Y-60730000D01*
X93230000Y-60730000D02*
X94330000Y-60730000D01*
X94730000Y-60730000D02*
X95830000Y-60730000D01*
X96230000Y-60730000D02*
X97330000Y-60730000D01*
X97730000Y-60730000D02*
X97730000Y-60730000D01*
X97730000Y-60730000D02*
X97730000Y-61830000D01*
X97730000Y-62230000D02*
X97730000Y-63330000D01*
X97730000Y-63730000D02*
X97730000Y-64830000D01*
X97730000Y-65230000D02*
X97730000Y-66330000D01*
X97730000Y-66730000D02*
X97730000Y-67230000D01*
X97730000Y-67230000D02*
X96630000Y-67230000D01*
X96230000Y-67230000D02*
X95130000Y-67230000D01*
X94730000Y-67230000D02*
X93630000Y-67230000D01*
X93230000Y-67230000D02*
X92130000Y-67230000D01*
X91730000Y-67230000D02*
X91730000Y-67230000D01*
X91730000Y-67230000D02*
X91730000Y-66130000D01*
X91730000Y-65730000D02*
X91730000Y-64630000D01*
X91730000Y-64230000D02*
X91730000Y-63130000D01*
X91730000Y-62730000D02*
X91730000Y-61630000D01*
X91730000Y-61230000D02*
X91730000Y-60730000D01*
G36*
X94407117Y-49950010D02*
G01*
X94464809Y-49955362D01*
X94503813Y-49961856D01*
X94558250Y-49977043D01*
X94609042Y-50001407D01*
X94618265Y-50007285D01*
X94657889Y-50040726D01*
X94687594Y-50082433D01*
X94690806Y-50088618D01*
X94707886Y-50136797D01*
X94714913Y-50185386D01*
X94715792Y-50212205D01*
X94715792Y-50730000D01*
X94574473Y-50730000D01*
X94574473Y-50645003D01*
X94529353Y-50673231D01*
X94523426Y-50676999D01*
X94476376Y-50702873D01*
X94461095Y-50709483D01*
X94409920Y-50727470D01*
X94379420Y-50735129D01*
X94326057Y-50743323D01*
X94271416Y-50745631D01*
X94216608Y-50741448D01*
X94160087Y-50726744D01*
X94109007Y-50701452D01*
X94077976Y-50678709D01*
X94039663Y-50638010D01*
X94013889Y-50591477D01*
X94000654Y-50539109D01*
X93998719Y-50507494D01*
X93999502Y-50497725D01*
X94145143Y-50497725D01*
X94154765Y-50548368D01*
X94188935Y-50589804D01*
X94240145Y-50611893D01*
X94295734Y-50619827D01*
X94322732Y-50620579D01*
X94377099Y-50617144D01*
X94431819Y-50605671D01*
X94459483Y-50596154D01*
X94508401Y-50574539D01*
X94557710Y-50547745D01*
X94574473Y-50537292D01*
X94574473Y-50339211D01*
X94517833Y-50342315D01*
X94463950Y-50345760D01*
X94421332Y-50348736D01*
X94365218Y-50353795D01*
X94309953Y-50361559D01*
X94281894Y-50367299D01*
X94229602Y-50384580D01*
X94182756Y-50412728D01*
X94152342Y-50454768D01*
X94145143Y-50497725D01*
X93999502Y-50497725D01*
X94002733Y-50457415D01*
X94016422Y-50409711D01*
X94039825Y-50369741D01*
X94075768Y-50333334D01*
X94121533Y-50303246D01*
X94157501Y-50286699D01*
X94208569Y-50269807D01*
X94265724Y-50256684D01*
X94322367Y-50248095D01*
X94342344Y-50245910D01*
X94397455Y-50240873D01*
X94454513Y-50236507D01*
X94513519Y-50232813D01*
X94574473Y-50229790D01*
X94574473Y-50209030D01*
X94568411Y-50160099D01*
X94557278Y-50133070D01*
X94521812Y-50093881D01*
X94508649Y-50085687D01*
X94456561Y-50067185D01*
X94436109Y-50063705D01*
X94381809Y-50058668D01*
X94347718Y-50057843D01*
X94292494Y-50061385D01*
X94235839Y-50071082D01*
X94223056Y-50073963D01*
X94170830Y-50087931D01*
X94117319Y-50106020D01*
X94080931Y-50120369D01*
X94073408Y-50120369D01*
X94073408Y-49984570D01*
X94128043Y-49972791D01*
X94183840Y-49962946D01*
X94193503Y-49961367D01*
X94247337Y-49953997D01*
X94305413Y-49949446D01*
X94348524Y-49948422D01*
X94407117Y-49950010D01*
G37*
G36*
X96038171Y-49964054D02*
G01*
X95818401Y-50730000D01*
X95686755Y-50730000D01*
X95469940Y-50139665D01*
X95254469Y-50730000D01*
X95123897Y-50730000D01*
X94901709Y-49964054D01*
X95049745Y-49964054D01*
X95204766Y-50557320D01*
X95415669Y-49964054D01*
X95532540Y-49964054D01*
X95748817Y-50557320D01*
X95895240Y-49964054D01*
X96038171Y-49964054D01*
G37*
G36*
X96568275Y-49950010D02*
G01*
X96625967Y-49955362D01*
X96664972Y-49961856D01*
X96719408Y-49977043D01*
X96770200Y-50001407D01*
X96779424Y-50007285D01*
X96819047Y-50040726D01*
X96848752Y-50082433D01*
X96851964Y-50088618D01*
X96869044Y-50136797D01*
X96876072Y-50185386D01*
X96876950Y-50212205D01*
X96876950Y-50730000D01*
X96735631Y-50730000D01*
X96735631Y-50645003D01*
X96690511Y-50673231D01*
X96684584Y-50676999D01*
X96637534Y-50702873D01*
X96622254Y-50709483D01*
X96571079Y-50727470D01*
X96540579Y-50735129D01*
X96487216Y-50743323D01*
X96432575Y-50745631D01*
X96377766Y-50741448D01*
X96321246Y-50726744D01*
X96270165Y-50701452D01*
X96239134Y-50678709D01*
X96200822Y-50638010D01*
X96175048Y-50591477D01*
X96161812Y-50539109D01*
X96159877Y-50507494D01*
X96160660Y-50497725D01*
X96306301Y-50497725D01*
X96315923Y-50548368D01*
X96350094Y-50589804D01*
X96401303Y-50611893D01*
X96456892Y-50619827D01*
X96483890Y-50620579D01*
X96538257Y-50617144D01*
X96592977Y-50605671D01*
X96620642Y-50596154D01*
X96669559Y-50574539D01*
X96718868Y-50547745D01*
X96735631Y-50537292D01*
X96735631Y-50339211D01*
X96678991Y-50342315D01*
X96625108Y-50345760D01*
X96582491Y-50348736D01*
X96526377Y-50353795D01*
X96471111Y-50361559D01*
X96443053Y-50367299D01*
X96390761Y-50384580D01*
X96343914Y-50412728D01*
X96313500Y-50454768D01*
X96306301Y-50497725D01*
X96160660Y-50497725D01*
X96163892Y-50457415D01*
X96177580Y-50409711D01*
X96200983Y-50369741D01*
X96236926Y-50333334D01*
X96282692Y-50303246D01*
X96318660Y-50286699D01*
X96369727Y-50269807D01*
X96426882Y-50256684D01*
X96483526Y-50248095D01*
X96503503Y-50245910D01*
X96558613Y-50240873D01*
X96615671Y-50236507D01*
X96674677Y-50232813D01*
X96735631Y-50229790D01*
X96735631Y-50209030D01*
X96729569Y-50160099D01*
X96718436Y-50133070D01*
X96682970Y-50093881D01*
X96669808Y-50085687D01*
X96617720Y-50067185D01*
X96597267Y-50063705D01*
X96542967Y-50058668D01*
X96508876Y-50057843D01*
X96453652Y-50061385D01*
X96396997Y-50071082D01*
X96384214Y-50073963D01*
X96331988Y-50087931D01*
X96278477Y-50106020D01*
X96242090Y-50120369D01*
X96234567Y-50120369D01*
X96234567Y-49984570D01*
X96289201Y-49972791D01*
X96344998Y-49962946D01*
X96354661Y-49961367D01*
X96408495Y-49953997D01*
X96466571Y-49949446D01*
X96509682Y-49948422D01*
X96568275Y-49950010D01*
G37*
G36*
X97671936Y-50104738D02*
G01*
X97664413Y-50104738D01*
X97610168Y-50093758D01*
X97602620Y-50092770D01*
X97547065Y-50089235D01*
X97532229Y-50089106D01*
X97475508Y-50094202D01*
X97420535Y-50109489D01*
X97405150Y-50115729D01*
X97356133Y-50139741D01*
X97308624Y-50168913D01*
X97287205Y-50184117D01*
X97287205Y-50730000D01*
X97145080Y-50730000D01*
X97145080Y-49964054D01*
X97287205Y-49964054D01*
X97287205Y-50077138D01*
X97333215Y-50045239D01*
X97380599Y-50016502D01*
X97428176Y-49993046D01*
X97436315Y-49989699D01*
X97489367Y-49973095D01*
X97543305Y-49964956D01*
X97568499Y-49964054D01*
X97621964Y-49965764D01*
X97671936Y-49972358D01*
X97671936Y-50104738D01*
G37*
G36*
X98213632Y-49951522D02*
G01*
X98269435Y-49960822D01*
X98327567Y-49979506D01*
X98378191Y-50006629D01*
X98415607Y-50036594D01*
X98451723Y-50078615D01*
X98478969Y-50127742D01*
X98495262Y-50175507D01*
X98505038Y-50228493D01*
X98508297Y-50286699D01*
X98508297Y-50354842D01*
X97886332Y-50354842D01*
X97889619Y-50406454D01*
X97900599Y-50456475D01*
X97909706Y-50480872D01*
X97935457Y-50526832D01*
X97971383Y-50566628D01*
X97973918Y-50568799D01*
X98017039Y-50598292D01*
X98067414Y-50619357D01*
X98120461Y-50631454D01*
X98174340Y-50636062D01*
X98186434Y-50636210D01*
X98240298Y-50633133D01*
X98294425Y-50623903D01*
X98348814Y-50608518D01*
X98359724Y-50604703D01*
X98409391Y-50584977D01*
X98459287Y-50559691D01*
X98484117Y-50542421D01*
X98491639Y-50542421D01*
X98491639Y-50681639D01*
X98437385Y-50700885D01*
X98382225Y-50717589D01*
X98344947Y-50727313D01*
X98287834Y-50738475D01*
X98233556Y-50744182D01*
X98187777Y-50745631D01*
X98124449Y-50743139D01*
X98065607Y-50735661D01*
X98011252Y-50723198D01*
X97951947Y-50701663D01*
X97899104Y-50672949D01*
X97860003Y-50643538D01*
X97819920Y-50602147D01*
X97788130Y-50554729D01*
X97764634Y-50501282D01*
X97751388Y-50452139D01*
X97743901Y-50398810D01*
X97742058Y-50353133D01*
X97744813Y-50296851D01*
X97750446Y-50261053D01*
X97886332Y-50261053D01*
X98369933Y-50261053D01*
X98365144Y-50209988D01*
X98349654Y-50161407D01*
X98320251Y-50117885D01*
X98313513Y-50111088D01*
X98268606Y-50080774D01*
X98215880Y-50064135D01*
X98158736Y-50058051D01*
X98144790Y-50057843D01*
X98090603Y-50061492D01*
X98036588Y-50074318D01*
X97985195Y-50099400D01*
X97962903Y-50116217D01*
X97926449Y-50155444D01*
X97901382Y-50200157D01*
X97887702Y-50250355D01*
X97886332Y-50261053D01*
X97750446Y-50261053D01*
X97753078Y-50244325D01*
X97766852Y-50195557D01*
X97790654Y-50141993D01*
X97822391Y-50093839D01*
X97854898Y-50057843D01*
X97899817Y-50020657D01*
X97949742Y-49991165D01*
X98004673Y-49969366D01*
X98064610Y-49955261D01*
X98118381Y-49949384D01*
X98152313Y-49948422D01*
X98213632Y-49951522D01*
G37*
D11*
G36*
X127008284Y-54372218D02*
G01*
X127033864Y-54404193D01*
X127075188Y-54507499D01*
X127075188Y-54673642D01*
X127033864Y-54776948D01*
X127001594Y-54817285D01*
X126935767Y-54858428D01*
X126639474Y-54858428D01*
X126639474Y-54322714D01*
X126889473Y-54322714D01*
X127008284Y-54372218D01*
G37*
G36*
X126944452Y-53649571D02*
G01*
X126976720Y-53689906D01*
X127018045Y-53793213D01*
X127018045Y-53887928D01*
X126976720Y-53991235D01*
X126944452Y-54031570D01*
X126878624Y-54072714D01*
X126639474Y-54072714D01*
X126639474Y-53608428D01*
X126878624Y-53608428D01*
X126944452Y-53649571D01*
G37*
G36*
X128201596Y-53649571D02*
G01*
X128283579Y-53752051D01*
X128332331Y-53995807D01*
X128332331Y-54471048D01*
X128283579Y-54714804D01*
X128201594Y-54817285D01*
X128135767Y-54858428D01*
X127978895Y-54858428D01*
X127913067Y-54817285D01*
X127831082Y-54714804D01*
X127782331Y-54471047D01*
X127782331Y-53995808D01*
X127831082Y-53752050D01*
X127913066Y-53649570D01*
X127978895Y-53608428D01*
X128135768Y-53608428D01*
X128201596Y-53649571D01*
G37*
G36*
X129458739Y-53649571D02*
G01*
X129540722Y-53752051D01*
X129589474Y-53995807D01*
X129589474Y-54471048D01*
X129540722Y-54714804D01*
X129458737Y-54817285D01*
X129392910Y-54858428D01*
X129236038Y-54858428D01*
X129170210Y-54817285D01*
X129088225Y-54714804D01*
X129039474Y-54471047D01*
X129039474Y-53995808D01*
X129088225Y-53752050D01*
X129170209Y-53649570D01*
X129236038Y-53608428D01*
X129392911Y-53608428D01*
X129458739Y-53649571D01*
G37*
G36*
X132405684Y-55275095D02*
G01*
X122851836Y-55275095D01*
X122851836Y-54901301D01*
X123018503Y-54901301D01*
X123019691Y-54912000D01*
X123018503Y-54922699D01*
X123022358Y-54936005D01*
X123023889Y-54949776D01*
X123029081Y-54959205D01*
X123032078Y-54969545D01*
X123045436Y-54990087D01*
X123102579Y-55061516D01*
X123104074Y-55063049D01*
X123104558Y-55063927D01*
X123106253Y-55065283D01*
X123119688Y-55079057D01*
X123125804Y-55082425D01*
X123130741Y-55087362D01*
X123137191Y-55090034D01*
X123142642Y-55094394D01*
X123152977Y-55097388D01*
X123162411Y-55102584D01*
X123169352Y-55103355D01*
X123175801Y-55106026D01*
X123182783Y-55106026D01*
X123189488Y-55107969D01*
X123200186Y-55106780D01*
X123210887Y-55107969D01*
X123217592Y-55106026D01*
X123224573Y-55106026D01*
X123231023Y-55103353D01*
X123237963Y-55102583D01*
X123247390Y-55097391D01*
X123257732Y-55094395D01*
X123263184Y-55090033D01*
X123269633Y-55087362D01*
X123274570Y-55082424D01*
X123280686Y-55079057D01*
X123294116Y-55065286D01*
X123295816Y-55063927D01*
X123296300Y-55063047D01*
X123297795Y-55061515D01*
X123354938Y-54990087D01*
X123368297Y-54969545D01*
X123371292Y-54959205D01*
X123376485Y-54949777D01*
X123378015Y-54936005D01*
X123381871Y-54922699D01*
X123380682Y-54912003D01*
X123381872Y-54901302D01*
X123378015Y-54887994D01*
X123376486Y-54874224D01*
X123371292Y-54864792D01*
X123368297Y-54854456D01*
X123354939Y-54833914D01*
X123297796Y-54762484D01*
X123296300Y-54760950D01*
X123295816Y-54760071D01*
X123294114Y-54758710D01*
X123280686Y-54744943D01*
X123274572Y-54741576D01*
X123269633Y-54736637D01*
X123263182Y-54733965D01*
X123257731Y-54729604D01*
X123247390Y-54726607D01*
X123237963Y-54721416D01*
X123231023Y-54720645D01*
X123224573Y-54717973D01*
X123217594Y-54717973D01*
X123210886Y-54716029D01*
X123200183Y-54717218D01*
X123189488Y-54716030D01*
X123182783Y-54717973D01*
X123175801Y-54717973D01*
X123169350Y-54720644D01*
X123162411Y-54721416D01*
X123152982Y-54726608D01*
X123142643Y-54729604D01*
X123137191Y-54733965D01*
X123130741Y-54736637D01*
X123125803Y-54741574D01*
X123119688Y-54744942D01*
X123106250Y-54758718D01*
X123104559Y-54760072D01*
X123104077Y-54760947D01*
X123102578Y-54762484D01*
X123045435Y-54833913D01*
X123032077Y-54854456D01*
X123029081Y-54864795D01*
X123023889Y-54874224D01*
X123022359Y-54887993D01*
X123018503Y-54901301D01*
X122851836Y-54901301D01*
X122851836Y-53483428D01*
X126389474Y-53483428D01*
X126389474Y-54983428D01*
X126391876Y-55007814D01*
X126410540Y-55052874D01*
X126445028Y-55087362D01*
X126490088Y-55106026D01*
X126514474Y-55108428D01*
X126971617Y-55108428D01*
X126996003Y-55106026D01*
X127005635Y-55102036D01*
X127015914Y-55100315D01*
X127037867Y-55089428D01*
X127152152Y-55018000D01*
X127163616Y-55009161D01*
X127166401Y-55007628D01*
X127168812Y-55005155D01*
X127171558Y-55003039D01*
X127173409Y-55000443D01*
X127183511Y-54990087D01*
X127240654Y-54918657D01*
X127245664Y-54910951D01*
X127247818Y-54908745D01*
X127250656Y-54903274D01*
X127254012Y-54898115D01*
X127254868Y-54895157D01*
X127259105Y-54886995D01*
X127316248Y-54744138D01*
X127322299Y-54723275D01*
X127322786Y-54722100D01*
X127322861Y-54721338D01*
X127323074Y-54720604D01*
X127323058Y-54719333D01*
X127325188Y-54697714D01*
X127325188Y-54483428D01*
X127323058Y-54461808D01*
X127323074Y-54460538D01*
X127322861Y-54459803D01*
X127322786Y-54459042D01*
X127322299Y-54457866D01*
X127316248Y-54437004D01*
X127259105Y-54294147D01*
X127254868Y-54285984D01*
X127254012Y-54283027D01*
X127250656Y-54277867D01*
X127247818Y-54272397D01*
X127245664Y-54270190D01*
X127240654Y-54262485D01*
X127183511Y-54191055D01*
X127166401Y-54173514D01*
X127160400Y-54170209D01*
X127156684Y-54166477D01*
X127183511Y-54132944D01*
X127188523Y-54125236D01*
X127190675Y-54123031D01*
X127193513Y-54117561D01*
X127196869Y-54112401D01*
X127197725Y-54109444D01*
X127201962Y-54101281D01*
X127249156Y-53983297D01*
X127532331Y-53983297D01*
X127532339Y-53983340D01*
X127532331Y-53983428D01*
X127532331Y-54483428D01*
X127532339Y-54483515D01*
X127532331Y-54483559D01*
X127533573Y-54496046D01*
X127534733Y-54507814D01*
X127534749Y-54507852D01*
X127534758Y-54507943D01*
X127591901Y-54793656D01*
X127599039Y-54817098D01*
X127602017Y-54821545D01*
X127603507Y-54826686D01*
X127616865Y-54847229D01*
X127731151Y-54990087D01*
X127741255Y-55000445D01*
X127743104Y-55003038D01*
X127745845Y-55005151D01*
X127748261Y-55007628D01*
X127751047Y-55009162D01*
X127762510Y-55018000D01*
X127876795Y-55089428D01*
X127898747Y-55100315D01*
X127909027Y-55102036D01*
X127918659Y-55106026D01*
X127943045Y-55108428D01*
X128171617Y-55108428D01*
X128196003Y-55106026D01*
X128205635Y-55102036D01*
X128215914Y-55100315D01*
X128237867Y-55089428D01*
X128352152Y-55018000D01*
X128363616Y-55009161D01*
X128366401Y-55007628D01*
X128368812Y-55005155D01*
X128371558Y-55003039D01*
X128373409Y-55000443D01*
X128383511Y-54990087D01*
X128497797Y-54847229D01*
X128511155Y-54826686D01*
X128512644Y-54821545D01*
X128515623Y-54817098D01*
X128522761Y-54793657D01*
X128579904Y-54507943D01*
X128579912Y-54507852D01*
X128579929Y-54507814D01*
X128581088Y-54496046D01*
X128582331Y-54483559D01*
X128582322Y-54483515D01*
X128582331Y-54483428D01*
X128582331Y-53983428D01*
X128582322Y-53983340D01*
X128582331Y-53983297D01*
X128789474Y-53983297D01*
X128789482Y-53983340D01*
X128789474Y-53983428D01*
X128789474Y-54483428D01*
X128789482Y-54483515D01*
X128789474Y-54483559D01*
X128790716Y-54496046D01*
X128791876Y-54507814D01*
X128791892Y-54507852D01*
X128791901Y-54507943D01*
X128849044Y-54793656D01*
X128856182Y-54817098D01*
X128859160Y-54821545D01*
X128860650Y-54826686D01*
X128874008Y-54847229D01*
X128988294Y-54990087D01*
X128998398Y-55000445D01*
X129000247Y-55003038D01*
X129002988Y-55005151D01*
X129005404Y-55007628D01*
X129008190Y-55009162D01*
X129019653Y-55018000D01*
X129133938Y-55089428D01*
X129155890Y-55100315D01*
X129166170Y-55102036D01*
X129175802Y-55106026D01*
X129200188Y-55108428D01*
X129428760Y-55108428D01*
X129453146Y-55106026D01*
X129462778Y-55102036D01*
X129473057Y-55100315D01*
X129495010Y-55089428D01*
X129609295Y-55018000D01*
X129620759Y-55009161D01*
X129623544Y-55007628D01*
X129625955Y-55005155D01*
X129628701Y-55003039D01*
X129630552Y-55000443D01*
X129640654Y-54990087D01*
X129754940Y-54847229D01*
X129768298Y-54826686D01*
X129769787Y-54821545D01*
X129772766Y-54817098D01*
X129779904Y-54793657D01*
X129837047Y-54507943D01*
X129837055Y-54507852D01*
X129837072Y-54507814D01*
X129838231Y-54496046D01*
X129839474Y-54483559D01*
X129839465Y-54483515D01*
X129839474Y-54483428D01*
X129839474Y-53983428D01*
X129839465Y-53983340D01*
X129839474Y-53983297D01*
X129838231Y-53970809D01*
X129837072Y-53959042D01*
X129837055Y-53959003D01*
X129837047Y-53958913D01*
X129779904Y-53673199D01*
X129772766Y-53649758D01*
X129769786Y-53645308D01*
X129768297Y-53640169D01*
X129754939Y-53619627D01*
X129640653Y-53476770D01*
X129630552Y-53466413D01*
X129628702Y-53463819D01*
X129625959Y-53461704D01*
X129623544Y-53459228D01*
X129623206Y-53459042D01*
X129934733Y-53459042D01*
X129934733Y-53507814D01*
X129953397Y-53552874D01*
X129987885Y-53587362D01*
X130032945Y-53606026D01*
X130057331Y-53608428D01*
X130275188Y-53608428D01*
X130275188Y-54983428D01*
X130277590Y-55007814D01*
X130296254Y-55052874D01*
X130330742Y-55087362D01*
X130375802Y-55106026D01*
X130424574Y-55106026D01*
X130469634Y-55087362D01*
X130504122Y-55052874D01*
X130522786Y-55007814D01*
X130525188Y-54983428D01*
X130525188Y-54901301D01*
X131875648Y-54901301D01*
X131876836Y-54912000D01*
X131875648Y-54922699D01*
X131879503Y-54936005D01*
X131881034Y-54949776D01*
X131886226Y-54959205D01*
X131889223Y-54969545D01*
X131902581Y-54990087D01*
X131959724Y-55061516D01*
X131961219Y-55063049D01*
X131961703Y-55063927D01*
X131963398Y-55065283D01*
X131976833Y-55079057D01*
X131982949Y-55082425D01*
X131987886Y-55087362D01*
X131994336Y-55090034D01*
X131999787Y-55094394D01*
X132010122Y-55097388D01*
X132019556Y-55102584D01*
X132026497Y-55103355D01*
X132032946Y-55106026D01*
X132039928Y-55106026D01*
X132046633Y-55107969D01*
X132057331Y-55106780D01*
X132068032Y-55107969D01*
X132074737Y-55106026D01*
X132081718Y-55106026D01*
X132088168Y-55103353D01*
X132095108Y-55102583D01*
X132104535Y-55097391D01*
X132114877Y-55094395D01*
X132120329Y-55090033D01*
X132126778Y-55087362D01*
X132131715Y-55082424D01*
X132137831Y-55079057D01*
X132151261Y-55065286D01*
X132152961Y-55063927D01*
X132153445Y-55063047D01*
X132154940Y-55061515D01*
X132212083Y-54990087D01*
X132225442Y-54969545D01*
X132228437Y-54959205D01*
X132233630Y-54949777D01*
X132235160Y-54936005D01*
X132239016Y-54922699D01*
X132237827Y-54912003D01*
X132239017Y-54901302D01*
X132235160Y-54887994D01*
X132233631Y-54874224D01*
X132228437Y-54864792D01*
X132225442Y-54854456D01*
X132212084Y-54833914D01*
X132154941Y-54762484D01*
X132153445Y-54760950D01*
X132152961Y-54760071D01*
X132151259Y-54758710D01*
X132137831Y-54744943D01*
X132131717Y-54741576D01*
X132126778Y-54736637D01*
X132120327Y-54733965D01*
X132114876Y-54729604D01*
X132104535Y-54726607D01*
X132095108Y-54721416D01*
X132088168Y-54720645D01*
X132081718Y-54717973D01*
X132074739Y-54717973D01*
X132068031Y-54716029D01*
X132057328Y-54717218D01*
X132046633Y-54716030D01*
X132039928Y-54717973D01*
X132032946Y-54717973D01*
X132026495Y-54720644D01*
X132019556Y-54721416D01*
X132010127Y-54726608D01*
X131999788Y-54729604D01*
X131994336Y-54733965D01*
X131987886Y-54736637D01*
X131982948Y-54741574D01*
X131976833Y-54744942D01*
X131963395Y-54758718D01*
X131961704Y-54760072D01*
X131961222Y-54760947D01*
X131959723Y-54762484D01*
X131902580Y-54833913D01*
X131889222Y-54854456D01*
X131886226Y-54864795D01*
X131881034Y-54874224D01*
X131879504Y-54887993D01*
X131875648Y-54901301D01*
X130525188Y-54901301D01*
X130525188Y-53608428D01*
X130743046Y-53608428D01*
X130767432Y-53606026D01*
X130812492Y-53587362D01*
X130846980Y-53552874D01*
X130865644Y-53507814D01*
X130865644Y-53459042D01*
X130846980Y-53413982D01*
X130812492Y-53379494D01*
X130767432Y-53360830D01*
X130743046Y-53358428D01*
X130057331Y-53358428D01*
X130032945Y-53360830D01*
X129987885Y-53379494D01*
X129953397Y-53413982D01*
X129934733Y-53459042D01*
X129623206Y-53459042D01*
X129620754Y-53457691D01*
X129609296Y-53448858D01*
X129495010Y-53377429D01*
X129473058Y-53366541D01*
X129462777Y-53364819D01*
X129453146Y-53360830D01*
X129428760Y-53358428D01*
X129200188Y-53358428D01*
X129175802Y-53360830D01*
X129166170Y-53364819D01*
X129155890Y-53366541D01*
X129133938Y-53377428D01*
X129019653Y-53448858D01*
X129008190Y-53457694D01*
X129005404Y-53459229D01*
X129002990Y-53461703D01*
X129000246Y-53463819D01*
X128998395Y-53466414D01*
X128988294Y-53476770D01*
X128874009Y-53619627D01*
X128860650Y-53640170D01*
X128859160Y-53645310D01*
X128856182Y-53649758D01*
X128849044Y-53673200D01*
X128791901Y-53958913D01*
X128791892Y-53959003D01*
X128791876Y-53959042D01*
X128790716Y-53970809D01*
X128789474Y-53983297D01*
X128582331Y-53983297D01*
X128581088Y-53970809D01*
X128579929Y-53959042D01*
X128579912Y-53959003D01*
X128579904Y-53958913D01*
X128522761Y-53673199D01*
X128515623Y-53649758D01*
X128512643Y-53645308D01*
X128511154Y-53640169D01*
X128497796Y-53619627D01*
X128383510Y-53476770D01*
X128373409Y-53466413D01*
X128371559Y-53463819D01*
X128368816Y-53461704D01*
X128366401Y-53459228D01*
X128363611Y-53457691D01*
X128352153Y-53448858D01*
X128237867Y-53377429D01*
X128215915Y-53366541D01*
X128205634Y-53364819D01*
X128196003Y-53360830D01*
X128171617Y-53358428D01*
X127943045Y-53358428D01*
X127918659Y-53360830D01*
X127909027Y-53364819D01*
X127898747Y-53366541D01*
X127876795Y-53377428D01*
X127762510Y-53448858D01*
X127751047Y-53457694D01*
X127748261Y-53459229D01*
X127745847Y-53461703D01*
X127743103Y-53463819D01*
X127741252Y-53466414D01*
X127731151Y-53476770D01*
X127616866Y-53619627D01*
X127603507Y-53640170D01*
X127602017Y-53645310D01*
X127599039Y-53649758D01*
X127591901Y-53673200D01*
X127534758Y-53958913D01*
X127534749Y-53959003D01*
X127534733Y-53959042D01*
X127533573Y-53970809D01*
X127532331Y-53983297D01*
X127249156Y-53983297D01*
X127259105Y-53958424D01*
X127265156Y-53937561D01*
X127265643Y-53936386D01*
X127265718Y-53935624D01*
X127265931Y-53934890D01*
X127265915Y-53933619D01*
X127268045Y-53912000D01*
X127268045Y-53769142D01*
X127265915Y-53747522D01*
X127265931Y-53746252D01*
X127265718Y-53745517D01*
X127265643Y-53744756D01*
X127265156Y-53743580D01*
X127259105Y-53722718D01*
X127201962Y-53579861D01*
X127197725Y-53571697D01*
X127196869Y-53568741D01*
X127193513Y-53563580D01*
X127190675Y-53558111D01*
X127188523Y-53555905D01*
X127183511Y-53548198D01*
X127126369Y-53476770D01*
X127116267Y-53466414D01*
X127114417Y-53463819D01*
X127111672Y-53461703D01*
X127109259Y-53459229D01*
X127106472Y-53457694D01*
X127095010Y-53448858D01*
X126980724Y-53377428D01*
X126958772Y-53366541D01*
X126948491Y-53364819D01*
X126938860Y-53360830D01*
X126914474Y-53358428D01*
X126514474Y-53358428D01*
X126490088Y-53360830D01*
X126445028Y-53379494D01*
X126410540Y-53413982D01*
X126391876Y-53459042D01*
X126389474Y-53483428D01*
X122851836Y-53483428D01*
X122851836Y-53191761D01*
X132405684Y-53191761D01*
X132405684Y-55275095D01*
G37*
D12*
G36*
X95480942Y-48339529D02*
G01*
X94958799Y-49762000D01*
X94545394Y-49762000D01*
X94023251Y-48339529D01*
X94410669Y-48339529D01*
X94757055Y-49338678D01*
X95103098Y-48339529D01*
X95480942Y-48339529D01*
G37*
G36*
X96416837Y-48320728D02*
G01*
X96496012Y-48329976D01*
X96570581Y-48345390D01*
X96640546Y-48366970D01*
X96705904Y-48394715D01*
X96766657Y-48428626D01*
X96822805Y-48468702D01*
X96874347Y-48514944D01*
X96920589Y-48566406D01*
X96960665Y-48622314D01*
X96994576Y-48682666D01*
X97022322Y-48747464D01*
X97043901Y-48816706D01*
X97059315Y-48890394D01*
X97068564Y-48968528D01*
X97071646Y-49051106D01*
X97068580Y-49133140D01*
X97059379Y-49210835D01*
X97044045Y-49284192D01*
X97022578Y-49353210D01*
X96994977Y-49417890D01*
X96961243Y-49478232D01*
X96921374Y-49534235D01*
X96875373Y-49585900D01*
X96824039Y-49632303D01*
X96768004Y-49672518D01*
X96707267Y-49706546D01*
X96641828Y-49734388D01*
X96571687Y-49756042D01*
X96496845Y-49771510D01*
X96417301Y-49780790D01*
X96333056Y-49783884D01*
X96249046Y-49780790D01*
X96169694Y-49771510D01*
X96095002Y-49756042D01*
X96024968Y-49734388D01*
X95959593Y-49706546D01*
X95898878Y-49672518D01*
X95842821Y-49632303D01*
X95791423Y-49585900D01*
X95745502Y-49534235D01*
X95705703Y-49478232D01*
X95672027Y-49417890D01*
X95644474Y-49353210D01*
X95623044Y-49284192D01*
X95607737Y-49210835D01*
X95598553Y-49133140D01*
X95595491Y-49051106D01*
X95979148Y-49051106D01*
X95982020Y-49126540D01*
X95990635Y-49194694D01*
X96006746Y-49261256D01*
X96008555Y-49266870D01*
X96035495Y-49333688D01*
X96071324Y-49393527D01*
X96085833Y-49411853D01*
X96138065Y-49460579D01*
X96198332Y-49494602D01*
X96264583Y-49514606D01*
X96334082Y-49521274D01*
X96403496Y-49514520D01*
X96469490Y-49494260D01*
X96530013Y-49459468D01*
X96582330Y-49409801D01*
X96621378Y-49353455D01*
X96651283Y-49289433D01*
X96662002Y-49257296D01*
X96677838Y-49186851D01*
X96685934Y-49114758D01*
X96687990Y-49050422D01*
X96685637Y-48981708D01*
X96677502Y-48912466D01*
X96661843Y-48844938D01*
X96658241Y-48833632D01*
X96631023Y-48766485D01*
X96594895Y-48706795D01*
X96580279Y-48688650D01*
X96527534Y-48639411D01*
X96467096Y-48605900D01*
X96397710Y-48585890D01*
X96334082Y-48580255D01*
X96265950Y-48586495D01*
X96201751Y-48605217D01*
X96138790Y-48640543D01*
X96087885Y-48686940D01*
X96046592Y-48745644D01*
X96017125Y-48811107D01*
X96009239Y-48833974D01*
X95992107Y-48901903D01*
X95982704Y-48969756D01*
X95979178Y-49043420D01*
X95979148Y-49051106D01*
X95595491Y-49051106D01*
X95598553Y-48968528D01*
X95607737Y-48890394D01*
X95623044Y-48816706D01*
X95644474Y-48747464D01*
X95672027Y-48682666D01*
X95705703Y-48622314D01*
X95745502Y-48566406D01*
X95791423Y-48514944D01*
X95842821Y-48468702D01*
X95898878Y-48428626D01*
X95959593Y-48394715D01*
X96024968Y-48366970D01*
X96095002Y-48345390D01*
X96169694Y-48329976D01*
X96249046Y-48320728D01*
X96333056Y-48317645D01*
X96416837Y-48320728D01*
G37*
G36*
X97992149Y-49783884D02*
G01*
X97923464Y-49781658D01*
X97847853Y-49773666D01*
X97775319Y-49759860D01*
X97705862Y-49740241D01*
X97697397Y-49737380D01*
X97632236Y-49711286D01*
X97564601Y-49675134D01*
X97502970Y-49631788D01*
X97465219Y-49598894D01*
X97414057Y-49543722D01*
X97369818Y-49481301D01*
X97336308Y-49419731D01*
X97314766Y-49369794D01*
X97291428Y-49298393D01*
X97276478Y-49231534D01*
X97266632Y-49160584D01*
X97261892Y-49085544D01*
X97261423Y-49052132D01*
X97263861Y-48980318D01*
X97271175Y-48911481D01*
X97285504Y-48836457D01*
X97306203Y-48765323D01*
X97312372Y-48748147D01*
X97340732Y-48682217D01*
X97374862Y-48621202D01*
X97414762Y-48565103D01*
X97460432Y-48513919D01*
X97516458Y-48464433D01*
X97579515Y-48421763D01*
X97641471Y-48389557D01*
X97691584Y-48368936D01*
X97762237Y-48346496D01*
X97836053Y-48330468D01*
X97913032Y-48320851D01*
X97982984Y-48317695D01*
X97993175Y-48317645D01*
X98063586Y-48319282D01*
X98132850Y-48324705D01*
X98155938Y-48327561D01*
X98225950Y-48339016D01*
X98290321Y-48353549D01*
X98358854Y-48375235D01*
X98406922Y-48393898D01*
X98470293Y-48421744D01*
X98498904Y-48435272D01*
X98498904Y-48777212D01*
X98456503Y-48777212D01*
X98401271Y-48735838D01*
X98388799Y-48726947D01*
X98330533Y-48688940D01*
X98296133Y-48669501D01*
X98233803Y-48640386D01*
X98181584Y-48621630D01*
X98113775Y-48606422D01*
X98049937Y-48602139D01*
X97978575Y-48607323D01*
X97910670Y-48622876D01*
X97901877Y-48625733D01*
X97838414Y-48654614D01*
X97779459Y-48697019D01*
X97771939Y-48703695D01*
X97726396Y-48756083D01*
X97691490Y-48816566D01*
X97679958Y-48842865D01*
X97658704Y-48912989D01*
X97647839Y-48986479D01*
X97645080Y-49053158D01*
X97648082Y-49122344D01*
X97658460Y-49191413D01*
X97678439Y-49257901D01*
X97683035Y-49268922D01*
X97717147Y-49333174D01*
X97761204Y-49388862D01*
X97778778Y-49405356D01*
X97836601Y-49446489D01*
X97900434Y-49475000D01*
X97909399Y-49477847D01*
X97976589Y-49493310D01*
X98047263Y-49499369D01*
X98051646Y-49499390D01*
X98122833Y-49494178D01*
X98185003Y-49480925D01*
X98252227Y-49457179D01*
X98306734Y-49429976D01*
X98365421Y-49394696D01*
X98393928Y-49374923D01*
X98450344Y-49332555D01*
X98460607Y-49324316D01*
X98498904Y-49324316D01*
X98498904Y-49662495D01*
X98433535Y-49690919D01*
X98395980Y-49706947D01*
X98329593Y-49731968D01*
X98293056Y-49743193D01*
X98225095Y-49760632D01*
X98161409Y-49773284D01*
X98088319Y-49781234D01*
X98018355Y-49783718D01*
X97992149Y-49783884D01*
G37*
D10*
X119883333Y-73251966D02*
X119850000Y-73285300D01*
X119850000Y-73285300D02*
X119750000Y-73318633D01*
X119750000Y-73318633D02*
X119683333Y-73318633D01*
X119683333Y-73318633D02*
X119583333Y-73285300D01*
X119583333Y-73285300D02*
X119516667Y-73218633D01*
X119516667Y-73218633D02*
X119483333Y-73151966D01*
X119483333Y-73151966D02*
X119450000Y-73018633D01*
X119450000Y-73018633D02*
X119450000Y-72918633D01*
X119450000Y-72918633D02*
X119483333Y-72785300D01*
X119483333Y-72785300D02*
X119516667Y-72718633D01*
X119516667Y-72718633D02*
X119583333Y-72651966D01*
X119583333Y-72651966D02*
X119683333Y-72618633D01*
X119683333Y-72618633D02*
X119750000Y-72618633D01*
X119750000Y-72618633D02*
X119850000Y-72651966D01*
X119850000Y-72651966D02*
X119883333Y-72685300D01*
X120483333Y-72618633D02*
X120350000Y-72618633D01*
X120350000Y-72618633D02*
X120283333Y-72651966D01*
X120283333Y-72651966D02*
X120250000Y-72685300D01*
X120250000Y-72685300D02*
X120183333Y-72785300D01*
X120183333Y-72785300D02*
X120150000Y-72918633D01*
X120150000Y-72918633D02*
X120150000Y-73185300D01*
X120150000Y-73185300D02*
X120183333Y-73251966D01*
X120183333Y-73251966D02*
X120216667Y-73285300D01*
X120216667Y-73285300D02*
X120283333Y-73318633D01*
X120283333Y-73318633D02*
X120416667Y-73318633D01*
X120416667Y-73318633D02*
X120483333Y-73285300D01*
X120483333Y-73285300D02*
X120516667Y-73251966D01*
X120516667Y-73251966D02*
X120550000Y-73185300D01*
X120550000Y-73185300D02*
X120550000Y-73018633D01*
X120550000Y-73018633D02*
X120516667Y-72951966D01*
X120516667Y-72951966D02*
X120483333Y-72918633D01*
X120483333Y-72918633D02*
X120416667Y-72885300D01*
X120416667Y-72885300D02*
X120283333Y-72885300D01*
X120283333Y-72885300D02*
X120216667Y-72918633D01*
X120216667Y-72918633D02*
X120183333Y-72951966D01*
X120183333Y-72951966D02*
X120150000Y-73018633D01*
X92299999Y-62251966D02*
X92266666Y-62285300D01*
X92266666Y-62285300D02*
X92166666Y-62318633D01*
X92166666Y-62318633D02*
X92099999Y-62318633D01*
X92099999Y-62318633D02*
X91999999Y-62285300D01*
X91999999Y-62285300D02*
X91933333Y-62218633D01*
X91933333Y-62218633D02*
X91899999Y-62151966D01*
X91899999Y-62151966D02*
X91866666Y-62018633D01*
X91866666Y-62018633D02*
X91866666Y-61918633D01*
X91866666Y-61918633D02*
X91899999Y-61785300D01*
X91899999Y-61785300D02*
X91933333Y-61718633D01*
X91933333Y-61718633D02*
X91999999Y-61651966D01*
X91999999Y-61651966D02*
X92099999Y-61618633D01*
X92099999Y-61618633D02*
X92166666Y-61618633D01*
X92166666Y-61618633D02*
X92266666Y-61651966D01*
X92266666Y-61651966D02*
X92299999Y-61685300D01*
X92966666Y-62318633D02*
X92566666Y-62318633D01*
X92766666Y-62318633D02*
X92766666Y-61618633D01*
X92766666Y-61618633D02*
X92699999Y-61718633D01*
X92699999Y-61718633D02*
X92633333Y-61785300D01*
X92633333Y-61785300D02*
X92566666Y-61818633D01*
X93400000Y-61618633D02*
X93466666Y-61618633D01*
X93466666Y-61618633D02*
X93533333Y-61651966D01*
X93533333Y-61651966D02*
X93566666Y-61685300D01*
X93566666Y-61685300D02*
X93600000Y-61751966D01*
X93600000Y-61751966D02*
X93633333Y-61885300D01*
X93633333Y-61885300D02*
X93633333Y-62051966D01*
X93633333Y-62051966D02*
X93600000Y-62185300D01*
X93600000Y-62185300D02*
X93566666Y-62251966D01*
X93566666Y-62251966D02*
X93533333Y-62285300D01*
X93533333Y-62285300D02*
X93466666Y-62318633D01*
X93466666Y-62318633D02*
X93400000Y-62318633D01*
X93400000Y-62318633D02*
X93333333Y-62285300D01*
X93333333Y-62285300D02*
X93300000Y-62251966D01*
X93300000Y-62251966D02*
X93266666Y-62185300D01*
X93266666Y-62185300D02*
X93233333Y-62051966D01*
X93233333Y-62051966D02*
X93233333Y-61885300D01*
X93233333Y-61885300D02*
X93266666Y-61751966D01*
X93266666Y-61751966D02*
X93300000Y-61685300D01*
X93300000Y-61685300D02*
X93333333Y-61651966D01*
X93333333Y-61651966D02*
X93400000Y-61618633D01*
X124943333Y-68038633D02*
X124710000Y-67705300D01*
X124543333Y-68038633D02*
X124543333Y-67338633D01*
X124543333Y-67338633D02*
X124810000Y-67338633D01*
X124810000Y-67338633D02*
X124876667Y-67371966D01*
X124876667Y-67371966D02*
X124910000Y-67405300D01*
X124910000Y-67405300D02*
X124943333Y-67471966D01*
X124943333Y-67471966D02*
X124943333Y-67571966D01*
X124943333Y-67571966D02*
X124910000Y-67638633D01*
X124910000Y-67638633D02*
X124876667Y-67671966D01*
X124876667Y-67671966D02*
X124810000Y-67705300D01*
X124810000Y-67705300D02*
X124543333Y-67705300D01*
X125610000Y-68038633D02*
X125210000Y-68038633D01*
X125410000Y-68038633D02*
X125410000Y-67338633D01*
X125410000Y-67338633D02*
X125343333Y-67438633D01*
X125343333Y-67438633D02*
X125276667Y-67505300D01*
X125276667Y-67505300D02*
X125210000Y-67538633D01*
X119133333Y-52068633D02*
X118900000Y-51735300D01*
X118733333Y-52068633D02*
X118733333Y-51368633D01*
X118733333Y-51368633D02*
X119000000Y-51368633D01*
X119000000Y-51368633D02*
X119066667Y-51401966D01*
X119066667Y-51401966D02*
X119100000Y-51435300D01*
X119100000Y-51435300D02*
X119133333Y-51501966D01*
X119133333Y-51501966D02*
X119133333Y-51601966D01*
X119133333Y-51601966D02*
X119100000Y-51668633D01*
X119100000Y-51668633D02*
X119066667Y-51701966D01*
X119066667Y-51701966D02*
X119000000Y-51735300D01*
X119000000Y-51735300D02*
X118733333Y-51735300D01*
X119366667Y-51368633D02*
X119833333Y-51368633D01*
X119833333Y-51368633D02*
X119533333Y-52068633D01*
X122883333Y-63501966D02*
X122850000Y-63535300D01*
X122850000Y-63535300D02*
X122750000Y-63568633D01*
X122750000Y-63568633D02*
X122683333Y-63568633D01*
X122683333Y-63568633D02*
X122583333Y-63535300D01*
X122583333Y-63535300D02*
X122516667Y-63468633D01*
X122516667Y-63468633D02*
X122483333Y-63401966D01*
X122483333Y-63401966D02*
X122450000Y-63268633D01*
X122450000Y-63268633D02*
X122450000Y-63168633D01*
X122450000Y-63168633D02*
X122483333Y-63035300D01*
X122483333Y-63035300D02*
X122516667Y-62968633D01*
X122516667Y-62968633D02*
X122583333Y-62901966D01*
X122583333Y-62901966D02*
X122683333Y-62868633D01*
X122683333Y-62868633D02*
X122750000Y-62868633D01*
X122750000Y-62868633D02*
X122850000Y-62901966D01*
X122850000Y-62901966D02*
X122883333Y-62935300D01*
X123483333Y-63101966D02*
X123483333Y-63568633D01*
X123316667Y-62835300D02*
X123150000Y-63335300D01*
X123150000Y-63335300D02*
X123583333Y-63335300D01*
X100883333Y-67568633D02*
X100650000Y-67235300D01*
X100483333Y-67568633D02*
X100483333Y-66868633D01*
X100483333Y-66868633D02*
X100750000Y-66868633D01*
X100750000Y-66868633D02*
X100816667Y-66901966D01*
X100816667Y-66901966D02*
X100850000Y-66935300D01*
X100850000Y-66935300D02*
X100883333Y-67001966D01*
X100883333Y-67001966D02*
X100883333Y-67101966D01*
X100883333Y-67101966D02*
X100850000Y-67168633D01*
X100850000Y-67168633D02*
X100816667Y-67201966D01*
X100816667Y-67201966D02*
X100750000Y-67235300D01*
X100750000Y-67235300D02*
X100483333Y-67235300D01*
X101116667Y-66868633D02*
X101550000Y-66868633D01*
X101550000Y-66868633D02*
X101316667Y-67135300D01*
X101316667Y-67135300D02*
X101416667Y-67135300D01*
X101416667Y-67135300D02*
X101483333Y-67168633D01*
X101483333Y-67168633D02*
X101516667Y-67201966D01*
X101516667Y-67201966D02*
X101550000Y-67268633D01*
X101550000Y-67268633D02*
X101550000Y-67435300D01*
X101550000Y-67435300D02*
X101516667Y-67501966D01*
X101516667Y-67501966D02*
X101483333Y-67535300D01*
X101483333Y-67535300D02*
X101416667Y-67568633D01*
X101416667Y-67568633D02*
X101216667Y-67568633D01*
X101216667Y-67568633D02*
X101150000Y-67535300D01*
X101150000Y-67535300D02*
X101116667Y-67501966D01*
X115883333Y-71068633D02*
X115650000Y-70735300D01*
X115483333Y-71068633D02*
X115483333Y-70368633D01*
X115483333Y-70368633D02*
X115750000Y-70368633D01*
X115750000Y-70368633D02*
X115816667Y-70401966D01*
X115816667Y-70401966D02*
X115850000Y-70435300D01*
X115850000Y-70435300D02*
X115883333Y-70501966D01*
X115883333Y-70501966D02*
X115883333Y-70601966D01*
X115883333Y-70601966D02*
X115850000Y-70668633D01*
X115850000Y-70668633D02*
X115816667Y-70701966D01*
X115816667Y-70701966D02*
X115750000Y-70735300D01*
X115750000Y-70735300D02*
X115483333Y-70735300D01*
X116283333Y-70668633D02*
X116216667Y-70635300D01*
X116216667Y-70635300D02*
X116183333Y-70601966D01*
X116183333Y-70601966D02*
X116150000Y-70535300D01*
X116150000Y-70535300D02*
X116150000Y-70501966D01*
X116150000Y-70501966D02*
X116183333Y-70435300D01*
X116183333Y-70435300D02*
X116216667Y-70401966D01*
X116216667Y-70401966D02*
X116283333Y-70368633D01*
X116283333Y-70368633D02*
X116416667Y-70368633D01*
X116416667Y-70368633D02*
X116483333Y-70401966D01*
X116483333Y-70401966D02*
X116516667Y-70435300D01*
X116516667Y-70435300D02*
X116550000Y-70501966D01*
X116550000Y-70501966D02*
X116550000Y-70535300D01*
X116550000Y-70535300D02*
X116516667Y-70601966D01*
X116516667Y-70601966D02*
X116483333Y-70635300D01*
X116483333Y-70635300D02*
X116416667Y-70668633D01*
X116416667Y-70668633D02*
X116283333Y-70668633D01*
X116283333Y-70668633D02*
X116216667Y-70701966D01*
X116216667Y-70701966D02*
X116183333Y-70735300D01*
X116183333Y-70735300D02*
X116150000Y-70801966D01*
X116150000Y-70801966D02*
X116150000Y-70935300D01*
X116150000Y-70935300D02*
X116183333Y-71001966D01*
X116183333Y-71001966D02*
X116216667Y-71035300D01*
X116216667Y-71035300D02*
X116283333Y-71068633D01*
X116283333Y-71068633D02*
X116416667Y-71068633D01*
X116416667Y-71068633D02*
X116483333Y-71035300D01*
X116483333Y-71035300D02*
X116516667Y-71001966D01*
X116516667Y-71001966D02*
X116550000Y-70935300D01*
X116550000Y-70935300D02*
X116550000Y-70801966D01*
X116550000Y-70801966D02*
X116516667Y-70735300D01*
X116516667Y-70735300D02*
X116483333Y-70701966D01*
X116483333Y-70701966D02*
X116416667Y-70668633D01*
X117383333Y-75501966D02*
X117350000Y-75535300D01*
X117350000Y-75535300D02*
X117250000Y-75568633D01*
X117250000Y-75568633D02*
X117183333Y-75568633D01*
X117183333Y-75568633D02*
X117083333Y-75535300D01*
X117083333Y-75535300D02*
X117016667Y-75468633D01*
X117016667Y-75468633D02*
X116983333Y-75401966D01*
X116983333Y-75401966D02*
X116950000Y-75268633D01*
X116950000Y-75268633D02*
X116950000Y-75168633D01*
X116950000Y-75168633D02*
X116983333Y-75035300D01*
X116983333Y-75035300D02*
X117016667Y-74968633D01*
X117016667Y-74968633D02*
X117083333Y-74901966D01*
X117083333Y-74901966D02*
X117183333Y-74868633D01*
X117183333Y-74868633D02*
X117250000Y-74868633D01*
X117250000Y-74868633D02*
X117350000Y-74901966D01*
X117350000Y-74901966D02*
X117383333Y-74935300D01*
X117716667Y-75568633D02*
X117850000Y-75568633D01*
X117850000Y-75568633D02*
X117916667Y-75535300D01*
X117916667Y-75535300D02*
X117950000Y-75501966D01*
X117950000Y-75501966D02*
X118016667Y-75401966D01*
X118016667Y-75401966D02*
X118050000Y-75268633D01*
X118050000Y-75268633D02*
X118050000Y-75001966D01*
X118050000Y-75001966D02*
X118016667Y-74935300D01*
X118016667Y-74935300D02*
X117983333Y-74901966D01*
X117983333Y-74901966D02*
X117916667Y-74868633D01*
X117916667Y-74868633D02*
X117783333Y-74868633D01*
X117783333Y-74868633D02*
X117716667Y-74901966D01*
X117716667Y-74901966D02*
X117683333Y-74935300D01*
X117683333Y-74935300D02*
X117650000Y-75001966D01*
X117650000Y-75001966D02*
X117650000Y-75168633D01*
X117650000Y-75168633D02*
X117683333Y-75235300D01*
X117683333Y-75235300D02*
X117716667Y-75268633D01*
X117716667Y-75268633D02*
X117783333Y-75301966D01*
X117783333Y-75301966D02*
X117916667Y-75301966D01*
X117916667Y-75301966D02*
X117983333Y-75268633D01*
X117983333Y-75268633D02*
X118016667Y-75235300D01*
X118016667Y-75235300D02*
X118050000Y-75168633D01*
X105383333Y-70068633D02*
X105150000Y-69735300D01*
X104983333Y-70068633D02*
X104983333Y-69368633D01*
X104983333Y-69368633D02*
X105250000Y-69368633D01*
X105250000Y-69368633D02*
X105316667Y-69401966D01*
X105316667Y-69401966D02*
X105350000Y-69435300D01*
X105350000Y-69435300D02*
X105383333Y-69501966D01*
X105383333Y-69501966D02*
X105383333Y-69601966D01*
X105383333Y-69601966D02*
X105350000Y-69668633D01*
X105350000Y-69668633D02*
X105316667Y-69701966D01*
X105316667Y-69701966D02*
X105250000Y-69735300D01*
X105250000Y-69735300D02*
X104983333Y-69735300D01*
X105716667Y-70068633D02*
X105850000Y-70068633D01*
X105850000Y-70068633D02*
X105916667Y-70035300D01*
X105916667Y-70035300D02*
X105950000Y-70001966D01*
X105950000Y-70001966D02*
X106016667Y-69901966D01*
X106016667Y-69901966D02*
X106050000Y-69768633D01*
X106050000Y-69768633D02*
X106050000Y-69501966D01*
X106050000Y-69501966D02*
X106016667Y-69435300D01*
X106016667Y-69435300D02*
X105983333Y-69401966D01*
X105983333Y-69401966D02*
X105916667Y-69368633D01*
X105916667Y-69368633D02*
X105783333Y-69368633D01*
X105783333Y-69368633D02*
X105716667Y-69401966D01*
X105716667Y-69401966D02*
X105683333Y-69435300D01*
X105683333Y-69435300D02*
X105650000Y-69501966D01*
X105650000Y-69501966D02*
X105650000Y-69668633D01*
X105650000Y-69668633D02*
X105683333Y-69735300D01*
X105683333Y-69735300D02*
X105716667Y-69768633D01*
X105716667Y-69768633D02*
X105783333Y-69801966D01*
X105783333Y-69801966D02*
X105916667Y-69801966D01*
X105916667Y-69801966D02*
X105983333Y-69768633D01*
X105983333Y-69768633D02*
X106016667Y-69735300D01*
X106016667Y-69735300D02*
X106050000Y-69668633D01*
X107225833Y-75635300D02*
X107159166Y-75601966D01*
X107159166Y-75601966D02*
X107092500Y-75535300D01*
X107092500Y-75535300D02*
X106992500Y-75435300D01*
X106992500Y-75435300D02*
X106925833Y-75401966D01*
X106925833Y-75401966D02*
X106859166Y-75401966D01*
X106892500Y-75568633D02*
X106825833Y-75535300D01*
X106825833Y-75535300D02*
X106759166Y-75468633D01*
X106759166Y-75468633D02*
X106725833Y-75335300D01*
X106725833Y-75335300D02*
X106725833Y-75101966D01*
X106725833Y-75101966D02*
X106759166Y-74968633D01*
X106759166Y-74968633D02*
X106825833Y-74901966D01*
X106825833Y-74901966D02*
X106892500Y-74868633D01*
X106892500Y-74868633D02*
X107025833Y-74868633D01*
X107025833Y-74868633D02*
X107092500Y-74901966D01*
X107092500Y-74901966D02*
X107159166Y-74968633D01*
X107159166Y-74968633D02*
X107192500Y-75101966D01*
X107192500Y-75101966D02*
X107192500Y-75335300D01*
X107192500Y-75335300D02*
X107159166Y-75468633D01*
X107159166Y-75468633D02*
X107092500Y-75535300D01*
X107092500Y-75535300D02*
X107025833Y-75568633D01*
X107025833Y-75568633D02*
X106892500Y-75568633D01*
X107859166Y-75568633D02*
X107459166Y-75568633D01*
X107659166Y-75568633D02*
X107659166Y-74868633D01*
X107659166Y-74868633D02*
X107592499Y-74968633D01*
X107592499Y-74968633D02*
X107525833Y-75035300D01*
X107525833Y-75035300D02*
X107459166Y-75068633D01*
X114296666Y-75318633D02*
X114296666Y-74618633D01*
X115029999Y-75251966D02*
X114996666Y-75285300D01*
X114996666Y-75285300D02*
X114896666Y-75318633D01*
X114896666Y-75318633D02*
X114829999Y-75318633D01*
X114829999Y-75318633D02*
X114729999Y-75285300D01*
X114729999Y-75285300D02*
X114663333Y-75218633D01*
X114663333Y-75218633D02*
X114629999Y-75151966D01*
X114629999Y-75151966D02*
X114596666Y-75018633D01*
X114596666Y-75018633D02*
X114596666Y-74918633D01*
X114596666Y-74918633D02*
X114629999Y-74785300D01*
X114629999Y-74785300D02*
X114663333Y-74718633D01*
X114663333Y-74718633D02*
X114729999Y-74651966D01*
X114729999Y-74651966D02*
X114829999Y-74618633D01*
X114829999Y-74618633D02*
X114896666Y-74618633D01*
X114896666Y-74618633D02*
X114996666Y-74651966D01*
X114996666Y-74651966D02*
X115029999Y-74685300D01*
X115263333Y-74618633D02*
X115696666Y-74618633D01*
X115696666Y-74618633D02*
X115463333Y-74885300D01*
X115463333Y-74885300D02*
X115563333Y-74885300D01*
X115563333Y-74885300D02*
X115629999Y-74918633D01*
X115629999Y-74918633D02*
X115663333Y-74951966D01*
X115663333Y-74951966D02*
X115696666Y-75018633D01*
X115696666Y-75018633D02*
X115696666Y-75185300D01*
X115696666Y-75185300D02*
X115663333Y-75251966D01*
X115663333Y-75251966D02*
X115629999Y-75285300D01*
X115629999Y-75285300D02*
X115563333Y-75318633D01*
X115563333Y-75318633D02*
X115363333Y-75318633D01*
X115363333Y-75318633D02*
X115296666Y-75285300D01*
X115296666Y-75285300D02*
X115263333Y-75251966D01*
X128383333Y-68068633D02*
X128150000Y-67735300D01*
X127983333Y-68068633D02*
X127983333Y-67368633D01*
X127983333Y-67368633D02*
X128250000Y-67368633D01*
X128250000Y-67368633D02*
X128316667Y-67401966D01*
X128316667Y-67401966D02*
X128350000Y-67435300D01*
X128350000Y-67435300D02*
X128383333Y-67501966D01*
X128383333Y-67501966D02*
X128383333Y-67601966D01*
X128383333Y-67601966D02*
X128350000Y-67668633D01*
X128350000Y-67668633D02*
X128316667Y-67701966D01*
X128316667Y-67701966D02*
X128250000Y-67735300D01*
X128250000Y-67735300D02*
X127983333Y-67735300D01*
X128650000Y-67435300D02*
X128683333Y-67401966D01*
X128683333Y-67401966D02*
X128750000Y-67368633D01*
X128750000Y-67368633D02*
X128916667Y-67368633D01*
X128916667Y-67368633D02*
X128983333Y-67401966D01*
X128983333Y-67401966D02*
X129016667Y-67435300D01*
X129016667Y-67435300D02*
X129050000Y-67501966D01*
X129050000Y-67501966D02*
X129050000Y-67568633D01*
X129050000Y-67568633D02*
X129016667Y-67668633D01*
X129016667Y-67668633D02*
X128616667Y-68068633D01*
X128616667Y-68068633D02*
X129050000Y-68068633D01*
X119633333Y-65251966D02*
X119600000Y-65285300D01*
X119600000Y-65285300D02*
X119500000Y-65318633D01*
X119500000Y-65318633D02*
X119433333Y-65318633D01*
X119433333Y-65318633D02*
X119333333Y-65285300D01*
X119333333Y-65285300D02*
X119266667Y-65218633D01*
X119266667Y-65218633D02*
X119233333Y-65151966D01*
X119233333Y-65151966D02*
X119200000Y-65018633D01*
X119200000Y-65018633D02*
X119200000Y-64918633D01*
X119200000Y-64918633D02*
X119233333Y-64785300D01*
X119233333Y-64785300D02*
X119266667Y-64718633D01*
X119266667Y-64718633D02*
X119333333Y-64651966D01*
X119333333Y-64651966D02*
X119433333Y-64618633D01*
X119433333Y-64618633D02*
X119500000Y-64618633D01*
X119500000Y-64618633D02*
X119600000Y-64651966D01*
X119600000Y-64651966D02*
X119633333Y-64685300D01*
X120266667Y-64618633D02*
X119933333Y-64618633D01*
X119933333Y-64618633D02*
X119900000Y-64951966D01*
X119900000Y-64951966D02*
X119933333Y-64918633D01*
X119933333Y-64918633D02*
X120000000Y-64885300D01*
X120000000Y-64885300D02*
X120166667Y-64885300D01*
X120166667Y-64885300D02*
X120233333Y-64918633D01*
X120233333Y-64918633D02*
X120266667Y-64951966D01*
X120266667Y-64951966D02*
X120300000Y-65018633D01*
X120300000Y-65018633D02*
X120300000Y-65185300D01*
X120300000Y-65185300D02*
X120266667Y-65251966D01*
X120266667Y-65251966D02*
X120233333Y-65285300D01*
X120233333Y-65285300D02*
X120166667Y-65318633D01*
X120166667Y-65318633D02*
X120000000Y-65318633D01*
X120000000Y-65318633D02*
X119933333Y-65285300D01*
X119933333Y-65285300D02*
X119900000Y-65251966D01*
X98683333Y-55481966D02*
X98650000Y-55515300D01*
X98650000Y-55515300D02*
X98550000Y-55548633D01*
X98550000Y-55548633D02*
X98483333Y-55548633D01*
X98483333Y-55548633D02*
X98383333Y-55515300D01*
X98383333Y-55515300D02*
X98316667Y-55448633D01*
X98316667Y-55448633D02*
X98283333Y-55381966D01*
X98283333Y-55381966D02*
X98250000Y-55248633D01*
X98250000Y-55248633D02*
X98250000Y-55148633D01*
X98250000Y-55148633D02*
X98283333Y-55015300D01*
X98283333Y-55015300D02*
X98316667Y-54948633D01*
X98316667Y-54948633D02*
X98383333Y-54881966D01*
X98383333Y-54881966D02*
X98483333Y-54848633D01*
X98483333Y-54848633D02*
X98550000Y-54848633D01*
X98550000Y-54848633D02*
X98650000Y-54881966D01*
X98650000Y-54881966D02*
X98683333Y-54915300D01*
X99350000Y-55548633D02*
X98950000Y-55548633D01*
X99150000Y-55548633D02*
X99150000Y-54848633D01*
X99150000Y-54848633D02*
X99083333Y-54948633D01*
X99083333Y-54948633D02*
X99016667Y-55015300D01*
X99016667Y-55015300D02*
X98950000Y-55048633D01*
X101383333Y-62818633D02*
X101150000Y-62485300D01*
X100983333Y-62818633D02*
X100983333Y-62118633D01*
X100983333Y-62118633D02*
X101250000Y-62118633D01*
X101250000Y-62118633D02*
X101316667Y-62151966D01*
X101316667Y-62151966D02*
X101350000Y-62185300D01*
X101350000Y-62185300D02*
X101383333Y-62251966D01*
X101383333Y-62251966D02*
X101383333Y-62351966D01*
X101383333Y-62351966D02*
X101350000Y-62418633D01*
X101350000Y-62418633D02*
X101316667Y-62451966D01*
X101316667Y-62451966D02*
X101250000Y-62485300D01*
X101250000Y-62485300D02*
X100983333Y-62485300D01*
X102016667Y-62118633D02*
X101683333Y-62118633D01*
X101683333Y-62118633D02*
X101650000Y-62451966D01*
X101650000Y-62451966D02*
X101683333Y-62418633D01*
X101683333Y-62418633D02*
X101750000Y-62385300D01*
X101750000Y-62385300D02*
X101916667Y-62385300D01*
X101916667Y-62385300D02*
X101983333Y-62418633D01*
X101983333Y-62418633D02*
X102016667Y-62451966D01*
X102016667Y-62451966D02*
X102050000Y-62518633D01*
X102050000Y-62518633D02*
X102050000Y-62685300D01*
X102050000Y-62685300D02*
X102016667Y-62751966D01*
X102016667Y-62751966D02*
X101983333Y-62785300D01*
X101983333Y-62785300D02*
X101916667Y-62818633D01*
X101916667Y-62818633D02*
X101750000Y-62818633D01*
X101750000Y-62818633D02*
X101683333Y-62785300D01*
X101683333Y-62785300D02*
X101650000Y-62751966D01*
D13*
X127684819Y-50991904D02*
X126684819Y-50991904D01*
X127161009Y-50991904D02*
X127161009Y-50420476D01*
X127684819Y-50420476D02*
X126684819Y-50420476D01*
X126780057Y-49991904D02*
X126732438Y-49944285D01*
X126732438Y-49944285D02*
X126684819Y-49849047D01*
X126684819Y-49849047D02*
X126684819Y-49610952D01*
X126684819Y-49610952D02*
X126732438Y-49515714D01*
X126732438Y-49515714D02*
X126780057Y-49468095D01*
X126780057Y-49468095D02*
X126875295Y-49420476D01*
X126875295Y-49420476D02*
X126970533Y-49420476D01*
X126970533Y-49420476D02*
X127113390Y-49468095D01*
X127113390Y-49468095D02*
X127684819Y-50039523D01*
X127684819Y-50039523D02*
X127684819Y-49420476D01*
D10*
X104299999Y-75568633D02*
X104066666Y-75235300D01*
X103899999Y-75568633D02*
X103899999Y-74868633D01*
X103899999Y-74868633D02*
X104166666Y-74868633D01*
X104166666Y-74868633D02*
X104233333Y-74901966D01*
X104233333Y-74901966D02*
X104266666Y-74935300D01*
X104266666Y-74935300D02*
X104299999Y-75001966D01*
X104299999Y-75001966D02*
X104299999Y-75101966D01*
X104299999Y-75101966D02*
X104266666Y-75168633D01*
X104266666Y-75168633D02*
X104233333Y-75201966D01*
X104233333Y-75201966D02*
X104166666Y-75235300D01*
X104166666Y-75235300D02*
X103899999Y-75235300D01*
X104966666Y-75568633D02*
X104566666Y-75568633D01*
X104766666Y-75568633D02*
X104766666Y-74868633D01*
X104766666Y-74868633D02*
X104699999Y-74968633D01*
X104699999Y-74968633D02*
X104633333Y-75035300D01*
X104633333Y-75035300D02*
X104566666Y-75068633D01*
X105633333Y-75568633D02*
X105233333Y-75568633D01*
X105433333Y-75568633D02*
X105433333Y-74868633D01*
X105433333Y-74868633D02*
X105366666Y-74968633D01*
X105366666Y-74968633D02*
X105300000Y-75035300D01*
X105300000Y-75035300D02*
X105233333Y-75068633D01*
X112383333Y-74501966D02*
X112350000Y-74535300D01*
X112350000Y-74535300D02*
X112250000Y-74568633D01*
X112250000Y-74568633D02*
X112183333Y-74568633D01*
X112183333Y-74568633D02*
X112083333Y-74535300D01*
X112083333Y-74535300D02*
X112016667Y-74468633D01*
X112016667Y-74468633D02*
X111983333Y-74401966D01*
X111983333Y-74401966D02*
X111950000Y-74268633D01*
X111950000Y-74268633D02*
X111950000Y-74168633D01*
X111950000Y-74168633D02*
X111983333Y-74035300D01*
X111983333Y-74035300D02*
X112016667Y-73968633D01*
X112016667Y-73968633D02*
X112083333Y-73901966D01*
X112083333Y-73901966D02*
X112183333Y-73868633D01*
X112183333Y-73868633D02*
X112250000Y-73868633D01*
X112250000Y-73868633D02*
X112350000Y-73901966D01*
X112350000Y-73901966D02*
X112383333Y-73935300D01*
X112783333Y-74168633D02*
X112716667Y-74135300D01*
X112716667Y-74135300D02*
X112683333Y-74101966D01*
X112683333Y-74101966D02*
X112650000Y-74035300D01*
X112650000Y-74035300D02*
X112650000Y-74001966D01*
X112650000Y-74001966D02*
X112683333Y-73935300D01*
X112683333Y-73935300D02*
X112716667Y-73901966D01*
X112716667Y-73901966D02*
X112783333Y-73868633D01*
X112783333Y-73868633D02*
X112916667Y-73868633D01*
X112916667Y-73868633D02*
X112983333Y-73901966D01*
X112983333Y-73901966D02*
X113016667Y-73935300D01*
X113016667Y-73935300D02*
X113050000Y-74001966D01*
X113050000Y-74001966D02*
X113050000Y-74035300D01*
X113050000Y-74035300D02*
X113016667Y-74101966D01*
X113016667Y-74101966D02*
X112983333Y-74135300D01*
X112983333Y-74135300D02*
X112916667Y-74168633D01*
X112916667Y-74168633D02*
X112783333Y-74168633D01*
X112783333Y-74168633D02*
X112716667Y-74201966D01*
X112716667Y-74201966D02*
X112683333Y-74235300D01*
X112683333Y-74235300D02*
X112650000Y-74301966D01*
X112650000Y-74301966D02*
X112650000Y-74435300D01*
X112650000Y-74435300D02*
X112683333Y-74501966D01*
X112683333Y-74501966D02*
X112716667Y-74535300D01*
X112716667Y-74535300D02*
X112783333Y-74568633D01*
X112783333Y-74568633D02*
X112916667Y-74568633D01*
X112916667Y-74568633D02*
X112983333Y-74535300D01*
X112983333Y-74535300D02*
X113016667Y-74501966D01*
X113016667Y-74501966D02*
X113050000Y-74435300D01*
X113050000Y-74435300D02*
X113050000Y-74301966D01*
X113050000Y-74301966D02*
X113016667Y-74235300D01*
X113016667Y-74235300D02*
X112983333Y-74201966D01*
X112983333Y-74201966D02*
X112916667Y-74168633D01*
X128016666Y-60848633D02*
X128016666Y-61348633D01*
X128016666Y-61348633D02*
X127983333Y-61448633D01*
X127983333Y-61448633D02*
X127916666Y-61515300D01*
X127916666Y-61515300D02*
X127816666Y-61548633D01*
X127816666Y-61548633D02*
X127750000Y-61548633D01*
X128716666Y-61548633D02*
X128316666Y-61548633D01*
X128516666Y-61548633D02*
X128516666Y-60848633D01*
X128516666Y-60848633D02*
X128449999Y-60948633D01*
X128449999Y-60948633D02*
X128383333Y-61015300D01*
X128383333Y-61015300D02*
X128316666Y-61048633D01*
X118816666Y-58568633D02*
X118816666Y-57868633D01*
X119549999Y-58501966D02*
X119516666Y-58535300D01*
X119516666Y-58535300D02*
X119416666Y-58568633D01*
X119416666Y-58568633D02*
X119349999Y-58568633D01*
X119349999Y-58568633D02*
X119249999Y-58535300D01*
X119249999Y-58535300D02*
X119183333Y-58468633D01*
X119183333Y-58468633D02*
X119149999Y-58401966D01*
X119149999Y-58401966D02*
X119116666Y-58268633D01*
X119116666Y-58268633D02*
X119116666Y-58168633D01*
X119116666Y-58168633D02*
X119149999Y-58035300D01*
X119149999Y-58035300D02*
X119183333Y-57968633D01*
X119183333Y-57968633D02*
X119249999Y-57901966D01*
X119249999Y-57901966D02*
X119349999Y-57868633D01*
X119349999Y-57868633D02*
X119416666Y-57868633D01*
X119416666Y-57868633D02*
X119516666Y-57901966D01*
X119516666Y-57901966D02*
X119549999Y-57935300D01*
X119816666Y-57935300D02*
X119849999Y-57901966D01*
X119849999Y-57901966D02*
X119916666Y-57868633D01*
X119916666Y-57868633D02*
X120083333Y-57868633D01*
X120083333Y-57868633D02*
X120149999Y-57901966D01*
X120149999Y-57901966D02*
X120183333Y-57935300D01*
X120183333Y-57935300D02*
X120216666Y-58001966D01*
X120216666Y-58001966D02*
X120216666Y-58068633D01*
X120216666Y-58068633D02*
X120183333Y-58168633D01*
X120183333Y-58168633D02*
X119783333Y-58568633D01*
X119783333Y-58568633D02*
X120216666Y-58568633D01*
D11*
G36*
X119788362Y-70100118D02*
G01*
X119823901Y-70141125D01*
X119867857Y-70242561D01*
X119867857Y-70405008D01*
X119823901Y-70506445D01*
X119788363Y-70547451D01*
X119711765Y-70591642D01*
X119375000Y-70591642D01*
X119375000Y-70055928D01*
X119711766Y-70055928D01*
X119788362Y-70100118D01*
G37*
G36*
X126102595Y-71722595D02*
G01*
X118958333Y-71722595D01*
X118958333Y-69930928D01*
X119125000Y-69930928D01*
X119125000Y-71430928D01*
X119127402Y-71455314D01*
X119146066Y-71500374D01*
X119180554Y-71534862D01*
X119225614Y-71553526D01*
X119274386Y-71553526D01*
X119319446Y-71534862D01*
X119353934Y-71500374D01*
X119372598Y-71455314D01*
X119375000Y-71430928D01*
X119375000Y-70841642D01*
X119489153Y-70841642D01*
X119885986Y-71495763D01*
X119900688Y-71515366D01*
X119940017Y-71544211D01*
X119987391Y-71555808D01*
X120035597Y-71548394D01*
X120077295Y-71523097D01*
X120106140Y-71483768D01*
X120117737Y-71436393D01*
X120110323Y-71388188D01*
X120099728Y-71366093D01*
X119778122Y-70835974D01*
X119785380Y-70835021D01*
X119807703Y-70824916D01*
X119931513Y-70753487D01*
X119942832Y-70745381D01*
X119945723Y-70743935D01*
X119948413Y-70741385D01*
X119951436Y-70739221D01*
X119953409Y-70736650D01*
X119963509Y-70727080D01*
X120025414Y-70655651D01*
X120031432Y-70647147D01*
X120033748Y-70644906D01*
X120036408Y-70640116D01*
X120039570Y-70635650D01*
X120040587Y-70632594D01*
X120045648Y-70623485D01*
X120107552Y-70480628D01*
X120115044Y-70457298D01*
X120115060Y-70456265D01*
X120115455Y-70455314D01*
X120117857Y-70430928D01*
X120117857Y-70216642D01*
X120363096Y-70216642D01*
X120363096Y-70359500D01*
X120365498Y-70383886D01*
X120365892Y-70384837D01*
X120365909Y-70385870D01*
X120373401Y-70409200D01*
X120435305Y-70552058D01*
X120440365Y-70561166D01*
X120441383Y-70564223D01*
X120444546Y-70568692D01*
X120447205Y-70573478D01*
X120449518Y-70575717D01*
X120455539Y-70584224D01*
X120517444Y-70655652D01*
X120527547Y-70665226D01*
X120529517Y-70667791D01*
X120532534Y-70669952D01*
X120535231Y-70672507D01*
X120538125Y-70673955D01*
X120549440Y-70682058D01*
X120673249Y-70753487D01*
X120676931Y-70755154D01*
X120678305Y-70756250D01*
X120687019Y-70759720D01*
X120695573Y-70763593D01*
X120697316Y-70763821D01*
X120701070Y-70765317D01*
X120934057Y-70832524D01*
X121026458Y-70885833D01*
X121061998Y-70926841D01*
X121105953Y-71028275D01*
X121105953Y-71119295D01*
X121061998Y-71220729D01*
X121026457Y-71261738D01*
X120949863Y-71305928D01*
X120697020Y-71305928D01*
X120532968Y-71242832D01*
X120509345Y-71236320D01*
X120460589Y-71237564D01*
X120416019Y-71257373D01*
X120382424Y-71292730D01*
X120364916Y-71338251D01*
X120366160Y-71387007D01*
X120385969Y-71431577D01*
X120421326Y-71465172D01*
X120443224Y-71476168D01*
X120628938Y-71547596D01*
X120647388Y-71552682D01*
X120649424Y-71553526D01*
X120651014Y-71553682D01*
X120652561Y-71554109D01*
X120654770Y-71554052D01*
X120673810Y-71555928D01*
X120983334Y-71555928D01*
X121007720Y-71553526D01*
X121015319Y-71550378D01*
X121023476Y-71549307D01*
X121045799Y-71539201D01*
X121169608Y-71467773D01*
X121180924Y-71459668D01*
X121183818Y-71458221D01*
X121186512Y-71455667D01*
X121189531Y-71453506D01*
X121191501Y-71450939D01*
X121201604Y-71441366D01*
X121263509Y-71369937D01*
X121269526Y-71361434D01*
X121271842Y-71359193D01*
X121274501Y-71354405D01*
X121277665Y-71349936D01*
X121278682Y-71346878D01*
X121283742Y-71337772D01*
X121345647Y-71194915D01*
X121353139Y-71171585D01*
X121353155Y-71170554D01*
X121353551Y-71169600D01*
X121355953Y-71145214D01*
X121355953Y-71002357D01*
X121353551Y-70977971D01*
X121353155Y-70977016D01*
X121353139Y-70975986D01*
X121345647Y-70952656D01*
X121283742Y-70809799D01*
X121278682Y-70800692D01*
X121277665Y-70797635D01*
X121274501Y-70793165D01*
X121271842Y-70788378D01*
X121269526Y-70786136D01*
X121263509Y-70777634D01*
X121201604Y-70706205D01*
X121191501Y-70696631D01*
X121189531Y-70694065D01*
X121186511Y-70691902D01*
X121183818Y-70689350D01*
X121180926Y-70687902D01*
X121169609Y-70679798D01*
X121045800Y-70608369D01*
X121042116Y-70606701D01*
X121040744Y-70605606D01*
X121032034Y-70602137D01*
X121023477Y-70598263D01*
X121021732Y-70598033D01*
X121017979Y-70596539D01*
X120784989Y-70529330D01*
X120692591Y-70476024D01*
X120657050Y-70435016D01*
X120613096Y-70333581D01*
X120613096Y-70242560D01*
X120657050Y-70141125D01*
X120692591Y-70100117D01*
X120769187Y-70055928D01*
X121022029Y-70055928D01*
X121186081Y-70119025D01*
X121209704Y-70125537D01*
X121258460Y-70124293D01*
X121303030Y-70104484D01*
X121336625Y-70069128D01*
X121354134Y-70023607D01*
X121352889Y-69974850D01*
X121333080Y-69930280D01*
X121308098Y-69906542D01*
X121479783Y-69906542D01*
X121479783Y-69955314D01*
X121498447Y-70000374D01*
X121532935Y-70034862D01*
X121577995Y-70053526D01*
X121602381Y-70055928D01*
X121848810Y-70055928D01*
X121848810Y-71430928D01*
X121851212Y-71455314D01*
X121869876Y-71500374D01*
X121904364Y-71534862D01*
X121949424Y-71553526D01*
X121998196Y-71553526D01*
X122043256Y-71534862D01*
X122077744Y-71500374D01*
X122096408Y-71455314D01*
X122098810Y-71430928D01*
X122098810Y-71343911D01*
X125564071Y-71343911D01*
X125565184Y-71359500D01*
X125564071Y-71375090D01*
X125566906Y-71383606D01*
X125567546Y-71392561D01*
X125574542Y-71406540D01*
X125579478Y-71421365D01*
X125587957Y-71433345D01*
X125589374Y-71436176D01*
X125590891Y-71437491D01*
X125593634Y-71441366D01*
X125655538Y-71512794D01*
X125673324Y-71529649D01*
X125677359Y-71531668D01*
X125680553Y-71534862D01*
X125684722Y-71536588D01*
X125688133Y-71539545D01*
X125702963Y-71544482D01*
X125716939Y-71551477D01*
X125721442Y-71551798D01*
X125725613Y-71553526D01*
X125730125Y-71553526D01*
X125734408Y-71554952D01*
X125749998Y-71553838D01*
X125765589Y-71554952D01*
X125769872Y-71553526D01*
X125774385Y-71553526D01*
X125778555Y-71551798D01*
X125783058Y-71551477D01*
X125797035Y-71544482D01*
X125811864Y-71539545D01*
X125815274Y-71536589D01*
X125819445Y-71534862D01*
X125822637Y-71531669D01*
X125826673Y-71529650D01*
X125844460Y-71512795D01*
X125906365Y-71441367D01*
X125909109Y-71437489D01*
X125910626Y-71436175D01*
X125912041Y-71433345D01*
X125920521Y-71421365D01*
X125925457Y-71406538D01*
X125932453Y-71392560D01*
X125933092Y-71383607D01*
X125935928Y-71375091D01*
X125934814Y-71359500D01*
X125935928Y-71343910D01*
X125933092Y-71335393D01*
X125932453Y-71326441D01*
X125925458Y-71312463D01*
X125920521Y-71297635D01*
X125912041Y-71285653D01*
X125910626Y-71282826D01*
X125909109Y-71281511D01*
X125906365Y-71277634D01*
X125844460Y-71206205D01*
X125826674Y-71189350D01*
X125822638Y-71187330D01*
X125819445Y-71184137D01*
X125815274Y-71182409D01*
X125811863Y-71179453D01*
X125797034Y-71174516D01*
X125783059Y-71167522D01*
X125778555Y-71167200D01*
X125774385Y-71165473D01*
X125769871Y-71165473D01*
X125765588Y-71164047D01*
X125749998Y-71165160D01*
X125734409Y-71164047D01*
X125730126Y-71165473D01*
X125725613Y-71165473D01*
X125721443Y-71167200D01*
X125716938Y-71167522D01*
X125702958Y-71174518D01*
X125688134Y-71179454D01*
X125684723Y-71182409D01*
X125680553Y-71184137D01*
X125677360Y-71187329D01*
X125673323Y-71189350D01*
X125655537Y-71206205D01*
X125593633Y-71277635D01*
X125590889Y-71281511D01*
X125589374Y-71282825D01*
X125587959Y-71285650D01*
X125579477Y-71297636D01*
X125574540Y-71312464D01*
X125567546Y-71326440D01*
X125566906Y-71335394D01*
X125564071Y-71343911D01*
X122098810Y-71343911D01*
X122098810Y-70055928D01*
X122345238Y-70055928D01*
X122369624Y-70053526D01*
X122414684Y-70034862D01*
X122449172Y-70000374D01*
X122467836Y-69955314D01*
X122467836Y-69906542D01*
X122449172Y-69861482D01*
X122414684Y-69826994D01*
X122369624Y-69808330D01*
X122345238Y-69805928D01*
X121602381Y-69805928D01*
X121577995Y-69808330D01*
X121532935Y-69826994D01*
X121498447Y-69861482D01*
X121479783Y-69906542D01*
X121308098Y-69906542D01*
X121297724Y-69896685D01*
X121275826Y-69885689D01*
X121090110Y-69814260D01*
X121071663Y-69809174D01*
X121069624Y-69808330D01*
X121068029Y-69808172D01*
X121066488Y-69807748D01*
X121064285Y-69807804D01*
X121045238Y-69805928D01*
X120735715Y-69805928D01*
X120711329Y-69808330D01*
X120703729Y-69811477D01*
X120695573Y-69812549D01*
X120673249Y-69822655D01*
X120549440Y-69894084D01*
X120538125Y-69902186D01*
X120535231Y-69903635D01*
X120532534Y-69906189D01*
X120529517Y-69908351D01*
X120527547Y-69910915D01*
X120517444Y-69920490D01*
X120455539Y-69991918D01*
X120449518Y-70000424D01*
X120447205Y-70002664D01*
X120444546Y-70007449D01*
X120441383Y-70011919D01*
X120440365Y-70014975D01*
X120435305Y-70024084D01*
X120373401Y-70166942D01*
X120365909Y-70190272D01*
X120365892Y-70191304D01*
X120365498Y-70192256D01*
X120363096Y-70216642D01*
X120117857Y-70216642D01*
X120115455Y-70192256D01*
X120115060Y-70191304D01*
X120115044Y-70190272D01*
X120107552Y-70166942D01*
X120045648Y-70024085D01*
X120040587Y-70014975D01*
X120039570Y-70011920D01*
X120036407Y-70007452D01*
X120033748Y-70002664D01*
X120031433Y-70000423D01*
X120025414Y-69991918D01*
X119963509Y-69920490D01*
X119953405Y-69910915D01*
X119951436Y-69908351D01*
X119948418Y-69906189D01*
X119945722Y-69903635D01*
X119942827Y-69902186D01*
X119931513Y-69894084D01*
X119807703Y-69822655D01*
X119785380Y-69812549D01*
X119777223Y-69811477D01*
X119769624Y-69808330D01*
X119745238Y-69805928D01*
X119250000Y-69805928D01*
X119225614Y-69808330D01*
X119180554Y-69826994D01*
X119146066Y-69861482D01*
X119127402Y-69906542D01*
X119125000Y-69930928D01*
X118958333Y-69930928D01*
X118958333Y-69639261D01*
X126102595Y-69639261D01*
X126102595Y-71722595D01*
G37*
D10*
X98633333Y-58481966D02*
X98600000Y-58515300D01*
X98600000Y-58515300D02*
X98500000Y-58548633D01*
X98500000Y-58548633D02*
X98433333Y-58548633D01*
X98433333Y-58548633D02*
X98333333Y-58515300D01*
X98333333Y-58515300D02*
X98266667Y-58448633D01*
X98266667Y-58448633D02*
X98233333Y-58381966D01*
X98233333Y-58381966D02*
X98200000Y-58248633D01*
X98200000Y-58248633D02*
X98200000Y-58148633D01*
X98200000Y-58148633D02*
X98233333Y-58015300D01*
X98233333Y-58015300D02*
X98266667Y-57948633D01*
X98266667Y-57948633D02*
X98333333Y-57881966D01*
X98333333Y-57881966D02*
X98433333Y-57848633D01*
X98433333Y-57848633D02*
X98500000Y-57848633D01*
X98500000Y-57848633D02*
X98600000Y-57881966D01*
X98600000Y-57881966D02*
X98633333Y-57915300D01*
X98900000Y-57915300D02*
X98933333Y-57881966D01*
X98933333Y-57881966D02*
X99000000Y-57848633D01*
X99000000Y-57848633D02*
X99166667Y-57848633D01*
X99166667Y-57848633D02*
X99233333Y-57881966D01*
X99233333Y-57881966D02*
X99266667Y-57915300D01*
X99266667Y-57915300D02*
X99300000Y-57981966D01*
X99300000Y-57981966D02*
X99300000Y-58048633D01*
X99300000Y-58048633D02*
X99266667Y-58148633D01*
X99266667Y-58148633D02*
X98866667Y-58548633D01*
X98866667Y-58548633D02*
X99300000Y-58548633D01*
X109799999Y-71568633D02*
X109566666Y-71235300D01*
X109399999Y-71568633D02*
X109399999Y-70868633D01*
X109399999Y-70868633D02*
X109666666Y-70868633D01*
X109666666Y-70868633D02*
X109733333Y-70901966D01*
X109733333Y-70901966D02*
X109766666Y-70935300D01*
X109766666Y-70935300D02*
X109799999Y-71001966D01*
X109799999Y-71001966D02*
X109799999Y-71101966D01*
X109799999Y-71101966D02*
X109766666Y-71168633D01*
X109766666Y-71168633D02*
X109733333Y-71201966D01*
X109733333Y-71201966D02*
X109666666Y-71235300D01*
X109666666Y-71235300D02*
X109399999Y-71235300D01*
X110466666Y-71568633D02*
X110066666Y-71568633D01*
X110266666Y-71568633D02*
X110266666Y-70868633D01*
X110266666Y-70868633D02*
X110199999Y-70968633D01*
X110199999Y-70968633D02*
X110133333Y-71035300D01*
X110133333Y-71035300D02*
X110066666Y-71068633D01*
X110900000Y-70868633D02*
X110966666Y-70868633D01*
X110966666Y-70868633D02*
X111033333Y-70901966D01*
X111033333Y-70901966D02*
X111066666Y-70935300D01*
X111066666Y-70935300D02*
X111100000Y-71001966D01*
X111100000Y-71001966D02*
X111133333Y-71135300D01*
X111133333Y-71135300D02*
X111133333Y-71301966D01*
X111133333Y-71301966D02*
X111100000Y-71435300D01*
X111100000Y-71435300D02*
X111066666Y-71501966D01*
X111066666Y-71501966D02*
X111033333Y-71535300D01*
X111033333Y-71535300D02*
X110966666Y-71568633D01*
X110966666Y-71568633D02*
X110900000Y-71568633D01*
X110900000Y-71568633D02*
X110833333Y-71535300D01*
X110833333Y-71535300D02*
X110800000Y-71501966D01*
X110800000Y-71501966D02*
X110766666Y-71435300D01*
X110766666Y-71435300D02*
X110733333Y-71301966D01*
X110733333Y-71301966D02*
X110733333Y-71135300D01*
X110733333Y-71135300D02*
X110766666Y-71001966D01*
X110766666Y-71001966D02*
X110800000Y-70935300D01*
X110800000Y-70935300D02*
X110833333Y-70901966D01*
X110833333Y-70901966D02*
X110900000Y-70868633D01*
X121133333Y-52501966D02*
X121100000Y-52535300D01*
X121100000Y-52535300D02*
X121000000Y-52568633D01*
X121000000Y-52568633D02*
X120933333Y-52568633D01*
X120933333Y-52568633D02*
X120833333Y-52535300D01*
X120833333Y-52535300D02*
X120766667Y-52468633D01*
X120766667Y-52468633D02*
X120733333Y-52401966D01*
X120733333Y-52401966D02*
X120700000Y-52268633D01*
X120700000Y-52268633D02*
X120700000Y-52168633D01*
X120700000Y-52168633D02*
X120733333Y-52035300D01*
X120733333Y-52035300D02*
X120766667Y-51968633D01*
X120766667Y-51968633D02*
X120833333Y-51901966D01*
X120833333Y-51901966D02*
X120933333Y-51868633D01*
X120933333Y-51868633D02*
X121000000Y-51868633D01*
X121000000Y-51868633D02*
X121100000Y-51901966D01*
X121100000Y-51901966D02*
X121133333Y-51935300D01*
X121366667Y-51868633D02*
X121833333Y-51868633D01*
X121833333Y-51868633D02*
X121533333Y-52568633D01*
X109246666Y-56318633D02*
X109246666Y-55618633D01*
X109979999Y-56251966D02*
X109946666Y-56285300D01*
X109946666Y-56285300D02*
X109846666Y-56318633D01*
X109846666Y-56318633D02*
X109779999Y-56318633D01*
X109779999Y-56318633D02*
X109679999Y-56285300D01*
X109679999Y-56285300D02*
X109613333Y-56218633D01*
X109613333Y-56218633D02*
X109579999Y-56151966D01*
X109579999Y-56151966D02*
X109546666Y-56018633D01*
X109546666Y-56018633D02*
X109546666Y-55918633D01*
X109546666Y-55918633D02*
X109579999Y-55785300D01*
X109579999Y-55785300D02*
X109613333Y-55718633D01*
X109613333Y-55718633D02*
X109679999Y-55651966D01*
X109679999Y-55651966D02*
X109779999Y-55618633D01*
X109779999Y-55618633D02*
X109846666Y-55618633D01*
X109846666Y-55618633D02*
X109946666Y-55651966D01*
X109946666Y-55651966D02*
X109979999Y-55685300D01*
X110646666Y-56318633D02*
X110246666Y-56318633D01*
X110446666Y-56318633D02*
X110446666Y-55618633D01*
X110446666Y-55618633D02*
X110379999Y-55718633D01*
X110379999Y-55718633D02*
X110313333Y-55785300D01*
X110313333Y-55785300D02*
X110246666Y-55818633D01*
X100946667Y-75568633D02*
X100613333Y-75568633D01*
X100613333Y-75568633D02*
X100613333Y-74868633D01*
X101180000Y-75201966D02*
X101413334Y-75201966D01*
X101513334Y-75568633D02*
X101180000Y-75568633D01*
X101180000Y-75568633D02*
X101180000Y-74868633D01*
X101180000Y-74868633D02*
X101513334Y-74868633D01*
X101813333Y-75568633D02*
X101813333Y-74868633D01*
X101813333Y-74868633D02*
X101980000Y-74868633D01*
X101980000Y-74868633D02*
X102080000Y-74901966D01*
X102080000Y-74901966D02*
X102146667Y-74968633D01*
X102146667Y-74968633D02*
X102180000Y-75035300D01*
X102180000Y-75035300D02*
X102213333Y-75168633D01*
X102213333Y-75168633D02*
X102213333Y-75268633D01*
X102213333Y-75268633D02*
X102180000Y-75401966D01*
X102180000Y-75401966D02*
X102146667Y-75468633D01*
X102146667Y-75468633D02*
X102080000Y-75535300D01*
X102080000Y-75535300D02*
X101980000Y-75568633D01*
X101980000Y-75568633D02*
X101813333Y-75568633D01*
X102880000Y-75568633D02*
X102480000Y-75568633D01*
X102680000Y-75568633D02*
X102680000Y-74868633D01*
X102680000Y-74868633D02*
X102613333Y-74968633D01*
X102613333Y-74968633D02*
X102546667Y-75035300D01*
X102546667Y-75035300D02*
X102480000Y-75068633D01*
X101509999Y-71751966D02*
X101476666Y-71785300D01*
X101476666Y-71785300D02*
X101376666Y-71818633D01*
X101376666Y-71818633D02*
X101309999Y-71818633D01*
X101309999Y-71818633D02*
X101209999Y-71785300D01*
X101209999Y-71785300D02*
X101143333Y-71718633D01*
X101143333Y-71718633D02*
X101109999Y-71651966D01*
X101109999Y-71651966D02*
X101076666Y-71518633D01*
X101076666Y-71518633D02*
X101076666Y-71418633D01*
X101076666Y-71418633D02*
X101109999Y-71285300D01*
X101109999Y-71285300D02*
X101143333Y-71218633D01*
X101143333Y-71218633D02*
X101209999Y-71151966D01*
X101209999Y-71151966D02*
X101309999Y-71118633D01*
X101309999Y-71118633D02*
X101376666Y-71118633D01*
X101376666Y-71118633D02*
X101476666Y-71151966D01*
X101476666Y-71151966D02*
X101509999Y-71185300D01*
X102176666Y-71818633D02*
X101776666Y-71818633D01*
X101976666Y-71818633D02*
X101976666Y-71118633D01*
X101976666Y-71118633D02*
X101909999Y-71218633D01*
X101909999Y-71218633D02*
X101843333Y-71285300D01*
X101843333Y-71285300D02*
X101776666Y-71318633D01*
X102843333Y-71818633D02*
X102443333Y-71818633D01*
X102643333Y-71818633D02*
X102643333Y-71118633D01*
X102643333Y-71118633D02*
X102576666Y-71218633D01*
X102576666Y-71218633D02*
X102510000Y-71285300D01*
X102510000Y-71285300D02*
X102443333Y-71318633D01*
D13*
X95684819Y-72991904D02*
X94684819Y-72991904D01*
X95161009Y-72991904D02*
X95161009Y-72420476D01*
X95684819Y-72420476D02*
X94684819Y-72420476D01*
X95684819Y-71420476D02*
X95684819Y-71991904D01*
X95684819Y-71706190D02*
X94684819Y-71706190D01*
X94684819Y-71706190D02*
X94827676Y-71801428D01*
X94827676Y-71801428D02*
X94922914Y-71896666D01*
X94922914Y-71896666D02*
X94970533Y-71991904D01*
D10*
X121459167Y-56201966D02*
X121225833Y-56201966D01*
X121225833Y-56568633D02*
X121225833Y-55868633D01*
X121225833Y-55868633D02*
X121559167Y-55868633D01*
X122192500Y-56568633D02*
X121792500Y-56568633D01*
X121992500Y-56568633D02*
X121992500Y-55868633D01*
X121992500Y-55868633D02*
X121925833Y-55968633D01*
X121925833Y-55968633D02*
X121859167Y-56035300D01*
X121859167Y-56035300D02*
X121792500Y-56068633D01*
X94216666Y-66118633D02*
X94216666Y-66685300D01*
X94216666Y-66685300D02*
X94250000Y-66751966D01*
X94250000Y-66751966D02*
X94283333Y-66785300D01*
X94283333Y-66785300D02*
X94350000Y-66818633D01*
X94350000Y-66818633D02*
X94483333Y-66818633D01*
X94483333Y-66818633D02*
X94550000Y-66785300D01*
X94550000Y-66785300D02*
X94583333Y-66751966D01*
X94583333Y-66751966D02*
X94616666Y-66685300D01*
X94616666Y-66685300D02*
X94616666Y-66118633D01*
X95316666Y-66818633D02*
X94916666Y-66818633D01*
X95116666Y-66818633D02*
X95116666Y-66118633D01*
X95116666Y-66118633D02*
X95049999Y-66218633D01*
X95049999Y-66218633D02*
X94983333Y-66285300D01*
X94983333Y-66285300D02*
X94916666Y-66318633D01*
D14*
%TO.C,C6*%
X120870000Y-72642164D02*
X120870000Y-72857836D01*
X121590000Y-72642164D02*
X121590000Y-72857836D01*
%TO.C,C10*%
X94837836Y-61620000D02*
X94622164Y-61620000D01*
X94837836Y-62340000D02*
X94622164Y-62340000D01*
%TO.C,SW1*%
X122830000Y-53230000D02*
X125630000Y-53230000D01*
X122830000Y-55230000D02*
X122830000Y-53230000D01*
X125630000Y-53230000D02*
X125630000Y-55230000D01*
X125630000Y-55230000D02*
X122830000Y-55230000D01*
%TO.C,R1*%
X125850000Y-67873641D02*
X125850000Y-67566359D01*
X126610000Y-67873641D02*
X126610000Y-67566359D01*
%TO.C,R7*%
X118850000Y-55383641D02*
X118850000Y-55076359D01*
X119610000Y-55383641D02*
X119610000Y-55076359D01*
%TO.C,C4*%
X121122164Y-62870000D02*
X121337836Y-62870000D01*
X121122164Y-63590000D02*
X121337836Y-63590000D01*
%TO.C,R3*%
X100100000Y-65883641D02*
X100100000Y-65576359D01*
X100860000Y-65883641D02*
X100860000Y-65576359D01*
%TO.C,R8*%
X114383641Y-70400000D02*
X114076359Y-70400000D01*
X114383641Y-71160000D02*
X114076359Y-71160000D01*
%TO.C,C9*%
X117120000Y-73672164D02*
X117120000Y-73887836D01*
X117840000Y-73672164D02*
X117840000Y-73887836D01*
%TO.C,R9*%
X104100000Y-71133641D02*
X104100000Y-70826359D01*
X104860000Y-71133641D02*
X104860000Y-70826359D01*
%TO.C,Q1*%
X107292500Y-71370000D02*
X106642500Y-71370000D01*
X107292500Y-71370000D02*
X107942500Y-71370000D01*
X107292500Y-74490000D02*
X106642500Y-74490000D01*
X107292500Y-74490000D02*
X107942500Y-74490000D01*
X108695000Y-74770000D02*
X108215000Y-74770000D01*
X108455000Y-74440000D01*
X108695000Y-74770000D01*
G36*
X108695000Y-74770000D02*
G01*
X108215000Y-74770000D01*
X108455000Y-74440000D01*
X108695000Y-74770000D01*
G37*
D11*
%TO.C,IC3*%
X113480000Y-71505000D02*
G75*
G02*
X113230000Y-71505000I-125000J0D01*
G01*
X113230000Y-71505000D02*
G75*
G02*
X113480000Y-71505000I125000J0D01*
G01*
D15*
%TO.C,G\u002A\u002A\u002A*%
G36*
X94452931Y-53642080D02*
G01*
X94452931Y-54066926D01*
X94757949Y-54066926D01*
X95062967Y-54066926D01*
X95062967Y-53642080D01*
X95062967Y-53217234D01*
X95228185Y-53217234D01*
X95393403Y-53217234D01*
X95393403Y-53642080D01*
X95393403Y-54066926D01*
X95687527Y-54066926D01*
X95981651Y-54066926D01*
X95981651Y-53647527D01*
X95981651Y-53228127D01*
X96148685Y-53228127D01*
X96315718Y-53228127D01*
X96315718Y-53647332D01*
X96315718Y-54066538D01*
X96489107Y-54067873D01*
X96531087Y-54068202D01*
X96566549Y-54068546D01*
X96596235Y-54068991D01*
X96620887Y-54069621D01*
X96641249Y-54070521D01*
X96658064Y-54071777D01*
X96672075Y-54073474D01*
X96684024Y-54075697D01*
X96694654Y-54078530D01*
X96704710Y-54082060D01*
X96714932Y-54086372D01*
X96726065Y-54091549D01*
X96735602Y-54096121D01*
X96773897Y-54118442D01*
X96808566Y-54146582D01*
X96838690Y-54179621D01*
X96863346Y-54216638D01*
X96871141Y-54231661D01*
X96877550Y-54245147D01*
X96882846Y-54257002D01*
X96887144Y-54268088D01*
X96890558Y-54279267D01*
X96893201Y-54291400D01*
X96895188Y-54305348D01*
X96896631Y-54321974D01*
X96897646Y-54342139D01*
X96898345Y-54366704D01*
X96898842Y-54396531D01*
X96899252Y-54432482D01*
X96899384Y-54445475D01*
X96900798Y-54586183D01*
X97316335Y-54586183D01*
X97731873Y-54586183D01*
X97731873Y-54751401D01*
X97731873Y-54916619D01*
X97316104Y-54916619D01*
X96900336Y-54916619D01*
X96900336Y-55237977D01*
X96900336Y-55559335D01*
X97316104Y-55559335D01*
X97731873Y-55559335D01*
X97731873Y-55724553D01*
X97731873Y-55889771D01*
X97316104Y-55889771D01*
X96900336Y-55889771D01*
X96900336Y-56211129D01*
X96900336Y-56532487D01*
X97316104Y-56532487D01*
X97731873Y-56532487D01*
X97731873Y-56699521D01*
X97731873Y-56866554D01*
X97316328Y-56866554D01*
X96900784Y-56866554D01*
X96899385Y-57012709D01*
X96898995Y-57051473D01*
X96898562Y-57083812D01*
X96897977Y-57110567D01*
X96897134Y-57132573D01*
X96895924Y-57150671D01*
X96894238Y-57165697D01*
X96891970Y-57178491D01*
X96889010Y-57189890D01*
X96885252Y-57200733D01*
X96880587Y-57211857D01*
X96874906Y-57224101D01*
X96871141Y-57231970D01*
X96848820Y-57270265D01*
X96820680Y-57304935D01*
X96787641Y-57335058D01*
X96750624Y-57359715D01*
X96735602Y-57367510D01*
X96723222Y-57373429D01*
X96712326Y-57378408D01*
X96702164Y-57382534D01*
X96691989Y-57385893D01*
X96681052Y-57388572D01*
X96668604Y-57390657D01*
X96653897Y-57392234D01*
X96636183Y-57393390D01*
X96614714Y-57394210D01*
X96588741Y-57394783D01*
X96557515Y-57395193D01*
X96520288Y-57395528D01*
X96490922Y-57395758D01*
X96319350Y-57397096D01*
X96319350Y-57819931D01*
X96319350Y-58242766D01*
X96154132Y-58242766D01*
X95988914Y-58242766D01*
X95988914Y-57819735D01*
X95988914Y-57396705D01*
X95691158Y-57396705D01*
X95393403Y-57396705D01*
X95393403Y-57819735D01*
X95393403Y-58242766D01*
X95228185Y-58242766D01*
X95062967Y-58242766D01*
X95062967Y-57819735D01*
X95062967Y-57396705D01*
X94761580Y-57396705D01*
X94460193Y-57396705D01*
X94460193Y-57814289D01*
X94460193Y-58231873D01*
X94294975Y-58231873D01*
X94129757Y-58231873D01*
X94129757Y-57814496D01*
X94129757Y-57397118D01*
X93969078Y-57395756D01*
X93928579Y-57395402D01*
X93894558Y-57395021D01*
X93866232Y-57394520D01*
X93842817Y-57393803D01*
X93823531Y-57392776D01*
X93807589Y-57391344D01*
X93794209Y-57389413D01*
X93782606Y-57386888D01*
X93771997Y-57383674D01*
X93761599Y-57379677D01*
X93750628Y-57374802D01*
X93738301Y-57368954D01*
X93735292Y-57367510D01*
X93696997Y-57345188D01*
X93662327Y-57317048D01*
X93632204Y-57284010D01*
X93607548Y-57246993D01*
X93599753Y-57231970D01*
X93593471Y-57218773D01*
X93588256Y-57207169D01*
X93584000Y-57196326D01*
X93580598Y-57185413D01*
X93577943Y-57173601D01*
X93575929Y-57160058D01*
X93574450Y-57143953D01*
X93573400Y-57124456D01*
X93572673Y-57100736D01*
X93572162Y-57071962D01*
X93571763Y-57037303D01*
X93571508Y-57010893D01*
X93570115Y-56862923D01*
X93150937Y-56862923D01*
X92731759Y-56862923D01*
X92731759Y-56697705D01*
X92731759Y-56532487D01*
X93151158Y-56532487D01*
X93570558Y-56532487D01*
X93570558Y-56697705D01*
X93570558Y-56862923D01*
X93995404Y-56862923D01*
X94063026Y-56862907D01*
X94123692Y-56862857D01*
X94177706Y-56862769D01*
X94225374Y-56862640D01*
X94267001Y-56862468D01*
X94302893Y-56862249D01*
X94333355Y-56861980D01*
X94358693Y-56861658D01*
X94379211Y-56861279D01*
X94395215Y-56860841D01*
X94407011Y-56860341D01*
X94414904Y-56859775D01*
X94419199Y-56859140D01*
X94420250Y-56858566D01*
X94421369Y-56856095D01*
X94424690Y-56858648D01*
X94426687Y-56858646D01*
X94430758Y-56856274D01*
X94437244Y-56851210D01*
X94446490Y-56843133D01*
X94458840Y-56831722D01*
X94474635Y-56816654D01*
X94494220Y-56797607D01*
X94517937Y-56774260D01*
X94546131Y-56746292D01*
X94570844Y-56721665D01*
X94712559Y-56580243D01*
X94734346Y-56583941D01*
X94754020Y-56585798D01*
X94778086Y-56585825D01*
X94803946Y-56584168D01*
X94829003Y-56580970D01*
X94845097Y-56577793D01*
X94869209Y-56570202D01*
X94896078Y-56558629D01*
X94923380Y-56544282D01*
X94948796Y-56528370D01*
X94968234Y-56513630D01*
X94983973Y-56499844D01*
X94994348Y-56489702D01*
X94999868Y-56482571D01*
X95001039Y-56477817D01*
X94999024Y-56475193D01*
X94992762Y-56470703D01*
X94982184Y-56462672D01*
X94968621Y-56452121D01*
X94960030Y-56445341D01*
X94954750Y-56440845D01*
X94944656Y-56431957D01*
X94930302Y-56419177D01*
X94912239Y-56403005D01*
X94891020Y-56383943D01*
X94867198Y-56362490D01*
X94841326Y-56339148D01*
X94813955Y-56314417D01*
X94785640Y-56288798D01*
X94756931Y-56262792D01*
X94728383Y-56236898D01*
X94700547Y-56211618D01*
X94673976Y-56187453D01*
X94649223Y-56164902D01*
X94626841Y-56144467D01*
X94607382Y-56126649D01*
X94591398Y-56111947D01*
X94579442Y-56100863D01*
X94572068Y-56093897D01*
X94571692Y-56093532D01*
X94547022Y-56069514D01*
X94539669Y-56078592D01*
X94511790Y-56118249D01*
X94490018Y-56160564D01*
X94474805Y-56204572D01*
X94469342Y-56229459D01*
X94465313Y-56257944D01*
X94464083Y-56283350D01*
X94465601Y-56309280D01*
X94467954Y-56327560D01*
X94472083Y-56355324D01*
X94383557Y-56443906D01*
X94295031Y-56532487D01*
X93932794Y-56532487D01*
X93570558Y-56532487D01*
X93570558Y-56211129D01*
X93570558Y-55889771D01*
X93151158Y-55889771D01*
X92731759Y-55889771D01*
X92731759Y-55724553D01*
X92731759Y-55559335D01*
X93151158Y-55559335D01*
X93570558Y-55559335D01*
X93570558Y-55330967D01*
X94203312Y-55330967D01*
X94206396Y-55396634D01*
X94216173Y-55463916D01*
X94232572Y-55532608D01*
X94255518Y-55602507D01*
X94284939Y-55673407D01*
X94320762Y-55745104D01*
X94362915Y-55817393D01*
X94411325Y-55890070D01*
X94465918Y-55962930D01*
X94503549Y-56008946D01*
X94516253Y-56023992D01*
X94527636Y-56037480D01*
X94536707Y-56048235D01*
X94542474Y-56055082D01*
X94543624Y-56056450D01*
X94546491Y-56059097D01*
X94549928Y-56059481D01*
X94555190Y-56057011D01*
X94563530Y-56051096D01*
X94576202Y-56041147D01*
X94576304Y-56041065D01*
X94600069Y-56024359D01*
X94627912Y-56008356D01*
X94657049Y-55994485D01*
X94684697Y-55984171D01*
X94690772Y-55982392D01*
X94712829Y-55977973D01*
X94739465Y-55975154D01*
X94768158Y-55974002D01*
X94796389Y-55974588D01*
X94821636Y-55976981D01*
X94830811Y-55978554D01*
X94875545Y-55991186D01*
X94917109Y-56010087D01*
X94955012Y-56034776D01*
X94988762Y-56064771D01*
X95017868Y-56099592D01*
X95041839Y-56138757D01*
X95060183Y-56181785D01*
X95068894Y-56211750D01*
X95072149Y-56230861D01*
X95074199Y-56254525D01*
X95075013Y-56280283D01*
X95074559Y-56305675D01*
X95072803Y-56328242D01*
X95070608Y-56341851D01*
X95060674Y-56376309D01*
X95046332Y-56411223D01*
X95029079Y-56443015D01*
X95026742Y-56446668D01*
X95009085Y-56473715D01*
X95069614Y-56517114D01*
X95101557Y-56539834D01*
X95131386Y-56560692D01*
X95158595Y-56579355D01*
X95182677Y-56595492D01*
X95203128Y-56608770D01*
X95219440Y-56618857D01*
X95231109Y-56625421D01*
X95237628Y-56628131D01*
X95238640Y-56628086D01*
X95242920Y-56625377D01*
X95252122Y-56619367D01*
X95265127Y-56610794D01*
X95280819Y-56600391D01*
X95291730Y-56593131D01*
X95394719Y-56522281D01*
X95492965Y-56450199D01*
X95586263Y-56377096D01*
X95674407Y-56303188D01*
X95757193Y-56228686D01*
X95834414Y-56153805D01*
X95905866Y-56078757D01*
X95971343Y-56003755D01*
X96030641Y-55929013D01*
X96083553Y-55854744D01*
X96129874Y-55781161D01*
X96169400Y-55708477D01*
X96193825Y-55656155D01*
X96221492Y-55585462D01*
X96242684Y-55516160D01*
X96257407Y-55448467D01*
X96265664Y-55382606D01*
X96267463Y-55318797D01*
X96262808Y-55257260D01*
X96251704Y-55198215D01*
X96234158Y-55141884D01*
X96210175Y-55088487D01*
X96179760Y-55038244D01*
X96178510Y-55036447D01*
X96143176Y-54992135D01*
X96102733Y-54952757D01*
X96057674Y-54918631D01*
X96008496Y-54890071D01*
X95955693Y-54867393D01*
X95899759Y-54850915D01*
X95882097Y-54847160D01*
X95856850Y-54843467D01*
X95827262Y-54841051D01*
X95795798Y-54839963D01*
X95764923Y-54840253D01*
X95737105Y-54841972D01*
X95722023Y-54843850D01*
X95661526Y-54857094D01*
X95603496Y-54877123D01*
X95548069Y-54903841D01*
X95495377Y-54937157D01*
X95445556Y-54976976D01*
X95398739Y-55023206D01*
X95355061Y-55075753D01*
X95322816Y-55121742D01*
X95310933Y-55141244D01*
X95297397Y-55165511D01*
X95283232Y-55192558D01*
X95269462Y-55220399D01*
X95257113Y-55247047D01*
X95251598Y-55259764D01*
X95245322Y-55274580D01*
X95240136Y-55286670D01*
X95236650Y-55294623D01*
X95235490Y-55297064D01*
X95233906Y-55294576D01*
X95230726Y-55287128D01*
X95228272Y-55280724D01*
X95222337Y-55266213D01*
X95213671Y-55247012D01*
X95203097Y-55224767D01*
X95191437Y-55201122D01*
X95179512Y-55177722D01*
X95168146Y-55156211D01*
X95158161Y-55138234D01*
X95151542Y-55127226D01*
X95111736Y-55070531D01*
X95068574Y-55019536D01*
X95022343Y-54974468D01*
X94973334Y-54935553D01*
X94921835Y-54903021D01*
X94868136Y-54877098D01*
X94812526Y-54858011D01*
X94807202Y-54856574D01*
X94776874Y-54849229D01*
X94749653Y-54844273D01*
X94722648Y-54841343D01*
X94692964Y-54840079D01*
X94674272Y-54839964D01*
X94615813Y-54843626D01*
X94559528Y-54853998D01*
X94505837Y-54870744D01*
X94455164Y-54893527D01*
X94407928Y-54922008D01*
X94364553Y-54955850D01*
X94325459Y-54994717D01*
X94291068Y-55038271D01*
X94261802Y-55086175D01*
X94238083Y-55138092D01*
X94220332Y-55193683D01*
X94217516Y-55205296D01*
X94206994Y-55267120D01*
X94203312Y-55330967D01*
X93570558Y-55330967D01*
X93570558Y-55236161D01*
X93570558Y-54912988D01*
X93151158Y-54912988D01*
X92731759Y-54912988D01*
X92731759Y-54747770D01*
X92731759Y-54582552D01*
X93150925Y-54582552D01*
X93570091Y-54582552D01*
X93571511Y-54443660D01*
X93571922Y-54405780D01*
X93572387Y-54374293D01*
X93573022Y-54348329D01*
X93573943Y-54327017D01*
X93575266Y-54309488D01*
X93577107Y-54294872D01*
X93579581Y-54282300D01*
X93582804Y-54270901D01*
X93586892Y-54259806D01*
X93591962Y-54248145D01*
X93598129Y-54235048D01*
X93599753Y-54231661D01*
X93622074Y-54193365D01*
X93650214Y-54158696D01*
X93683253Y-54128572D01*
X93720269Y-54103916D01*
X93735292Y-54096121D01*
X93748154Y-54089988D01*
X93759469Y-54084867D01*
X93770032Y-54080663D01*
X93780640Y-54077276D01*
X93792089Y-54074610D01*
X93805176Y-54072565D01*
X93820695Y-54071046D01*
X93839445Y-54069954D01*
X93862220Y-54069190D01*
X93889818Y-54068659D01*
X93923034Y-54068261D01*
X93962665Y-54067899D01*
X93965447Y-54067875D01*
X94122495Y-54066504D01*
X94122495Y-53641869D01*
X94122495Y-53217234D01*
X94287713Y-53217234D01*
X94452931Y-53217234D01*
X94452931Y-53642080D01*
G37*
D14*
%TO.C,R2*%
X126850000Y-67873641D02*
X126850000Y-67566359D01*
X127610000Y-67873641D02*
X127610000Y-67566359D01*
%TO.C,C5*%
X119370000Y-63392164D02*
X119370000Y-63607836D01*
X120090000Y-63392164D02*
X120090000Y-63607836D01*
%TO.C,C1*%
X99720000Y-55370580D02*
X99720000Y-55089420D01*
X100740000Y-55370580D02*
X100740000Y-55089420D01*
%TO.C,R5*%
X100100000Y-63076359D02*
X100100000Y-63383641D01*
X100860000Y-63076359D02*
X100860000Y-63383641D01*
%TO.C,R11*%
X104100000Y-73076359D02*
X104100000Y-73383641D01*
X104860000Y-73076359D02*
X104860000Y-73383641D01*
%TO.C,C8*%
X112120000Y-72672164D02*
X112120000Y-72887836D01*
X112840000Y-72672164D02*
X112840000Y-72887836D01*
%TO.C,J1*%
X128130000Y-56560000D02*
X126430000Y-56560000D01*
X128130000Y-65900000D02*
X126430000Y-65900000D01*
D16*
%TO.C,IC2*%
X120605000Y-58980000D02*
X121355000Y-58980000D01*
X120605000Y-61980000D02*
X120605000Y-58980000D01*
X121355000Y-58980000D02*
X121355000Y-61980000D01*
X121355000Y-61980000D02*
X120605000Y-61980000D01*
X122855000Y-61980000D02*
X121705000Y-61980000D01*
%TO.C,RST   .*%
X129230000Y-72130000D02*
X129230000Y-72130000D01*
X129230000Y-72330000D02*
X129230000Y-72330000D01*
X129230000Y-72130000D02*
G75*
G02*
X129230000Y-72330000I0J-100000D01*
G01*
X129230000Y-72330000D02*
G75*
G02*
X129230000Y-72130000I0J100000D01*
G01*
D14*
%TO.C,C2*%
X99870000Y-58122164D02*
X99870000Y-58337836D01*
X100590000Y-58122164D02*
X100590000Y-58337836D01*
%TO.C,R10*%
X109600000Y-72883641D02*
X109600000Y-72576359D01*
X110360000Y-72883641D02*
X110360000Y-72576359D01*
%TO.C,C3*%
X118870000Y-53337836D02*
X118870000Y-53122164D01*
X119590000Y-53337836D02*
X119590000Y-53122164D01*
%TO.C,C7*%
X120870000Y-53857836D02*
X120870000Y-53642164D01*
X121590000Y-53857836D02*
X121590000Y-53642164D01*
D10*
%TO.C,IC1*%
X101630000Y-54280000D02*
X101630000Y-54280000D01*
X101730000Y-54280000D02*
X101730000Y-54280000D01*
D16*
X102230000Y-47430000D02*
X117630000Y-47430000D01*
X102230000Y-67930000D02*
X102230000Y-47430000D01*
X117630000Y-47430000D02*
X117630000Y-67930000D01*
X117630000Y-67930000D02*
X102230000Y-67930000D01*
D10*
X101630000Y-54280000D02*
G75*
G02*
X101730000Y-54280000I50000J0D01*
G01*
X101730000Y-54280000D02*
G75*
G02*
X101630000Y-54280000I-50000J0D01*
G01*
D16*
%TO.C,LED1*%
X101530000Y-72130000D02*
X101930000Y-72130000D01*
X101530000Y-73930000D02*
X101930000Y-73930000D01*
D10*
X103230000Y-72580000D02*
X103230000Y-72580000D01*
X103330000Y-72580000D02*
X103330000Y-72580000D01*
X103230000Y-72580000D02*
G75*
G02*
X103330000Y-72580000I50000J0D01*
G01*
X103330000Y-72580000D02*
G75*
G02*
X103230000Y-72580000I-50000J0D01*
G01*
D14*
%TO.C,C11*%
X102067836Y-70120000D02*
X101852164Y-70120000D01*
X102067836Y-70840000D02*
X101852164Y-70840000D01*
%TO.C,F1*%
X121529721Y-56970000D02*
X121855279Y-56970000D01*
X121529721Y-57990000D02*
X121855279Y-57990000D01*
D10*
%TO.C,U1*%
X94380000Y-65430000D02*
X94380000Y-65430000D01*
X94380000Y-65530000D02*
X94380000Y-65530000D01*
X94380000Y-65430000D02*
G75*
G02*
X94380000Y-65530000I0J-50000D01*
G01*
X94380000Y-65530000D02*
G75*
G02*
X94380000Y-65430000I0J50000D01*
G01*
%TD*%
%LPC*%
D17*
%TO.C,C6*%
X121230000Y-72270000D03*
X121230000Y-73230000D03*
%TD*%
D18*
%TO.C,C10*%
X95210000Y-61980000D03*
X94250000Y-61980000D03*
%TD*%
D19*
%TO.C,SW1*%
X124880000Y-54230000D03*
X123580000Y-54230000D03*
%TD*%
D20*
%TO.C,R1*%
X126230000Y-68230000D03*
X126230000Y-67210000D03*
%TD*%
%TO.C,R7*%
X119230000Y-55740000D03*
X119230000Y-54720000D03*
%TD*%
D21*
%TO.C,C4*%
X120750000Y-63230000D03*
X121710000Y-63230000D03*
%TD*%
D20*
%TO.C,R3*%
X100480000Y-66240000D03*
X100480000Y-65220000D03*
%TD*%
D22*
%TO.C,R8*%
X114740000Y-70780000D03*
X113720000Y-70780000D03*
%TD*%
D17*
%TO.C,C9*%
X117480000Y-73300000D03*
X117480000Y-74260000D03*
%TD*%
D20*
%TO.C,R9*%
X104480000Y-71490000D03*
X104480000Y-70470000D03*
%TD*%
D23*
%TO.C,Q1*%
X108230000Y-73880000D03*
X108230000Y-71980000D03*
X106355000Y-72930000D03*
%TD*%
D24*
%TO.C,IC3*%
X113730000Y-72230000D03*
X113730000Y-73030000D03*
X113730000Y-73830000D03*
X116230000Y-73830000D03*
X116230000Y-73030000D03*
X116230000Y-72230000D03*
D25*
X114980000Y-73030000D03*
%TD*%
D20*
%TO.C,R2*%
X127230000Y-68230000D03*
X127230000Y-67210000D03*
%TD*%
D17*
%TO.C,C5*%
X119730000Y-63020000D03*
X119730000Y-63980000D03*
%TD*%
D26*
%TO.C,C1*%
X100230000Y-56005000D03*
X100230000Y-54455000D03*
%TD*%
D27*
%TO.C,R5*%
X100480000Y-62720000D03*
X100480000Y-63740000D03*
%TD*%
D28*
%TO.C,H2*%
X127230000Y-50230000D03*
%TD*%
D27*
%TO.C,R11*%
X104480000Y-72720000D03*
X104480000Y-73740000D03*
%TD*%
D17*
%TO.C,C8*%
X112480000Y-72300000D03*
X112480000Y-73260000D03*
%TD*%
D29*
%TO.C,J1*%
X125625000Y-64120000D03*
X125625000Y-58340000D03*
D30*
X124550000Y-64430000D03*
X124550000Y-63630000D03*
D31*
X124550000Y-62480000D03*
X124550000Y-61480000D03*
X124550000Y-60980000D03*
X124550000Y-59980000D03*
D30*
X124550000Y-58830000D03*
X124550000Y-58030000D03*
X124550000Y-58030000D03*
X124550000Y-58830000D03*
D31*
X124550000Y-59480000D03*
X124550000Y-60480000D03*
X124550000Y-61980000D03*
X124550000Y-62980000D03*
D30*
X124550000Y-63630000D03*
X124550000Y-64430000D03*
D32*
X125125000Y-65550000D03*
D33*
X129305000Y-65550000D03*
D32*
X125125000Y-56910000D03*
D33*
X129305000Y-56910000D03*
%TD*%
D34*
%TO.C,IC2*%
X122280000Y-61430000D03*
X122280000Y-60480000D03*
X122280000Y-59530000D03*
X119680000Y-59530000D03*
X119680000Y-61430000D03*
%TD*%
D35*
%TO.C,RST   .*%
X128305000Y-72230000D03*
X124155000Y-72230000D03*
D36*
X127805000Y-70705000D03*
X124655000Y-70705000D03*
X124655000Y-73755000D03*
X127805000Y-73755000D03*
%TD*%
D17*
%TO.C,C2*%
X100230000Y-57750000D03*
X100230000Y-58710000D03*
%TD*%
D20*
%TO.C,R10*%
X109980000Y-73240000D03*
X109980000Y-72220000D03*
%TD*%
D37*
%TO.C,C3*%
X119230000Y-53710000D03*
X119230000Y-52750000D03*
%TD*%
%TO.C,C7*%
X121230000Y-54230000D03*
X121230000Y-53270000D03*
%TD*%
D38*
%TO.C,IC1*%
X102930000Y-54280000D03*
X102930000Y-55130000D03*
X102930000Y-55980000D03*
X102930000Y-56830000D03*
X102930000Y-57680000D03*
X102930000Y-58530000D03*
X102930000Y-59380000D03*
X102930000Y-60230000D03*
X102930000Y-61080000D03*
X102930000Y-61930000D03*
X102930000Y-62780000D03*
X102930000Y-63630000D03*
X102930000Y-64480000D03*
X102930000Y-65330000D03*
X102930000Y-66180000D03*
D39*
X103980000Y-67230000D03*
X104830000Y-67230000D03*
X105680000Y-67230000D03*
X106530000Y-67230000D03*
X107380000Y-67230000D03*
X108230000Y-67230000D03*
X109080000Y-67230000D03*
X109930000Y-67230000D03*
X110780000Y-67230000D03*
X111630000Y-67230000D03*
X112480000Y-67230000D03*
X113330000Y-67230000D03*
X114180000Y-67230000D03*
X115030000Y-67230000D03*
X115880000Y-67230000D03*
D38*
X116930000Y-66180000D03*
X116930000Y-65330000D03*
X116930000Y-64480000D03*
X116930000Y-63630000D03*
X116930000Y-62780000D03*
X116930000Y-61930000D03*
X116930000Y-61080000D03*
X116930000Y-60230000D03*
X116930000Y-59380000D03*
X116930000Y-58530000D03*
X116930000Y-57680000D03*
X116930000Y-56830000D03*
X116930000Y-55980000D03*
X116930000Y-55130000D03*
X116930000Y-54280000D03*
D39*
X115880000Y-53230000D03*
X115030000Y-53230000D03*
X114180000Y-53230000D03*
X113330000Y-53230000D03*
X112480000Y-53230000D03*
X111630000Y-53230000D03*
X110780000Y-53230000D03*
X109930000Y-53230000D03*
X109080000Y-53230000D03*
X108230000Y-53230000D03*
X107380000Y-53230000D03*
X106530000Y-53230000D03*
X105680000Y-53230000D03*
X104830000Y-53230000D03*
X103980000Y-53230000D03*
D40*
X109930000Y-60230000D03*
D41*
X102930000Y-53230000D03*
X102930000Y-67230000D03*
X116930000Y-67230000D03*
X116930000Y-53230000D03*
D40*
X108280000Y-58580000D03*
X108280000Y-60230000D03*
X108280000Y-61880000D03*
X109930000Y-61880000D03*
X111580000Y-61880000D03*
X111580000Y-60230000D03*
X111580000Y-58580000D03*
X109930000Y-58580000D03*
%TD*%
D42*
%TO.C,LED1*%
X102480000Y-72580000D03*
X100980000Y-72580000D03*
X100980000Y-73480000D03*
X102480000Y-73480000D03*
%TD*%
D18*
%TO.C,C11*%
X102440000Y-70480000D03*
X101480000Y-70480000D03*
%TD*%
D28*
%TO.C,H1*%
X95230000Y-72230000D03*
%TD*%
D43*
%TO.C,F1*%
X120905000Y-57480000D03*
X122480000Y-57480000D03*
%TD*%
D44*
%TO.C,U1*%
X94380000Y-64730000D03*
X95180000Y-64730000D03*
X95180000Y-63330000D03*
X94380000Y-63330000D03*
%TD*%
%LPD*%
M02*
