M48
; DRILL file {KiCad 8.0.7} date 2025-10-25T23:35:46+0200
; FORMAT={-:-/ absolute / inch / decimal}
; #@! TF.CreationDate,2025-10-25T23:35:46+02:00
; #@! TF.GenerationSoftware,Kicad,Pcbnew,8.0.7
; #@! TF.FileFunction,Plated,1,2,PTH
FMAT,2
INCH
; #@! TA.AperFunction,Plated,PTH,ViaDrill
T1C0.0118
; #@! TA.AperFunction,Plated,PTH,ComponentDrill
T2C0.0236
%
G90
G05
T1
X3.6516Y-2.0965
X3.6516Y-2.2835
X3.6909Y-2.5098
X3.7894Y-2.4902
X3.8681Y-2.7559
X3.878Y-2.2539
X3.8878Y-2.9331
X3.9283Y-2.6467
X3.9362Y-2.8142
X3.9461Y-2.0957
X3.9461Y-2.3713
X3.9559Y-2.4303
X3.9559Y-2.7748
X3.9953Y-2.2039
X3.9972Y-2.5799
X4.0543Y-2.7059
X4.0937Y-2.4795
X4.0937Y-2.578
X4.1134Y-2.7256
X4.1626Y-2.3909
X4.1634Y-2.2933
X4.1724Y-2.7748
X4.1921Y-2.1547
X4.1921Y-2.9126
X4.2028Y-2.372
X4.2618Y-2.2441
X4.2717Y-2.9626
X4.2807Y-2.7453
X4.3201Y-2.6075
X4.3307Y-2.2441
X4.3693Y-2.6075
X4.3791Y-2.5484
X4.3898Y-2.2441
X4.3929Y-2.7453
X4.448Y-2.3122
X4.453Y-2.3467
X4.4677Y-2.3811
X4.4677Y-2.5878
X4.5366Y-2.3713
X4.5563Y-2.2433
X4.576Y-2.8142
X4.6547Y-2.1843
X4.6547Y-2.2236
X4.6646Y-2.2728
X4.6793Y-2.888
X4.6949Y-2.6476
X4.7138Y-2.6075
X4.7146Y-2.8445
X4.7335Y-2.1547
X4.7728Y-2.7157
X4.7728Y-2.9224
X4.7925Y-2.5386
X4.8425Y-2.6673
X4.8551Y-2.3628
X4.9459Y-2.4835
X4.9697Y-2.3319
X5.0787Y-2.1457
X5.0886Y-2.4114
X5.1083Y-2.6476
T2
G00X4.9045Y-2.2406
M15
G01X4.9478Y-2.2406
M16
G05
G00X4.9045Y-2.5807
M15
G01X4.9478Y-2.5807
M16
G05
G00X5.075Y-2.2406
M15
G01X5.1065Y-2.2406
M16
G05
G00X5.075Y-2.5807
M15
G01X5.1065Y-2.5807
M16
G05
M30
