%TF.GenerationSoftware,KiCad,Pcbnew,8.0.7*%
%TF.CreationDate,2025-10-25T23:35:46+02:00*%
%TF.ProjectId,VOCaware,564f4361-7761-4726-952e-6b696361645f,v1.0*%
%TF.SameCoordinates,Original*%
%TF.FileFunction,Copper,L2,Bot*%
%TF.FilePolarity,Positive*%
%FSLAX46Y46*%
G04 Gerber Fmt 4.6, Leading zero omitted, Abs format (unit mm)*
G04 Created by KiCad (PCBNEW 8.0.7) date 2025-10-25 23:35:46*
%MOMM*%
%LPD*%
G01*
G04 APERTURE LIST*
%TA.AperFunction,ComponentPad*%
%ADD10O,2.100000X1.000000*%
%TD*%
%TA.AperFunction,ComponentPad*%
%ADD11O,1.800000X1.000000*%
%TD*%
%TA.AperFunction,SMDPad,CuDef*%
%ADD12C,1.000000*%
%TD*%
%TA.AperFunction,ViaPad*%
%ADD13C,0.600000*%
%TD*%
%TA.AperFunction,Conductor*%
%ADD14C,0.150000*%
%TD*%
%TA.AperFunction,Conductor*%
%ADD15C,0.400000*%
%TD*%
%TA.AperFunction,Conductor*%
%ADD16C,0.200000*%
%TD*%
G04 APERTURE END LIST*
D10*
%TO.P,J1,S1,SHIELD*%
%TO.N,GND*%
X125125000Y-65550000D03*
D11*
X129305000Y-65550000D03*
D10*
X125125000Y-56910000D03*
D11*
X129305000Y-56910000D03*
%TD*%
D12*
%TO.P,IO10,1,Pin_1*%
%TO.N,IO10*%
X100730000Y-73480000D03*
%TD*%
%TO.P,RXD0,1,Pin_1*%
%TO.N,RXD0*%
X112480000Y-62480000D03*
%TD*%
%TO.P,IO45,1,Pin_1*%
%TO.N,I045_S*%
X110230000Y-62480000D03*
%TD*%
%TO.P,TXD0,1,Pin_1*%
%TO.N,TXD0*%
X114730000Y-62480000D03*
%TD*%
%TO.P,GND,1,Pin_1*%
%TO.N,GND*%
X105230000Y-71230000D03*
%TD*%
%TO.P,IO3,1,Pin_1*%
%TO.N,IO3_S*%
X105730000Y-62480000D03*
%TD*%
%TO.P,IO46,1,Pin_1*%
%TO.N,I046_S*%
X107980000Y-62480000D03*
%TD*%
%TO.P,IO11,1,Pin_1*%
%TO.N,IO11*%
X102980000Y-73480000D03*
%TD*%
%TO.P,+3V3,1,Pin_1*%
%TO.N,+3V3*%
X105230000Y-73480000D03*
%TD*%
D13*
%TO.N,GND*%
X111500000Y-57000000D03*
X105750000Y-58250000D03*
X98500000Y-57250000D03*
X108250000Y-57000000D03*
X129750000Y-67250000D03*
X99780000Y-67227018D03*
X109730000Y-66230000D03*
X98750000Y-74500000D03*
X110980000Y-66230000D03*
X105980000Y-70480000D03*
X121730000Y-64480000D03*
X103980000Y-62980000D03*
X123319240Y-60015696D03*
X103980000Y-65480000D03*
X119750000Y-72250000D03*
X108500000Y-75250000D03*
X92750000Y-58000000D03*
X129250000Y-61250000D03*
X110000000Y-57000000D03*
X108730000Y-69730000D03*
X93750000Y-63750000D03*
X129000000Y-54500000D03*
X118230000Y-56480000D03*
X92750000Y-53250000D03*
X100230000Y-53230000D03*
X106750000Y-60250000D03*
X98250000Y-70000000D03*
X121230000Y-74230000D03*
X102980000Y-68730000D03*
X115730000Y-56980000D03*
X123000000Y-67750000D03*
X119250000Y-67250000D03*
X100230000Y-60230000D03*
%TO.N,+3V3*%
X101480000Y-55980000D03*
X96250000Y-63250000D03*
X118855000Y-73355000D03*
X106480000Y-73980000D03*
X118480000Y-57730000D03*
X100480000Y-61730000D03*
X101529265Y-65529265D03*
%TO.N,EN*%
X118230000Y-55480000D03*
X121230000Y-68980000D03*
%TO.N,IO0*%
X106480000Y-54730000D03*
X120230000Y-54730000D03*
%TO.N,+5V*%
X119730000Y-66230000D03*
X104480000Y-69230000D03*
%TO.N,RXD0*%
X113480000Y-60480000D03*
%TO.N,IO9_SCL0*%
X116230000Y-71480000D03*
X113480000Y-65730000D03*
%TO.N,IO3_S*%
X105730000Y-60730000D03*
%TO.N,I046_S*%
X112980000Y-58730000D03*
%TO.N,IO11*%
X100480000Y-70480000D03*
%TO.N,IO10*%
X99980000Y-71480000D03*
%TO.N,I045_S*%
X113105000Y-59605000D03*
%TO.N,TXD0*%
X115230000Y-60230000D03*
%TO.N,IO8_SDA0*%
X111230000Y-64730000D03*
X111580000Y-69730000D03*
%TO.N,Net-(F1-Pad2)*%
X125625000Y-63080000D03*
X126230000Y-59230000D03*
%TD*%
D14*
%TO.N,GND*%
X99555000Y-67002018D02*
X99780000Y-67227018D01*
X98805000Y-64055000D02*
X99555000Y-64805000D01*
X93750000Y-63750000D02*
X94055000Y-64055000D01*
X99555000Y-64805000D02*
X99555000Y-67002018D01*
X94055000Y-64055000D02*
X98805000Y-64055000D01*
D15*
%TO.N,+3V3*%
X101480000Y-60730000D02*
X101480000Y-65480000D01*
D14*
X96250000Y-63250000D02*
X96705000Y-63705000D01*
D15*
X118855000Y-74145000D02*
X117750000Y-75250000D01*
X101529265Y-65529265D02*
X101480000Y-65578530D01*
D16*
X100480000Y-61730000D02*
X101480000Y-60730000D01*
D14*
X96705000Y-63705000D02*
X99005000Y-63705000D01*
D15*
X101480000Y-69730000D02*
X105730000Y-73980000D01*
X101480000Y-60730000D02*
X101480000Y-55980000D01*
X117750000Y-75250000D02*
X110250000Y-75250000D01*
X118480000Y-57730000D02*
X116730000Y-55980000D01*
X101480000Y-65578530D02*
X101480000Y-69730000D01*
X116730000Y-55980000D02*
X101480000Y-55980000D01*
X118855000Y-73355000D02*
X118855000Y-74145000D01*
D14*
X99980000Y-62730000D02*
X99980000Y-62230000D01*
X99005000Y-63705000D02*
X99980000Y-62730000D01*
D15*
X110250000Y-75250000D02*
X108980000Y-73980000D01*
X105730000Y-73980000D02*
X106480000Y-73980000D01*
D14*
X99980000Y-62230000D02*
X100480000Y-61730000D01*
D15*
X108980000Y-73980000D02*
X106480000Y-73980000D01*
X101480000Y-65480000D02*
X101529265Y-65529265D01*
D16*
%TO.N,EN*%
X121230000Y-66480000D02*
X119080000Y-64330000D01*
X121230000Y-68980000D02*
X121230000Y-66480000D01*
X119080000Y-64330000D02*
X119080000Y-56330000D01*
X119080000Y-56330000D02*
X118230000Y-55480000D01*
%TO.N,IO0*%
X106480000Y-54730000D02*
X120230000Y-54730000D01*
D15*
%TO.N,+5V*%
X114230000Y-63980000D02*
X106730000Y-63980000D01*
X116480000Y-66230000D02*
X114230000Y-63980000D01*
X104480000Y-66230000D02*
X104480000Y-69230000D01*
X106730000Y-63980000D02*
X104480000Y-66230000D01*
X119730000Y-66230000D02*
X116480000Y-66230000D01*
D16*
%TO.N,RXD0*%
X112480000Y-61480000D02*
X113480000Y-60480000D01*
X112480000Y-62480000D02*
X112480000Y-61480000D01*
%TO.N,IO9_SCL0*%
X116230000Y-68480000D02*
X116230000Y-71480000D01*
X113480000Y-65730000D02*
X116230000Y-68480000D01*
%TO.N,IO3_S*%
X105730000Y-60730000D02*
X105730000Y-62480000D01*
%TO.N,I046_S*%
X111730000Y-59980000D02*
X110480000Y-59980000D01*
X112980000Y-58730000D02*
X111730000Y-59980000D01*
X110480000Y-59980000D02*
X107980000Y-62480000D01*
%TO.N,IO11*%
X100480000Y-70480000D02*
X100480000Y-70980000D01*
X100480000Y-70980000D02*
X102980000Y-73480000D01*
%TO.N,IO10*%
X99980000Y-71480000D02*
X100730000Y-72230000D01*
X100730000Y-72230000D02*
X100730000Y-73480000D01*
%TO.N,I045_S*%
X113105000Y-59605000D02*
X110230000Y-62480000D01*
%TO.N,TXD0*%
X114730000Y-60730000D02*
X114730000Y-62480000D01*
X115230000Y-60230000D02*
X114730000Y-60730000D01*
%TO.N,IO8_SDA0*%
X111580000Y-65080000D02*
X111230000Y-64730000D01*
X111580000Y-69730000D02*
X111580000Y-65080000D01*
D15*
%TO.N,Net-(F1-Pad2)*%
X126230000Y-59230000D02*
X126230000Y-62475000D01*
X126230000Y-62475000D02*
X125625000Y-63080000D01*
%TD*%
%TA.AperFunction,Conductor*%
%TO.N,GND*%
G36*
X100704312Y-62797670D02*
G01*
X100758190Y-62842155D01*
X100779465Y-62908707D01*
X100779500Y-62911659D01*
X100779500Y-65227192D01*
X100772542Y-65268146D01*
X100743897Y-65350007D01*
X100743895Y-65350015D01*
X100723700Y-65529261D01*
X100723700Y-65529268D01*
X100743895Y-65708511D01*
X100743897Y-65708521D01*
X100772541Y-65790379D01*
X100779500Y-65831334D01*
X100779500Y-69569424D01*
X100759815Y-69636463D01*
X100707011Y-69682218D01*
X100641617Y-69692644D01*
X100480004Y-69674435D01*
X100479996Y-69674435D01*
X100300750Y-69694630D01*
X100300745Y-69694631D01*
X100130476Y-69754211D01*
X99977737Y-69850184D01*
X99850184Y-69977737D01*
X99754211Y-70130476D01*
X99694631Y-70300745D01*
X99694630Y-70300750D01*
X99674435Y-70479996D01*
X99674435Y-70480004D01*
X99691657Y-70632863D01*
X99679602Y-70701685D01*
X99634410Y-70751739D01*
X99477739Y-70850182D01*
X99350184Y-70977737D01*
X99254211Y-71130476D01*
X99194631Y-71300745D01*
X99194630Y-71300750D01*
X99174435Y-71479996D01*
X99174435Y-71480003D01*
X99194630Y-71659249D01*
X99194631Y-71659254D01*
X99254211Y-71829523D01*
X99350184Y-71982262D01*
X99477738Y-72109816D01*
X99630478Y-72205789D01*
X99800745Y-72265368D01*
X99887669Y-72275161D01*
X99952080Y-72302226D01*
X99961465Y-72310700D01*
X100093181Y-72442416D01*
X100126666Y-72503739D01*
X100129500Y-72530097D01*
X100129500Y-72619880D01*
X100109815Y-72686919D01*
X100084169Y-72715729D01*
X100019117Y-72769117D01*
X100019114Y-72769119D01*
X100019112Y-72769122D01*
X99894090Y-72921460D01*
X99894086Y-72921467D01*
X99801188Y-73095266D01*
X99743975Y-73283870D01*
X99724659Y-73480000D01*
X99743975Y-73676129D01*
X99801188Y-73864733D01*
X99894086Y-74038532D01*
X99894090Y-74038539D01*
X100019116Y-74190883D01*
X100171460Y-74315909D01*
X100171467Y-74315913D01*
X100345266Y-74408811D01*
X100345269Y-74408811D01*
X100345273Y-74408814D01*
X100533868Y-74466024D01*
X100730000Y-74485341D01*
X100926132Y-74466024D01*
X101114727Y-74408814D01*
X101288538Y-74315910D01*
X101440883Y-74190883D01*
X101565910Y-74038538D01*
X101643583Y-73893222D01*
X101658811Y-73864733D01*
X101658811Y-73864732D01*
X101658814Y-73864727D01*
X101716024Y-73676132D01*
X101731597Y-73518012D01*
X101757758Y-73453226D01*
X101814792Y-73412867D01*
X101884592Y-73409750D01*
X101944997Y-73444864D01*
X101976828Y-73507062D01*
X101978403Y-73518013D01*
X101993975Y-73676129D01*
X102051188Y-73864733D01*
X102144086Y-74038532D01*
X102144090Y-74038539D01*
X102269116Y-74190883D01*
X102421460Y-74315909D01*
X102421467Y-74315913D01*
X102595266Y-74408811D01*
X102595269Y-74408811D01*
X102595273Y-74408814D01*
X102783868Y-74466024D01*
X102980000Y-74485341D01*
X103176132Y-74466024D01*
X103364727Y-74408814D01*
X103538538Y-74315910D01*
X103690883Y-74190883D01*
X103815910Y-74038538D01*
X103893583Y-73893222D01*
X103908811Y-73864733D01*
X103908811Y-73864732D01*
X103908814Y-73864727D01*
X103966024Y-73676132D01*
X103981597Y-73518012D01*
X104007756Y-73453227D01*
X104064790Y-73412868D01*
X104134591Y-73409751D01*
X104194996Y-73444865D01*
X104226827Y-73507062D01*
X104228402Y-73518013D01*
X104243975Y-73676129D01*
X104301188Y-73864733D01*
X104394086Y-74038532D01*
X104394090Y-74038539D01*
X104519116Y-74190883D01*
X104671460Y-74315909D01*
X104671467Y-74315913D01*
X104845266Y-74408811D01*
X104845269Y-74408811D01*
X104845273Y-74408814D01*
X105033868Y-74466024D01*
X105202134Y-74482596D01*
X105266920Y-74508757D01*
X105277660Y-74518318D01*
X105283454Y-74524112D01*
X105398192Y-74600777D01*
X105518045Y-74650421D01*
X105525672Y-74653580D01*
X105525676Y-74653580D01*
X105525677Y-74653581D01*
X105661003Y-74680500D01*
X105661006Y-74680500D01*
X105661007Y-74680500D01*
X106054506Y-74680500D01*
X106120477Y-74699506D01*
X106130474Y-74705787D01*
X106130475Y-74705787D01*
X106130478Y-74705789D01*
X106300745Y-74765368D01*
X106300750Y-74765369D01*
X106479996Y-74785565D01*
X106480000Y-74785565D01*
X106480004Y-74785565D01*
X106659249Y-74765369D01*
X106659252Y-74765368D01*
X106659255Y-74765368D01*
X106829522Y-74705789D01*
X106831542Y-74704520D01*
X106839523Y-74699506D01*
X106905494Y-74680500D01*
X108638481Y-74680500D01*
X108705520Y-74700185D01*
X108726162Y-74716819D01*
X109527162Y-75517819D01*
X109560647Y-75579142D01*
X109555663Y-75648834D01*
X109513791Y-75704767D01*
X109448327Y-75729184D01*
X109439481Y-75729500D01*
X95233051Y-75729500D01*
X95226968Y-75729351D01*
X95206900Y-75728365D01*
X94893071Y-75712947D01*
X94880962Y-75711754D01*
X94553305Y-75663151D01*
X94541369Y-75660777D01*
X94220055Y-75580292D01*
X94208411Y-75576759D01*
X93896540Y-75465170D01*
X93885301Y-75460515D01*
X93585844Y-75318883D01*
X93575121Y-75313150D01*
X93291011Y-75142862D01*
X93280893Y-75136102D01*
X93014829Y-74938775D01*
X93005423Y-74931055D01*
X92844899Y-74785565D01*
X92759986Y-74708604D01*
X92751395Y-74700013D01*
X92528944Y-74454576D01*
X92521224Y-74445170D01*
X92506636Y-74425500D01*
X92323895Y-74179103D01*
X92317137Y-74168988D01*
X92146844Y-73884871D01*
X92141120Y-73874163D01*
X91999479Y-73574688D01*
X91994829Y-73563459D01*
X91984379Y-73534254D01*
X91914119Y-73337890D01*
X91883240Y-73251588D01*
X91879707Y-73239944D01*
X91870958Y-73205015D01*
X91799219Y-72918617D01*
X91796848Y-72906694D01*
X91788844Y-72852738D01*
X91757894Y-72644086D01*
X91748245Y-72579037D01*
X91747052Y-72566927D01*
X91742719Y-72478735D01*
X91730649Y-72233032D01*
X91730500Y-72226948D01*
X91730500Y-72108711D01*
X93379500Y-72108711D01*
X93379500Y-72351288D01*
X93411161Y-72591785D01*
X93473947Y-72826104D01*
X93566773Y-73050205D01*
X93566776Y-73050212D01*
X93688064Y-73260289D01*
X93688066Y-73260292D01*
X93688067Y-73260293D01*
X93835733Y-73452736D01*
X93835739Y-73452743D01*
X94007256Y-73624260D01*
X94007263Y-73624266D01*
X94111855Y-73704522D01*
X94199711Y-73771936D01*
X94409788Y-73893224D01*
X94633900Y-73986054D01*
X94868211Y-74048838D01*
X95048586Y-74072584D01*
X95108711Y-74080500D01*
X95108712Y-74080500D01*
X95351289Y-74080500D01*
X95399388Y-74074167D01*
X95591789Y-74048838D01*
X95826100Y-73986054D01*
X96050212Y-73893224D01*
X96260289Y-73771936D01*
X96452738Y-73624265D01*
X96624265Y-73452738D01*
X96771936Y-73260289D01*
X96893224Y-73050212D01*
X96986054Y-72826100D01*
X97048838Y-72591789D01*
X97080500Y-72351288D01*
X97080500Y-72108712D01*
X97048838Y-71868211D01*
X96986054Y-71633900D01*
X96893224Y-71409788D01*
X96771936Y-71199711D01*
X96711018Y-71120321D01*
X96624266Y-71007263D01*
X96624260Y-71007256D01*
X96452743Y-70835739D01*
X96452736Y-70835733D01*
X96260293Y-70688067D01*
X96260292Y-70688066D01*
X96260289Y-70688064D01*
X96050212Y-70566776D01*
X96050205Y-70566773D01*
X95826104Y-70473947D01*
X95591785Y-70411161D01*
X95351289Y-70379500D01*
X95351288Y-70379500D01*
X95108712Y-70379500D01*
X95108711Y-70379500D01*
X94868214Y-70411161D01*
X94633895Y-70473947D01*
X94409794Y-70566773D01*
X94409785Y-70566777D01*
X94199706Y-70688067D01*
X94007263Y-70835733D01*
X94007256Y-70835739D01*
X93835739Y-71007256D01*
X93835733Y-71007263D01*
X93688067Y-71199706D01*
X93688064Y-71199710D01*
X93688064Y-71199711D01*
X93671817Y-71227851D01*
X93566777Y-71409785D01*
X93566773Y-71409794D01*
X93473947Y-71633895D01*
X93411161Y-71868214D01*
X93379500Y-72108711D01*
X91730500Y-72108711D01*
X91730500Y-69104000D01*
X91750185Y-69036961D01*
X91802989Y-68991206D01*
X91854500Y-68980000D01*
X94126163Y-68980000D01*
X94136979Y-68980500D01*
X94137290Y-68980500D01*
X98087315Y-68980500D01*
X98087318Y-68980500D01*
X98087320Y-68980499D01*
X98089887Y-68980316D01*
X98098735Y-68980000D01*
X98234827Y-68980000D01*
X98285512Y-68952323D01*
X98294228Y-68950751D01*
X98298140Y-68950188D01*
X98299769Y-68949954D01*
X98505710Y-68889484D01*
X98505713Y-68889482D01*
X98505715Y-68889482D01*
X98700938Y-68800327D01*
X98700944Y-68800323D01*
X98700950Y-68800321D01*
X98881513Y-68684281D01*
X99043724Y-68543724D01*
X99184281Y-68381513D01*
X99300321Y-68200950D01*
X99300323Y-68200944D01*
X99300327Y-68200938D01*
X99389482Y-68005715D01*
X99389482Y-68005713D01*
X99389484Y-68005710D01*
X99449954Y-67799769D01*
X99480500Y-67587318D01*
X99480500Y-67480000D01*
X99480500Y-67414108D01*
X99480500Y-65414108D01*
X99480500Y-65387290D01*
X99480500Y-65386975D01*
X99480000Y-65376162D01*
X99480000Y-64095240D01*
X99499685Y-64028201D01*
X99516315Y-64007563D01*
X100323155Y-63200722D01*
X100323160Y-63200719D01*
X100333363Y-63190515D01*
X100333365Y-63190515D01*
X100440515Y-63083365D01*
X100516281Y-62952135D01*
X100535726Y-62879564D01*
X100572090Y-62819905D01*
X100634936Y-62789376D01*
X100704312Y-62797670D01*
G37*
%TD.AperFunction*%
%TA.AperFunction,Conductor*%
G36*
X130672539Y-52499685D02*
G01*
X130718294Y-52552489D01*
X130729500Y-52604000D01*
X130729500Y-56234545D01*
X130709815Y-56301584D01*
X130657011Y-56347339D01*
X130587853Y-56357283D01*
X130524297Y-56328258D01*
X130502399Y-56303437D01*
X130481753Y-56272539D01*
X130481748Y-56272533D01*
X130342466Y-56133251D01*
X130342462Y-56133248D01*
X130178684Y-56023814D01*
X130178671Y-56023807D01*
X129996693Y-55948430D01*
X129996681Y-55948427D01*
X129803495Y-55910000D01*
X129555000Y-55910000D01*
X129555000Y-56610000D01*
X129055000Y-56610000D01*
X129055000Y-55910000D01*
X128806504Y-55910000D01*
X128613318Y-55948427D01*
X128613306Y-55948430D01*
X128431328Y-56023807D01*
X128431315Y-56023814D01*
X128267537Y-56133248D01*
X128267533Y-56133251D01*
X128128251Y-56272533D01*
X128128248Y-56272537D01*
X128018814Y-56436315D01*
X128018807Y-56436328D01*
X127943430Y-56618307D01*
X127943430Y-56618309D01*
X127935138Y-56660000D01*
X128738012Y-56660000D01*
X128720795Y-56669940D01*
X128664940Y-56725795D01*
X128625444Y-56794204D01*
X128605000Y-56870504D01*
X128605000Y-56949496D01*
X128625444Y-57025796D01*
X128664940Y-57094205D01*
X128720795Y-57150060D01*
X128738012Y-57160000D01*
X127935138Y-57160000D01*
X127943430Y-57201690D01*
X127943430Y-57201692D01*
X128018807Y-57383671D01*
X128018814Y-57383684D01*
X128128248Y-57547462D01*
X128128251Y-57547466D01*
X128267533Y-57686748D01*
X128267537Y-57686751D01*
X128431315Y-57796185D01*
X128431328Y-57796192D01*
X128613306Y-57871569D01*
X128613318Y-57871572D01*
X128806504Y-57909999D01*
X128806508Y-57910000D01*
X129055000Y-57910000D01*
X129055000Y-57210000D01*
X129555000Y-57210000D01*
X129555000Y-57910000D01*
X129803492Y-57910000D01*
X129803495Y-57909999D01*
X129996681Y-57871572D01*
X129996693Y-57871569D01*
X130178671Y-57796192D01*
X130178684Y-57796185D01*
X130342462Y-57686751D01*
X130342466Y-57686748D01*
X130481751Y-57547463D01*
X130502398Y-57516563D01*
X130556010Y-57471758D01*
X130625335Y-57463051D01*
X130688362Y-57493205D01*
X130725082Y-57552648D01*
X130729500Y-57585454D01*
X130729500Y-64874545D01*
X130709815Y-64941584D01*
X130657011Y-64987339D01*
X130587853Y-64997283D01*
X130524297Y-64968258D01*
X130502399Y-64943437D01*
X130481753Y-64912539D01*
X130481748Y-64912533D01*
X130342466Y-64773251D01*
X130342462Y-64773248D01*
X130178684Y-64663814D01*
X130178671Y-64663807D01*
X129996693Y-64588430D01*
X129996681Y-64588427D01*
X129803495Y-64550000D01*
X129555000Y-64550000D01*
X129555000Y-65250000D01*
X129055000Y-65250000D01*
X129055000Y-64550000D01*
X128806504Y-64550000D01*
X128613318Y-64588427D01*
X128613306Y-64588430D01*
X128431328Y-64663807D01*
X128431315Y-64663814D01*
X128267537Y-64773248D01*
X128267533Y-64773251D01*
X128128251Y-64912533D01*
X128128248Y-64912537D01*
X128018814Y-65076315D01*
X128018807Y-65076328D01*
X127943430Y-65258307D01*
X127943430Y-65258309D01*
X127935138Y-65300000D01*
X128738012Y-65300000D01*
X128720795Y-65309940D01*
X128664940Y-65365795D01*
X128625444Y-65434204D01*
X128605000Y-65510504D01*
X128605000Y-65589496D01*
X128625444Y-65665796D01*
X128664940Y-65734205D01*
X128720795Y-65790060D01*
X128738012Y-65800000D01*
X127935138Y-65800000D01*
X127943430Y-65841690D01*
X127943430Y-65841692D01*
X128018807Y-66023671D01*
X128018814Y-66023684D01*
X128128248Y-66187462D01*
X128128251Y-66187466D01*
X128267533Y-66326748D01*
X128267537Y-66326751D01*
X128431315Y-66436185D01*
X128431328Y-66436192D01*
X128613306Y-66511569D01*
X128613318Y-66511572D01*
X128806504Y-66549999D01*
X128806508Y-66550000D01*
X129055000Y-66550000D01*
X129055000Y-65850000D01*
X129555000Y-65850000D01*
X129555000Y-66550000D01*
X129803492Y-66550000D01*
X129803495Y-66549999D01*
X129996681Y-66511572D01*
X129996693Y-66511569D01*
X130178671Y-66436192D01*
X130178684Y-66436185D01*
X130342462Y-66326751D01*
X130342466Y-66326748D01*
X130481751Y-66187463D01*
X130502398Y-66156563D01*
X130556010Y-66111758D01*
X130625335Y-66103051D01*
X130688362Y-66133205D01*
X130725082Y-66192648D01*
X130729500Y-66225454D01*
X130729500Y-72226948D01*
X130729351Y-72233033D01*
X130712947Y-72566928D01*
X130711754Y-72579037D01*
X130663151Y-72906694D01*
X130660777Y-72918630D01*
X130580292Y-73239944D01*
X130576759Y-73251588D01*
X130465170Y-73563459D01*
X130460514Y-73574702D01*
X130318885Y-73874151D01*
X130313148Y-73884883D01*
X130142862Y-74168988D01*
X130136102Y-74179106D01*
X129938775Y-74445170D01*
X129931055Y-74454576D01*
X129708611Y-74700006D01*
X129700006Y-74708611D01*
X129454576Y-74931055D01*
X129445170Y-74938775D01*
X129179106Y-75136102D01*
X129168988Y-75142862D01*
X128884883Y-75313148D01*
X128874151Y-75318885D01*
X128574702Y-75460514D01*
X128563459Y-75465170D01*
X128251588Y-75576759D01*
X128239944Y-75580292D01*
X127918630Y-75660777D01*
X127906694Y-75663151D01*
X127579037Y-75711754D01*
X127566928Y-75712947D01*
X127251989Y-75728419D01*
X127233031Y-75729351D01*
X127226949Y-75729500D01*
X119104000Y-75729500D01*
X119036961Y-75709815D01*
X118991206Y-75657011D01*
X118980000Y-75605500D01*
X118980000Y-75062019D01*
X118999685Y-74994980D01*
X119016319Y-74974338D01*
X119399112Y-74591545D01*
X119399114Y-74591543D01*
X119475775Y-74476811D01*
X119528580Y-74349328D01*
X119555500Y-74213994D01*
X119555500Y-74076006D01*
X119555500Y-73780493D01*
X119574508Y-73714519D01*
X119580787Y-73704525D01*
X119580786Y-73704525D01*
X119580789Y-73704522D01*
X119640368Y-73534255D01*
X119646481Y-73480000D01*
X119660565Y-73355003D01*
X119660565Y-73354996D01*
X119640369Y-73175750D01*
X119640368Y-73175745D01*
X119616672Y-73108026D01*
X119580789Y-73005478D01*
X119484816Y-72852738D01*
X119357262Y-72725184D01*
X119204522Y-72629211D01*
X119063045Y-72579706D01*
X119006269Y-72538984D01*
X118980522Y-72474031D01*
X118980000Y-72462664D01*
X118980000Y-69480000D01*
X116954500Y-69480000D01*
X116887461Y-69460315D01*
X116841706Y-69407511D01*
X116830500Y-69356000D01*
X116830500Y-68400943D01*
X116830499Y-68400939D01*
X116821487Y-68367305D01*
X116821487Y-68367304D01*
X116789577Y-68248215D01*
X116741318Y-68164629D01*
X116710520Y-68111284D01*
X116598716Y-67999480D01*
X116598715Y-67999479D01*
X116594385Y-67995149D01*
X116594374Y-67995139D01*
X114310700Y-65711465D01*
X114277215Y-65650142D01*
X114275163Y-65637686D01*
X114265368Y-65550745D01*
X114205789Y-65380478D01*
X114109816Y-65227738D01*
X113982262Y-65100184D01*
X113949379Y-65079522D01*
X113829523Y-65004211D01*
X113659254Y-64944631D01*
X113659249Y-64944630D01*
X113509160Y-64927720D01*
X113482633Y-64916573D01*
X113471892Y-64923477D01*
X113450840Y-64927720D01*
X113300750Y-64944630D01*
X113300745Y-64944631D01*
X113130476Y-65004211D01*
X112977737Y-65100184D01*
X112850184Y-65227737D01*
X112754211Y-65380476D01*
X112694631Y-65550745D01*
X112694630Y-65550750D01*
X112674435Y-65729996D01*
X112674435Y-65730003D01*
X112694630Y-65909249D01*
X112694631Y-65909254D01*
X112754211Y-66079523D01*
X112828715Y-66198095D01*
X112850184Y-66232262D01*
X112977738Y-66359816D01*
X113130478Y-66455789D01*
X113300745Y-66515368D01*
X113387669Y-66525161D01*
X113452080Y-66552226D01*
X113461465Y-66560700D01*
X115593181Y-68692416D01*
X115626666Y-68753739D01*
X115629500Y-68780097D01*
X115629500Y-69356000D01*
X115609815Y-69423039D01*
X115557011Y-69468794D01*
X115505500Y-69480000D01*
X112428596Y-69480000D01*
X112361557Y-69460315D01*
X112315802Y-69407511D01*
X112311554Y-69396954D01*
X112305788Y-69380476D01*
X112211237Y-69230000D01*
X112209816Y-69227738D01*
X112209814Y-69227736D01*
X112209813Y-69227734D01*
X112207550Y-69224896D01*
X112206659Y-69222715D01*
X112206111Y-69221842D01*
X112206264Y-69221745D01*
X112181144Y-69160209D01*
X112180500Y-69147587D01*
X112180500Y-65169060D01*
X112180501Y-65169047D01*
X112180501Y-65000944D01*
X112179520Y-64997283D01*
X112139577Y-64848216D01*
X112139575Y-64848214D01*
X112137473Y-64840366D01*
X112139809Y-64839739D01*
X112133658Y-64782472D01*
X112164939Y-64719996D01*
X112225031Y-64684349D01*
X112255686Y-64680500D01*
X113436957Y-64680500D01*
X113479898Y-64693109D01*
X113501649Y-64682360D01*
X113523043Y-64680500D01*
X113888481Y-64680500D01*
X113955520Y-64700185D01*
X113976162Y-64716819D01*
X116033453Y-66774111D01*
X116033457Y-66774114D01*
X116136098Y-66842696D01*
X116148189Y-66850775D01*
X116148191Y-66850776D01*
X116148193Y-66850777D01*
X116275667Y-66903578D01*
X116275672Y-66903580D01*
X116275676Y-66903580D01*
X116275677Y-66903581D01*
X116411004Y-66930500D01*
X116411007Y-66930500D01*
X119304506Y-66930500D01*
X119370477Y-66949506D01*
X119380474Y-66955787D01*
X119380475Y-66955787D01*
X119380478Y-66955789D01*
X119550745Y-67015368D01*
X119550750Y-67015369D01*
X119729996Y-67035565D01*
X119730000Y-67035565D01*
X119730004Y-67035565D01*
X119909249Y-67015369D01*
X119909252Y-67015368D01*
X119909255Y-67015368D01*
X120079522Y-66955789D01*
X120232262Y-66859816D01*
X120359816Y-66732262D01*
X120382515Y-66696135D01*
X120434847Y-66649844D01*
X120503900Y-66639194D01*
X120567749Y-66667568D01*
X120575190Y-66674425D01*
X120593181Y-66692416D01*
X120626666Y-66753739D01*
X120629500Y-66780097D01*
X120629500Y-68397587D01*
X120609815Y-68464626D01*
X120602450Y-68474896D01*
X120600186Y-68477734D01*
X120504211Y-68630476D01*
X120444631Y-68800745D01*
X120444630Y-68800750D01*
X120424435Y-68979996D01*
X120424435Y-68980000D01*
X120444630Y-69159249D01*
X120444631Y-69159254D01*
X120504211Y-69329523D01*
X120573530Y-69439843D01*
X120600184Y-69482262D01*
X120727738Y-69609816D01*
X120809206Y-69661006D01*
X120862721Y-69694632D01*
X120880478Y-69705789D01*
X120968837Y-69736707D01*
X121050745Y-69765368D01*
X121050750Y-69765369D01*
X121229996Y-69785565D01*
X121230000Y-69785565D01*
X121230004Y-69785565D01*
X121409249Y-69765369D01*
X121409252Y-69765368D01*
X121409255Y-69765368D01*
X121579522Y-69705789D01*
X121732262Y-69609816D01*
X121859816Y-69482262D01*
X121955789Y-69329522D01*
X122015368Y-69159255D01*
X122027594Y-69050750D01*
X122035565Y-68980000D01*
X122035565Y-68979996D01*
X122015369Y-68800750D01*
X122015368Y-68800745D01*
X121998920Y-68753739D01*
X121955789Y-68630478D01*
X121859816Y-68477738D01*
X121859814Y-68477736D01*
X121859813Y-68477734D01*
X121857550Y-68474896D01*
X121856659Y-68472715D01*
X121856111Y-68471842D01*
X121856264Y-68471745D01*
X121831144Y-68410209D01*
X121830500Y-68397587D01*
X121830500Y-66400945D01*
X121830500Y-66400943D01*
X121791409Y-66255054D01*
X121789577Y-66248215D01*
X121760639Y-66198095D01*
X121710520Y-66111284D01*
X121598716Y-65999480D01*
X121598715Y-65999479D01*
X121594385Y-65995149D01*
X121594374Y-65995139D01*
X119716819Y-64117584D01*
X119683334Y-64056261D01*
X119680500Y-64029903D01*
X119680500Y-56660000D01*
X123605138Y-56660000D01*
X124408012Y-56660000D01*
X124390795Y-56669940D01*
X124334940Y-56725795D01*
X124295444Y-56794204D01*
X124275000Y-56870504D01*
X124275000Y-56949496D01*
X124295444Y-57025796D01*
X124334940Y-57094205D01*
X124390795Y-57150060D01*
X124408012Y-57160000D01*
X123605138Y-57160000D01*
X123613430Y-57201690D01*
X123613430Y-57201692D01*
X123688807Y-57383671D01*
X123688814Y-57383684D01*
X123798248Y-57547462D01*
X123798251Y-57547466D01*
X123937533Y-57686748D01*
X123937537Y-57686751D01*
X124101315Y-57796185D01*
X124101328Y-57796192D01*
X124283306Y-57871569D01*
X124283318Y-57871572D01*
X124476504Y-57909999D01*
X124476508Y-57910000D01*
X124875000Y-57910000D01*
X124875000Y-57210000D01*
X125375000Y-57210000D01*
X125375000Y-57748215D01*
X125355315Y-57815254D01*
X125313002Y-57855601D01*
X125271638Y-57879483D01*
X125271632Y-57879487D01*
X125164487Y-57986632D01*
X125164485Y-57986635D01*
X125088719Y-58117863D01*
X125059279Y-58227737D01*
X125049500Y-58264234D01*
X125049500Y-58415766D01*
X125057234Y-58444630D01*
X125088719Y-58562136D01*
X125115061Y-58607760D01*
X125164485Y-58693365D01*
X125271635Y-58800515D01*
X125384962Y-58865945D01*
X125399425Y-58874295D01*
X125447641Y-58924862D01*
X125460863Y-58993469D01*
X125454467Y-59022635D01*
X125444633Y-59050739D01*
X125444630Y-59050750D01*
X125424435Y-59229996D01*
X125424435Y-59230003D01*
X125444630Y-59409249D01*
X125444631Y-59409254D01*
X125504212Y-59579525D01*
X125510492Y-59589519D01*
X125529500Y-59655493D01*
X125529500Y-62133479D01*
X125509815Y-62200518D01*
X125493181Y-62221160D01*
X125425708Y-62288633D01*
X125378982Y-62317993D01*
X125275478Y-62354210D01*
X125275475Y-62354212D01*
X125122737Y-62450184D01*
X124995184Y-62577737D01*
X124899211Y-62730476D01*
X124839631Y-62900745D01*
X124839630Y-62900750D01*
X124819435Y-63079996D01*
X124819435Y-63080003D01*
X124839630Y-63259249D01*
X124839631Y-63259254D01*
X124899211Y-63429523D01*
X124995184Y-63582262D01*
X125102721Y-63689799D01*
X125136206Y-63751122D01*
X125131222Y-63820814D01*
X125122427Y-63839480D01*
X125088720Y-63897861D01*
X125088720Y-63897862D01*
X125088719Y-63897864D01*
X125088719Y-63897865D01*
X125049500Y-64044234D01*
X125049500Y-64195766D01*
X125069109Y-64268950D01*
X125088719Y-64342136D01*
X125126602Y-64407750D01*
X125164485Y-64473365D01*
X125271635Y-64580515D01*
X125306728Y-64600776D01*
X125313000Y-64604397D01*
X125361216Y-64654964D01*
X125375000Y-64711784D01*
X125375000Y-65250000D01*
X124875000Y-65250000D01*
X124875000Y-64550000D01*
X124476504Y-64550000D01*
X124283318Y-64588427D01*
X124283306Y-64588430D01*
X124101328Y-64663807D01*
X124101315Y-64663814D01*
X123937537Y-64773248D01*
X123937533Y-64773251D01*
X123798251Y-64912533D01*
X123798248Y-64912537D01*
X123688814Y-65076315D01*
X123688807Y-65076328D01*
X123613430Y-65258307D01*
X123613430Y-65258309D01*
X123605138Y-65300000D01*
X124408012Y-65300000D01*
X124390795Y-65309940D01*
X124334940Y-65365795D01*
X124295444Y-65434204D01*
X124275000Y-65510504D01*
X124275000Y-65589496D01*
X124295444Y-65665796D01*
X124334940Y-65734205D01*
X124390795Y-65790060D01*
X124408012Y-65800000D01*
X123605138Y-65800000D01*
X123613430Y-65841690D01*
X123613430Y-65841692D01*
X123688807Y-66023671D01*
X123688814Y-66023684D01*
X123798248Y-66187462D01*
X123798251Y-66187466D01*
X123937533Y-66326748D01*
X123937537Y-66326751D01*
X124101315Y-66436185D01*
X124101328Y-66436192D01*
X124283306Y-66511569D01*
X124283318Y-66511572D01*
X124476504Y-66549999D01*
X124476508Y-66550000D01*
X124875000Y-66550000D01*
X124875000Y-65850000D01*
X125375000Y-65850000D01*
X125375000Y-66550000D01*
X125773492Y-66550000D01*
X125773495Y-66549999D01*
X125966681Y-66511572D01*
X125966693Y-66511569D01*
X126148671Y-66436192D01*
X126148684Y-66436185D01*
X126312462Y-66326751D01*
X126312466Y-66326748D01*
X126451748Y-66187466D01*
X126451751Y-66187462D01*
X126561185Y-66023684D01*
X126561192Y-66023671D01*
X126636569Y-65841692D01*
X126636569Y-65841690D01*
X126644862Y-65800000D01*
X125841988Y-65800000D01*
X125859205Y-65790060D01*
X125915060Y-65734205D01*
X125954556Y-65665796D01*
X125975000Y-65589496D01*
X125975000Y-65510504D01*
X125954556Y-65434204D01*
X125915060Y-65365795D01*
X125859205Y-65309940D01*
X125841988Y-65300000D01*
X126644862Y-65300000D01*
X126636569Y-65258309D01*
X126636569Y-65258307D01*
X126561192Y-65076328D01*
X126561185Y-65076315D01*
X126451751Y-64912537D01*
X126451748Y-64912533D01*
X126312466Y-64773251D01*
X126312462Y-64773248D01*
X126148684Y-64663814D01*
X126148674Y-64663809D01*
X126139157Y-64659867D01*
X126084754Y-64616026D01*
X126062689Y-64549731D01*
X126079969Y-64482032D01*
X126083648Y-64476597D01*
X126085512Y-64473367D01*
X126085515Y-64473365D01*
X126161281Y-64342135D01*
X126200500Y-64195766D01*
X126200500Y-64044234D01*
X126161281Y-63897865D01*
X126161279Y-63897861D01*
X126127573Y-63839480D01*
X126111100Y-63771580D01*
X126133953Y-63705553D01*
X126147279Y-63689799D01*
X126200711Y-63636367D01*
X126254816Y-63582262D01*
X126350789Y-63429522D01*
X126387007Y-63326013D01*
X126416363Y-63279292D01*
X126774114Y-62921543D01*
X126850775Y-62806811D01*
X126903580Y-62679329D01*
X126908121Y-62656496D01*
X126912704Y-62633460D01*
X126912704Y-62633457D01*
X126930500Y-62543993D01*
X126930500Y-59655493D01*
X126949508Y-59589519D01*
X126955787Y-59579525D01*
X126955786Y-59579525D01*
X126955789Y-59579522D01*
X127015368Y-59409255D01*
X127030414Y-59275719D01*
X127035565Y-59230003D01*
X127035565Y-59229996D01*
X127015369Y-59050750D01*
X127015368Y-59050745D01*
X127005532Y-59022635D01*
X126955789Y-58880478D01*
X126940408Y-58856000D01*
X126861237Y-58730000D01*
X126859816Y-58727738D01*
X126732262Y-58600184D01*
X126671709Y-58562136D01*
X126579523Y-58504211D01*
X126409254Y-58444631D01*
X126409250Y-58444630D01*
X126310616Y-58433517D01*
X126246202Y-58406450D01*
X126206647Y-58348855D01*
X126200500Y-58310297D01*
X126200500Y-58264236D01*
X126200500Y-58264234D01*
X126161281Y-58117865D01*
X126085515Y-57986635D01*
X126085513Y-57986633D01*
X126081451Y-57979597D01*
X126083654Y-57978325D01*
X126063041Y-57925022D01*
X126077073Y-57856576D01*
X126125882Y-57806582D01*
X126139163Y-57800129D01*
X126148682Y-57796186D01*
X126148684Y-57796185D01*
X126312462Y-57686751D01*
X126312466Y-57686748D01*
X126451748Y-57547466D01*
X126451751Y-57547462D01*
X126561185Y-57383684D01*
X126561192Y-57383671D01*
X126636569Y-57201692D01*
X126636569Y-57201690D01*
X126644862Y-57160000D01*
X125841988Y-57160000D01*
X125859205Y-57150060D01*
X125915060Y-57094205D01*
X125954556Y-57025796D01*
X125975000Y-56949496D01*
X125975000Y-56870504D01*
X125954556Y-56794204D01*
X125915060Y-56725795D01*
X125859205Y-56669940D01*
X125841988Y-56660000D01*
X126644862Y-56660000D01*
X126636569Y-56618309D01*
X126636569Y-56618307D01*
X126561192Y-56436328D01*
X126561185Y-56436315D01*
X126451751Y-56272537D01*
X126451748Y-56272533D01*
X126312466Y-56133251D01*
X126312462Y-56133248D01*
X126148684Y-56023814D01*
X126148671Y-56023807D01*
X125966693Y-55948430D01*
X125966681Y-55948427D01*
X125773495Y-55910000D01*
X125375000Y-55910000D01*
X125375000Y-56610000D01*
X124875000Y-56610000D01*
X124875000Y-55910000D01*
X124476504Y-55910000D01*
X124283318Y-55948427D01*
X124283306Y-55948430D01*
X124101328Y-56023807D01*
X124101315Y-56023814D01*
X123937537Y-56133248D01*
X123937533Y-56133251D01*
X123798251Y-56272533D01*
X123798248Y-56272537D01*
X123688814Y-56436315D01*
X123688807Y-56436328D01*
X123613430Y-56618307D01*
X123613430Y-56618309D01*
X123605138Y-56660000D01*
X119680500Y-56660000D01*
X119680500Y-56419060D01*
X119680501Y-56419047D01*
X119680501Y-56250944D01*
X119676107Y-56234545D01*
X119639577Y-56098216D01*
X119639573Y-56098209D01*
X119560524Y-55961290D01*
X119560518Y-55961282D01*
X119399981Y-55800745D01*
X119141415Y-55542180D01*
X119107931Y-55480858D01*
X119112915Y-55411167D01*
X119154786Y-55355233D01*
X119220251Y-55330816D01*
X119229097Y-55330500D01*
X119647588Y-55330500D01*
X119714627Y-55350185D01*
X119724903Y-55357555D01*
X119727736Y-55359814D01*
X119727738Y-55359816D01*
X119880478Y-55455789D01*
X120050745Y-55515368D01*
X120050750Y-55515369D01*
X120229996Y-55535565D01*
X120230000Y-55535565D01*
X120230004Y-55535565D01*
X120409249Y-55515369D01*
X120409252Y-55515368D01*
X120409255Y-55515368D01*
X120579522Y-55455789D01*
X120732262Y-55359816D01*
X120859816Y-55232262D01*
X120955789Y-55079522D01*
X121015368Y-54909255D01*
X121035565Y-54730000D01*
X121015368Y-54550745D01*
X120955789Y-54380478D01*
X120859816Y-54227738D01*
X120732262Y-54100184D01*
X120579523Y-54004211D01*
X120409254Y-53944631D01*
X120409249Y-53944630D01*
X120230004Y-53924435D01*
X120229996Y-53924435D01*
X120050750Y-53944630D01*
X120050745Y-53944631D01*
X119880476Y-54004211D01*
X119727736Y-54100185D01*
X119724903Y-54102445D01*
X119722724Y-54103334D01*
X119721842Y-54103889D01*
X119721744Y-54103734D01*
X119660217Y-54128855D01*
X119647588Y-54129500D01*
X107062412Y-54129500D01*
X106995373Y-54109815D01*
X106985097Y-54102445D01*
X106982263Y-54100185D01*
X106982262Y-54100184D01*
X106925496Y-54064515D01*
X106829523Y-54004211D01*
X106659254Y-53944631D01*
X106659249Y-53944630D01*
X106480004Y-53924435D01*
X106479996Y-53924435D01*
X106300750Y-53944630D01*
X106300745Y-53944631D01*
X106130476Y-54004211D01*
X105977737Y-54100184D01*
X105850184Y-54227737D01*
X105754211Y-54380476D01*
X105694631Y-54550745D01*
X105694630Y-54550750D01*
X105674435Y-54729996D01*
X105674435Y-54730003D01*
X105694630Y-54909249D01*
X105694631Y-54909254D01*
X105754211Y-55079524D01*
X105760497Y-55089527D01*
X105779498Y-55156764D01*
X105759131Y-55223599D01*
X105705863Y-55268814D01*
X105655504Y-55279500D01*
X101905494Y-55279500D01*
X101839523Y-55260494D01*
X101829525Y-55254212D01*
X101659254Y-55194631D01*
X101659249Y-55194630D01*
X101480004Y-55174435D01*
X101479996Y-55174435D01*
X101300750Y-55194630D01*
X101300745Y-55194631D01*
X101130476Y-55254211D01*
X100977737Y-55350184D01*
X100850184Y-55477737D01*
X100754211Y-55630476D01*
X100694631Y-55800745D01*
X100694630Y-55800750D01*
X100674435Y-55979996D01*
X100674435Y-55980003D01*
X100694630Y-56159249D01*
X100694631Y-56159254D01*
X100754212Y-56329525D01*
X100760492Y-56339519D01*
X100779500Y-56405493D01*
X100779500Y-60529902D01*
X100759815Y-60596941D01*
X100743181Y-60617583D01*
X100461465Y-60899298D01*
X100400142Y-60932783D01*
X100387668Y-60934837D01*
X100300750Y-60944630D01*
X100130478Y-61004210D01*
X99977737Y-61100184D01*
X99850184Y-61227737D01*
X99754210Y-61380478D01*
X99721542Y-61473841D01*
X99680820Y-61530617D01*
X99615868Y-61556365D01*
X99547306Y-61542909D01*
X99496903Y-61494522D01*
X99480500Y-61432887D01*
X99480500Y-60372683D01*
X99480500Y-60372682D01*
X99449954Y-60160231D01*
X99389484Y-59954290D01*
X99389483Y-59954288D01*
X99389482Y-59954284D01*
X99300327Y-59759061D01*
X99300320Y-59759048D01*
X99205358Y-59611284D01*
X99184281Y-59578487D01*
X99151172Y-59540277D01*
X99043724Y-59416275D01*
X98881514Y-59275720D01*
X98881513Y-59275719D01*
X98810366Y-59229996D01*
X98700951Y-59159679D01*
X98700938Y-59159672D01*
X98505715Y-59070517D01*
X98299777Y-59010048D01*
X98299769Y-59010046D01*
X98294219Y-59009248D01*
X98230665Y-58980219D01*
X98230430Y-58980000D01*
X98230000Y-58980000D01*
X98098735Y-58980000D01*
X98089887Y-58979684D01*
X98087320Y-58979500D01*
X98087318Y-58979500D01*
X98045892Y-58979500D01*
X94295892Y-58979500D01*
X94230000Y-58979500D01*
X94137290Y-58979500D01*
X94136979Y-58979500D01*
X94126163Y-58980000D01*
X91854500Y-58980000D01*
X91787461Y-58960315D01*
X91741706Y-58907511D01*
X91730500Y-58856000D01*
X91730500Y-52604000D01*
X91750185Y-52536961D01*
X91802989Y-52491206D01*
X91854500Y-52480000D01*
X130605500Y-52480000D01*
X130672539Y-52499685D01*
G37*
%TD.AperFunction*%
%TA.AperFunction,Conductor*%
G36*
X116455520Y-56700185D02*
G01*
X116476162Y-56716819D01*
X117688630Y-57929287D01*
X117717990Y-57976013D01*
X117754209Y-58079519D01*
X117847341Y-58227737D01*
X117850184Y-58232262D01*
X117977738Y-58359816D01*
X118051956Y-58406450D01*
X118112721Y-58444632D01*
X118130478Y-58455789D01*
X118300745Y-58515368D01*
X118369384Y-58523101D01*
X118433796Y-58550166D01*
X118473352Y-58607760D01*
X118479500Y-58646321D01*
X118479500Y-64243330D01*
X118479499Y-64243348D01*
X118479499Y-64409054D01*
X118479498Y-64409054D01*
X118520424Y-64561789D01*
X118520425Y-64561790D01*
X118542933Y-64600774D01*
X118542934Y-64600776D01*
X118599475Y-64698709D01*
X118599481Y-64698717D01*
X118718349Y-64817585D01*
X118718355Y-64817590D01*
X119218584Y-65317819D01*
X119252069Y-65379142D01*
X119247085Y-65448834D01*
X119205213Y-65504767D01*
X119139749Y-65529184D01*
X119130903Y-65529500D01*
X116821519Y-65529500D01*
X116754480Y-65509815D01*
X116733838Y-65493181D01*
X114904044Y-63663387D01*
X114870559Y-63602064D01*
X114875543Y-63532372D01*
X114917415Y-63476439D01*
X114955727Y-63457046D01*
X115114727Y-63408814D01*
X115288538Y-63315910D01*
X115440883Y-63190883D01*
X115565910Y-63038538D01*
X115639562Y-62900745D01*
X115658811Y-62864733D01*
X115658811Y-62864732D01*
X115658814Y-62864727D01*
X115716024Y-62676132D01*
X115735341Y-62480000D01*
X115716024Y-62283868D01*
X115658814Y-62095273D01*
X115658811Y-62095269D01*
X115658811Y-62095266D01*
X115565913Y-61921467D01*
X115565909Y-61921460D01*
X115458246Y-61790274D01*
X115440883Y-61769117D01*
X115375832Y-61715730D01*
X115336500Y-61657987D01*
X115330500Y-61619880D01*
X115330500Y-61130908D01*
X115350185Y-61063869D01*
X115402989Y-61018114D01*
X115413536Y-61013869D01*
X115579522Y-60955789D01*
X115732262Y-60859816D01*
X115859816Y-60732262D01*
X115955789Y-60579522D01*
X116015368Y-60409255D01*
X116015369Y-60409249D01*
X116035565Y-60230003D01*
X116035565Y-60229996D01*
X116015369Y-60050750D01*
X116015368Y-60050745D01*
X115955788Y-59880476D01*
X115893293Y-59781017D01*
X115859816Y-59727738D01*
X115732262Y-59600184D01*
X115715289Y-59589519D01*
X115579523Y-59504211D01*
X115409254Y-59444631D01*
X115409249Y-59444630D01*
X115230004Y-59424435D01*
X115229996Y-59424435D01*
X115050750Y-59444630D01*
X115050745Y-59444631D01*
X114880476Y-59504211D01*
X114727737Y-59600184D01*
X114600184Y-59727737D01*
X114504210Y-59880478D01*
X114444630Y-60050750D01*
X114440256Y-60089577D01*
X114413190Y-60153991D01*
X114355595Y-60193546D01*
X114285758Y-60195683D01*
X114225851Y-60159725D01*
X114209841Y-60136155D01*
X114209494Y-60136374D01*
X114155770Y-60050874D01*
X114109816Y-59977738D01*
X113982262Y-59850184D01*
X113955476Y-59833353D01*
X113909186Y-59781017D01*
X113898230Y-59714476D01*
X113910565Y-59605002D01*
X113910565Y-59604996D01*
X113890369Y-59425750D01*
X113890368Y-59425745D01*
X113830788Y-59255475D01*
X113742724Y-59115324D01*
X113723723Y-59048087D01*
X113730674Y-59008401D01*
X113765368Y-58909255D01*
X113785565Y-58730000D01*
X113785310Y-58727738D01*
X113765369Y-58550750D01*
X113765368Y-58550745D01*
X113705788Y-58380476D01*
X113632748Y-58264234D01*
X113609816Y-58227738D01*
X113482262Y-58100184D01*
X113449374Y-58079519D01*
X113329523Y-58004211D01*
X113159254Y-57944631D01*
X113159249Y-57944630D01*
X112980004Y-57924435D01*
X112979996Y-57924435D01*
X112800750Y-57944630D01*
X112800745Y-57944631D01*
X112630476Y-58004211D01*
X112477737Y-58100184D01*
X112350184Y-58227737D01*
X112254210Y-58380478D01*
X112194630Y-58550750D01*
X112184837Y-58637668D01*
X112157770Y-58702082D01*
X112149298Y-58711465D01*
X111517584Y-59343181D01*
X111456261Y-59376666D01*
X111429903Y-59379500D01*
X110566669Y-59379500D01*
X110566653Y-59379499D01*
X110559057Y-59379499D01*
X110400943Y-59379499D01*
X110293587Y-59408265D01*
X110248210Y-59420424D01*
X110248209Y-59420425D01*
X110206285Y-59444631D01*
X110206283Y-59444632D01*
X110111290Y-59499475D01*
X110111282Y-59499481D01*
X109999478Y-59611286D01*
X108163579Y-61447184D01*
X108102256Y-61480669D01*
X108063746Y-61482906D01*
X107980001Y-61474659D01*
X107980000Y-61474659D01*
X107783870Y-61493975D01*
X107595266Y-61551188D01*
X107421467Y-61644086D01*
X107421460Y-61644090D01*
X107269116Y-61769116D01*
X107144090Y-61921460D01*
X107144086Y-61921467D01*
X107051188Y-62095266D01*
X106993975Y-62283870D01*
X106978403Y-62441986D01*
X106963020Y-62480081D01*
X106976828Y-62507062D01*
X106978403Y-62518013D01*
X106993975Y-62676129D01*
X107051188Y-62864733D01*
X107144086Y-63038532D01*
X107144091Y-63038539D01*
X107175519Y-63076835D01*
X107202832Y-63141145D01*
X107191041Y-63210013D01*
X107143889Y-63261573D01*
X107079666Y-63279500D01*
X106661007Y-63279500D01*
X106650922Y-63281506D01*
X106581331Y-63275277D01*
X106526154Y-63232414D01*
X106502910Y-63166524D01*
X106518978Y-63098527D01*
X106530874Y-63081229D01*
X106565910Y-63038538D01*
X106639562Y-62900745D01*
X106658811Y-62864733D01*
X106658811Y-62864732D01*
X106658814Y-62864727D01*
X106716024Y-62676132D01*
X106731597Y-62518012D01*
X106746979Y-62479917D01*
X106733172Y-62452937D01*
X106731597Y-62441986D01*
X106722952Y-62354210D01*
X106716024Y-62283868D01*
X106658814Y-62095273D01*
X106658811Y-62095269D01*
X106658811Y-62095266D01*
X106565913Y-61921467D01*
X106565909Y-61921460D01*
X106458246Y-61790274D01*
X106440883Y-61769117D01*
X106375832Y-61715730D01*
X106336500Y-61657987D01*
X106330500Y-61619880D01*
X106330500Y-61312412D01*
X106350185Y-61245373D01*
X106357555Y-61235097D01*
X106359810Y-61232267D01*
X106359816Y-61232262D01*
X106455789Y-61079522D01*
X106515368Y-60909255D01*
X106516490Y-60899298D01*
X106535565Y-60730003D01*
X106535565Y-60729996D01*
X106515369Y-60550750D01*
X106515368Y-60550745D01*
X106490613Y-60480000D01*
X106455789Y-60380478D01*
X106450890Y-60372682D01*
X106361237Y-60230000D01*
X106359816Y-60227738D01*
X106232262Y-60100184D01*
X106153786Y-60050874D01*
X106079523Y-60004211D01*
X105909254Y-59944631D01*
X105909249Y-59944630D01*
X105730004Y-59924435D01*
X105729996Y-59924435D01*
X105550750Y-59944630D01*
X105550745Y-59944631D01*
X105380476Y-60004211D01*
X105227737Y-60100184D01*
X105100184Y-60227737D01*
X105004211Y-60380476D01*
X104944631Y-60550745D01*
X104944630Y-60550750D01*
X104924435Y-60729996D01*
X104924435Y-60730003D01*
X104944630Y-60909249D01*
X104944631Y-60909254D01*
X105004211Y-61079523D01*
X105064515Y-61175496D01*
X105097341Y-61227738D01*
X105100185Y-61232263D01*
X105102445Y-61235097D01*
X105103334Y-61237275D01*
X105103889Y-61238158D01*
X105103734Y-61238255D01*
X105128855Y-61299783D01*
X105129500Y-61312412D01*
X105129500Y-61619880D01*
X105109815Y-61686919D01*
X105084169Y-61715729D01*
X105019117Y-61769117D01*
X105019114Y-61769119D01*
X105019112Y-61769122D01*
X104894090Y-61921460D01*
X104894086Y-61921467D01*
X104801188Y-62095266D01*
X104743975Y-62283870D01*
X104724659Y-62480000D01*
X104743975Y-62676129D01*
X104801188Y-62864733D01*
X104894086Y-63038532D01*
X104894090Y-63038539D01*
X105019116Y-63190883D01*
X105171460Y-63315909D01*
X105171467Y-63315913D01*
X105345266Y-63408811D01*
X105345269Y-63408811D01*
X105345273Y-63408814D01*
X105533868Y-63466024D01*
X105730000Y-63485341D01*
X105926132Y-63466024D01*
X105926134Y-63466023D01*
X105926136Y-63466023D01*
X105932107Y-63464836D01*
X105932572Y-63467173D01*
X105991878Y-63466617D01*
X106051008Y-63503838D01*
X106080629Y-63567118D01*
X106071335Y-63636367D01*
X106045743Y-63673598D01*
X103935887Y-65783454D01*
X103859222Y-65898192D01*
X103806421Y-66025667D01*
X103806418Y-66025679D01*
X103783289Y-66141958D01*
X103779500Y-66161006D01*
X103779500Y-68804507D01*
X103760494Y-68870478D01*
X103754209Y-68880479D01*
X103694633Y-69050737D01*
X103694630Y-69050750D01*
X103674435Y-69229996D01*
X103674435Y-69230003D01*
X103694630Y-69409249D01*
X103694631Y-69409254D01*
X103754211Y-69579523D01*
X103789989Y-69636463D01*
X103850184Y-69732262D01*
X103977738Y-69859816D01*
X104130478Y-69955789D01*
X104193202Y-69977737D01*
X104300745Y-70015368D01*
X104300750Y-70015369D01*
X104479996Y-70035565D01*
X104480000Y-70035565D01*
X104480004Y-70035565D01*
X104659249Y-70015369D01*
X104659252Y-70015368D01*
X104659255Y-70015368D01*
X104829522Y-69955789D01*
X104982262Y-69859816D01*
X105109816Y-69732262D01*
X105205789Y-69579522D01*
X105265368Y-69409255D01*
X105265369Y-69409249D01*
X105285565Y-69230003D01*
X105285565Y-69229996D01*
X105265369Y-69050750D01*
X105265366Y-69050737D01*
X105205790Y-68880479D01*
X105199506Y-68870478D01*
X105180500Y-68804507D01*
X105180500Y-66571519D01*
X105200185Y-66504480D01*
X105216819Y-66483838D01*
X106983838Y-64716819D01*
X107045161Y-64683334D01*
X107071519Y-64680500D01*
X110308044Y-64680500D01*
X110375083Y-64700185D01*
X110420838Y-64752989D01*
X110431264Y-64790616D01*
X110444630Y-64909250D01*
X110444631Y-64909254D01*
X110504211Y-65079523D01*
X110567183Y-65179741D01*
X110600184Y-65232262D01*
X110727738Y-65359816D01*
X110880478Y-65455789D01*
X110896454Y-65461379D01*
X110953230Y-65502100D01*
X110978978Y-65567053D01*
X110979500Y-65578421D01*
X110979500Y-69147587D01*
X110959815Y-69214626D01*
X110952450Y-69224896D01*
X110950186Y-69227734D01*
X110854211Y-69380476D01*
X110794631Y-69550745D01*
X110794630Y-69550750D01*
X110774435Y-69729996D01*
X110774435Y-69730003D01*
X110794630Y-69909249D01*
X110794631Y-69909254D01*
X110854211Y-70079523D01*
X110950185Y-70232263D01*
X110952945Y-70235724D01*
X110979355Y-70300410D01*
X110980000Y-70313039D01*
X110980000Y-74425500D01*
X110960315Y-74492539D01*
X110907511Y-74538294D01*
X110856000Y-74549500D01*
X110591519Y-74549500D01*
X110524480Y-74529815D01*
X110503838Y-74513181D01*
X109426546Y-73435888D01*
X109426545Y-73435887D01*
X109311807Y-73359222D01*
X109184332Y-73306421D01*
X109184322Y-73306418D01*
X109048996Y-73279500D01*
X109048994Y-73279500D01*
X109048993Y-73279500D01*
X106905494Y-73279500D01*
X106839523Y-73260494D01*
X106829525Y-73254212D01*
X106659254Y-73194631D01*
X106659249Y-73194630D01*
X106480004Y-73174435D01*
X106479996Y-73174435D01*
X106295226Y-73195253D01*
X106226404Y-73183198D01*
X106175025Y-73135849D01*
X106162683Y-73108029D01*
X106158814Y-73095273D01*
X106158810Y-73095265D01*
X106065913Y-72921467D01*
X106065909Y-72921460D01*
X105940883Y-72769116D01*
X105788539Y-72644090D01*
X105788532Y-72644086D01*
X105614733Y-72551188D01*
X105614727Y-72551186D01*
X105426132Y-72493976D01*
X105426129Y-72493975D01*
X105265464Y-72478151D01*
X105200677Y-72451990D01*
X105160319Y-72394955D01*
X105157202Y-72325155D01*
X105192317Y-72264750D01*
X105254515Y-72232919D01*
X105265465Y-72231345D01*
X105426032Y-72215531D01*
X105614537Y-72158348D01*
X105738523Y-72092076D01*
X105053223Y-71406777D01*
X104876445Y-71229999D01*
X105583553Y-71229999D01*
X105583553Y-71230000D01*
X106092075Y-71738523D01*
X106092076Y-71738523D01*
X106158348Y-71614537D01*
X106215531Y-71426032D01*
X106234838Y-71230000D01*
X106215531Y-71033967D01*
X106158348Y-70845462D01*
X106092075Y-70721476D01*
X105583553Y-71229999D01*
X104876445Y-71229999D01*
X104367923Y-70721476D01*
X104301649Y-70845466D01*
X104244468Y-71033967D01*
X104228039Y-71200772D01*
X104201878Y-71265559D01*
X104144843Y-71305917D01*
X104075043Y-71309034D01*
X104016955Y-71276298D01*
X103108580Y-70367923D01*
X104721476Y-70367923D01*
X105230000Y-70876446D01*
X105230001Y-70876446D01*
X105738523Y-70367923D01*
X105738523Y-70367922D01*
X105614539Y-70301651D01*
X105426030Y-70244468D01*
X105426034Y-70244468D01*
X105230000Y-70225161D01*
X105033967Y-70244468D01*
X104845466Y-70301649D01*
X104721476Y-70367923D01*
X103108580Y-70367923D01*
X102216819Y-69476162D01*
X102183334Y-69414839D01*
X102180500Y-69388481D01*
X102180500Y-66033162D01*
X102199507Y-65967189D01*
X102255053Y-65878789D01*
X102268034Y-65841692D01*
X102314633Y-65708520D01*
X102321211Y-65650142D01*
X102334830Y-65529268D01*
X102334830Y-65529261D01*
X102314634Y-65350015D01*
X102314633Y-65350010D01*
X102286792Y-65270444D01*
X102255054Y-65179743D01*
X102255053Y-65179741D01*
X102199506Y-65091338D01*
X102180500Y-65025366D01*
X102180500Y-56804500D01*
X102200185Y-56737461D01*
X102252989Y-56691706D01*
X102304500Y-56680500D01*
X116388481Y-56680500D01*
X116455520Y-56700185D01*
G37*
%TD.AperFunction*%
%TD*%
M02*
